<?xml version="1.0" standalone="no"?>
<!DOCTYPE svg PUBLIC "-//W3C//DTD SVG 1.1//EN" "http://www.w3.org/Graphics/SVG/1.1/DTD/svg11.dtd" >
<svg xmlns="http://www.w3.org/2000/svg" xmlns:xlink="http://www.w3.org/1999/xlink" version="1.1">
<metadata>
Created by FontForge 20201107 at Mon Dec 18 08:34:45 2023
 By 
Copyright 2013 Adobe Systems Incorporated. All rights reserved.
</metadata>
<defs>
<font id="NautilusPompilius" horiz-adv-x="995" >
  <font-face 
    font-family="Nautilus Pompilius"
    font-weight="400"
    font-stretch="normal"
    units-per-em="2048"
    panose-1="2 0 0 0 0 0 0 0 0 0"
    ascent="1536"
    descent="-512"
    x-height="1034"
    cap-height="1610"
    bbox="-702 -788 2834 1950"
    underline-thickness="102"
    underline-position="-204"
    unicode-range="U+0020-FB06"
  />
<missing-glyph horiz-adv-x="1388" 
d="M1286 457q0 -60 -22 -60q-11 0 -29 9l-145 65q36 48 36 88q0 129 -321 129l-336 219q-63 41 -63 62q0 27 100.5 52.5t181.5 25.5q159 0 298 -84.5t219.5 -220.5t80.5 -285zM440 37q-338 39 -338 418q0 200 119 358q40 51 62 51q7 0 16 -3.5t17 -8t23 -13.5t28 -16
l385 -207q0 -40 8.5 -86t25.5 -91.5t49.5 -75t73.5 -29.5q27 0 52 12.5t39.5 26t35.5 37.5l146 -107q27 -20 35 -28.5t8 -16.5q0 -14 -47 -55q-52 -41 -127 -76l22 -123q3 -29 -19.5 -53.5t-58.5 -30.5q-37 -7 -65 11.5t-33 48.5l-16 94l-41 -8l22 -160q4 -32 -19 -56.5
t-59 -29.5q-37 -5 -66.5 11.5t-33.5 47.5l-20 162l-48 -4l13 -82q6 -29 -17 -55.5t-59 -32.5t-64.5 14t-33.5 51zM518 549l-98 117l-41 -144l-143 -65l129 -78l14 -160l115 96l155 -32l-57 141l80 137z" />
    <glyph glyph-name="fi" unicode="fi" horiz-adv-x="1011" 
d="M-82 0l195 905h-103q-8 51 16 85t70 34h41l17 74q31 145 102.5 242t166 139.5t210.5 42.5q126 0 212.5 -60.5t86.5 -158.5q0 -77 -39.5 -118.5t-106.5 -41.5q-75 0 -127 41q33 105 39 184q-55 16 -94 16q-80 0 -130 -73t-83 -226l-14 -61h383q57 0 83.5 -28t14.5 -85
l-123 -581q-33 -152 62 -152q54 0 113.5 30.5t101.5 72.5q35 -15 35 -50q0 -23 -19 -45q-78 -88 -176 -145t-195 -57q-41 0 -77 12t-67 40t-40.5 74.5t2.5 116.5l131 627q12 51 -43 51h-211l-194 -905q-38 -176 -72 -295.5t-77 -219.5t-93.5 -156.5t-117 -86.5t-152.5 -30
q-100 0 -163 58.5t-63 180.5q0 26 18.5 40.5t49.5 14.5q24 -112 141 -112q35 0 63.5 15t53.5 50t45.5 80.5t42.5 118.5t41 151t43 191z" />
    <glyph glyph-name="fl" unicode="fl" horiz-adv-x="1032" 
d="M-74 0l195 905h-103q-8 51 16 85t70 34h41l17 74q44 209 179.5 316.5t320.5 107.5q59 0 110 -19t92 -60t54 -106t-3 -157l-188 -918q-9 -42 10.5 -63t57.5 -21q55 0 116 30.5t103 72.5q35 -15 35 -50q0 -23 -19 -45q-80 -89 -178.5 -145.5t-196.5 -56.5q-36 0 -65 7
t-57 26t-41.5 51.5t-17.5 83.5t15 122l191 928q43 195 -90 195q-72 0 -115 -79t-76 -233l-14 -61h158q8 -51 -16 -85t-70 -34h-97l-194 -905q-38 -176 -72 -295.5t-77 -219.5t-93.5 -156.5t-117 -86.5t-152.5 -30q-100 0 -162.5 58.5t-62.5 180.5q0 26 18 40.5t49 14.5
q24 -112 142 -112q98 0 156.5 133t131.5 473z" />
    <glyph glyph-name="ft" unicode="ft" horiz-adv-x="1017" 
d="M-74 0l195 905h-103q-8 51 16 85t70 34h41l17 74q44 209 179.5 316.5t320.5 107.5q59 0 111 -19t94.5 -60t56.5 -106t-2 -157l-33 -156h149q8 -51 -16 -85t-70 -34h-90l-121 -575q-33 -152 62 -152q54 0 113.5 30.5t101.5 72.5q35 -15 35 -50q0 -23 -19 -45
q-76 -86 -183 -144t-206 -58q-102 0 -147.5 72t-12.5 231l131 618h-256l-194 -905q-38 -176 -72 -295.5t-77 -219.5t-93.5 -156.5t-117 -86.5t-152.5 -30q-100 0 -162.5 58.5t-62.5 180.5q0 26 18 40.5t49 14.5q24 -112 142 -112q98 0 156.5 133t131.5 473zM399 1085
l-14 -61h256l37 168q22 92 0.5 148.5t-88.5 56.5q-72 0 -115 -79t-76 -233z" />
    <glyph glyph-name="fb" unicode="fb" horiz-adv-x="1423" 
d="M457 905h-97l-194 -905q-38 -176 -72 -295.5t-77 -219.5t-93.5 -156.5t-117 -86.5t-152.5 -30q-100 0 -162.5 58.5t-62.5 180.5q0 26 18 40.5t49 14.5q24 -112 142 -112q98 0 156.5 133t131.5 473l195 905h-103q-8 51 16 85t70 34h41l17 74q44 209 179.5 316.5
t320.5 107.5q59 0 110 -19t92 -60t54 -106t-3 -157l-61 -306q135 160 281 160q119 0 187.5 -85.5t68.5 -233.5q0 -102 -37 -209t-102 -198t-145.5 -164t-175 -114.5t-183.5 -41.5q-82 0 -136.5 41.5t-78.5 116t-23 174t27 219.5l143 663q43 195 -90 195q-72 0 -115 -79
t-76 -233l-14 -61h158q8 -51 -16 -85t-70 -34zM1133 670q0 80 -32.5 119.5t-80 37t-102 -34.5t-99.5 -87l-39 -179q-21 -99 -24 -166t11.5 -100.5t36 -47t52.5 -13.5q71 0 135.5 67t103 176.5t38.5 227.5z" />
    <glyph glyph-name="fh" unicode="fh" horiz-adv-x="1480" 
d="M-74 0l195 905h-103q-8 51 16 85t70 34h41l17 74q44 209 179.5 316.5t320.5 107.5q59 0 110 -19t92 -60t54 -106t-3 -157l-69 -332q127 186 272 186q27 0 53 -5.5t53.5 -19t47 -35.5t34.5 -55.5t15.5 -79t-10.5 -106.5l-101 -471q-9 -42 7 -63t49 -21q54 0 113.5 30.5
t101.5 72.5q35 -15 35 -50q0 -23 -19 -45q-78 -88 -176 -145t-195 -57q-33 0 -60.5 7t-54.5 26t-39.5 51.5t-17 83.5t12.5 122l86 408q15 50 6 85.5t-55 35.5q-100 0 -191 -109l-129 -581q-14 -66 -62 -97.5t-110 -31.5q-55 0 -86 20l254 1198q43 195 -90 195
q-72 0 -115 -79t-76 -233l-14 -61h150q8 -51 -16 -85t-70 -34h-89l-194 -905q-38 -176 -72 -295.5t-77 -219.5t-93.5 -156.5t-117 -86.5t-152.5 -30q-100 0 -162.5 58.5t-62.5 180.5q0 26 18 40.5t49 14.5q24 -112 142 -112q98 0 156.5 133t131.5 473z" />
    <glyph glyph-name="fj" unicode="fj" horiz-adv-x="976" 
d="M-74 0l195 905h-103q-8 51 16 85t70 34h41l17 74q31 145 102.5 242t166 139.5t210.5 42.5q126 0 212.5 -60.5t86.5 -158.5q0 -77 -39 -118.5t-106 -41.5q-75 0 -127 41q33 105 39 184q-55 16 -95 16q-80 0 -130 -73t-83 -226l-14 -61h381q57 0 83.5 -28t14.5 -85
l-196 -911q-38 -176 -72 -295.5t-77 -219.5t-93.5 -156.5t-117 -86.5t-152.5 -30q-76 0 -132.5 35.5t-78.5 107.5q-56 -74 -126 -108.5t-165 -34.5q-100 0 -162.5 58.5t-62.5 180.5q0 26 18 40.5t49 14.5q24 -112 142 -112q98 0 156.5 133t131.5 473zM567 905h-207
l-194 -905q-78 -365 -156 -530q36 -76 129 -76q42 0 75.5 24t60.5 67.5t53.5 121.5t49 168t50.5 225l182 854q12 51 -43 51z" />
    <glyph glyph-name="fk" unicode="fk" horiz-adv-x="1380" 
d="M1397 186q-61 -75 -151 -138.5t-150 -63.5q-47 0 -86.5 22t-67.5 62.5t-49.5 84.5t-37.5 102.5t-25 100.5t-19 93q-3 15 -4 22l-47 -12l-74 -346q-14 -66 -62 -97.5t-110 -31.5q-55 0 -86 20l252 1198q43 195 -90 195q-72 0 -115 -79t-76 -233l-14 -61h158q8 -51 -16 -85
t-70 -34h-97l-194 -905q-38 -176 -72 -295.5t-77 -219.5t-93.5 -156.5t-117 -86.5t-152.5 -30q-100 0 -162.5 58.5t-62.5 180.5q0 26 18 40.5t49 14.5q24 -112 142 -112q98 0 156.5 133t131.5 473l193 905h-101q-8 51 16 85t70 34h39l17 74q30 140 105 237.5t175.5 142
t221.5 44.5q59 0 110 -19t92 -60t54 -106t-3 -157l-133 -615l41 10q199 59 199 238q0 95 -29 127q21 42 64 69.5t96 28.5q59 3 87 -35.5t28 -121.5q1 -115 -73.5 -206.5t-182.5 -142.5q9 -38 17.5 -67t23 -72.5t32 -74.5t40.5 -61t52.5 -46t63.5 -16q28 0 60 21.5t79 64.5
q35 -15 35 -50q0 -24 -18 -45z" />
    <glyph glyph-name="Th" unicode="Th" horiz-adv-x="1871" 
d="M1702 733l-100 -471q-9 -42 6.5 -63t48.5 -21q54 0 113.5 30.5t101.5 72.5q35 -15 35 -50q0 -23 -19 -45q-78 -89 -175.5 -145.5t-194.5 -56.5q-33 0 -60.5 7t-54.5 26t-40 51.5t-17.5 83.5t12.5 122l86 408q12 75 0.5 98t-49.5 23q-99 0 -189 -107l-131 -583
q-14 -66 -62 -97.5t-110 -31.5q-55 0 -86 20l266 1266q-25 2 -57.5 10.5t-53.5 16t-66 25.5t-62 24l-262 -1231q-14 -67 -63 -99t-113 -32q-72 0 -109 26l313 1387h-16q-75 0 -142.5 -33t-114 -105t-46.5 -169q0 -62 28 -107q-71 -17 -120.5 -11t-80 34t-44 63.5t-13.5 77.5
q0 77 28.5 140t78 104t109 71.5t128.5 46.5t129.5 23.5t118.5 7.5q54 0 197 -12t201 -12q159 0 241 59q43 -53 52.5 -113.5t-7.5 -134.5l-100 -479q127 186 272 186q27 0 53 -5.5t53.5 -19t47 -35.5t34.5 -55.5t15.5 -79t-10.5 -106.5z" />
    <glyph glyph-name="Tb" unicode="Tb" horiz-adv-x="1812" 
d="M1139 -16q-82 0 -136.5 42t-78.5 117.5t-23 175.5t27 220l155 731q-25 2 -57.5 10.5t-53.5 16t-66 25.5t-62 24l-262 -1231q-14 -67 -63 -99t-113 -32q-72 0 -109 26l313 1387h-16q-75 0 -142.5 -33t-114 -105t-46.5 -169q0 -62 28 -107q-71 -17 -120.5 -11t-80 34
t-44 63.5t-13.5 77.5q0 77 28.5 140t78 104t109 71.5t128.5 46.5t129.5 23.5t118.5 7.5q54 0 197 -12t201 -12q159 0 241 59q43 -53 52.5 -113.5t-7.5 -134.5l-92 -453q135 160 281 160q119 0 187.5 -85.5t68.5 -233.5q0 -127 -58 -260.5t-148.5 -236t-208 -168.5
t-228.5 -66zM1524 670q0 80 -32.5 119.5t-80 37t-102 -34.5t-99.5 -87l-39 -179q-21 -99 -24 -167t11.5 -102t36 -48t52.5 -14q71 0 135.5 68.5t103 178.5t38.5 228z" />
    <glyph glyph-name="Tk" unicode="Tk" horiz-adv-x="1771" 
d="M819 4l264 1266q-25 2 -57.5 10.5t-53.5 16t-66 25.5t-62 24l-262 -1231q-14 -67 -63 -99t-113 -32q-72 0 -109 26l313 1387h-16q-75 0 -142.5 -33t-114 -105t-46.5 -169q0 -62 28 -107q-71 -17 -120.5 -11t-80 34t-44 63.5t-13.5 77.5q0 77 28.5 140t78 104t109 71.5
t128.5 46.5t129.5 23.5t118.5 7.5q54 0 197 -12t201 -12q159 0 241 59q43 -53 52.5 -113.5t-7.5 -134.5l-163 -762l40 10q199 59 199 238q0 95 -29 127q21 42 64 69.5t96 28.5q59 3 87 -35.5t28 -121.5q1 -115 -73.5 -206.5t-182.5 -142.5q9 -38 17.5 -67t23 -72.5t32 -74.5
t40.5 -61t52.5 -46t63.5 -16q47 0 140 86q34 -15 34 -50q0 -24 -18 -45q-61 -75 -151 -138.5t-150 -63.5q-47 0 -86.5 22t-67.5 62.5t-49.5 84.5t-37.5 102.5t-25 100.5t-19 93q-3 15 -4 22l-47 -12l-74 -346q-14 -66 -62 -97.5t-110 -31.5q-55 0 -86 20z" />
    <glyph glyph-name="ti" unicode="ti" horiz-adv-x="1081" 
d="M633 905h-275l-120 -575q-15 -78 -1.5 -114t46.5 -36q31 0 61.5 23.5t52.5 75.5q29 0 45.5 -15t16.5 -41q0 -67 -47.5 -124t-111.5 -86t-124 -29q-33 0 -64 8t-63 28.5t-50 54.5t-26 86.5t9 125.5l131 618h-103q-8 51 16 85t70 34h41l37 168q14 66 62 97.5t110 31.5
q54 0 96 -27l-57 -270h444q57 0 84 -28t15 -85l-123 -581q-33 -152 61 -152q54 0 113.5 30.5t101.5 72.5q35 -15 35 -50q0 -24 -18 -45q-78 -88 -176 -145t-195 -57q-41 0 -77 12t-67 40t-40.5 74.5t2.5 116.5l131 627q12 51 -43 51zM731 1298q6 60 51 102t105 42t98.5 -42
t32.5 -102q-9 -60 -54.5 -101.5t-105.5 -41.5q-61 0 -98.5 42t-28.5 101z" />
    <glyph glyph-name="ol" unicode="ol" horiz-adv-x="1579" 
d="M1634 317q-53 -136 -207 -234.5t-299 -98.5q-116 0 -180 75t-45 228q3 26 11 85.5t12 90.5q-61 0 -133 16q-33 -129 -115.5 -243.5t-190.5 -183t-211 -68.5q-77 0 -136 29t-94 80t-53 115t-18 138q0 93 24.5 191t72 187.5t110 161t145.5 114t173 42.5q82 0 141.5 -27
t103.5 -93q-3 -34 -24 -50.5t-45 -7.5q-64 23 -131 23t-126 -46t-97.5 -116.5t-61 -153.5t-22.5 -159q0 -127 37 -188.5t96 -61.5q43 0 88.5 32t80.5 83.5t53.5 125t8.5 148.5q-46 22 -100 55q-34 85 -0.5 150t119.5 65q85 0 139 -59t51 -156q0 -17 -4 -45q75 -16 133 -16
q48 301 108.5 498.5t149.5 308t205 110.5q74 0 119 -44t45 -122q0 -123 -44.5 -263.5t-132 -272.5t-198.5 -209q-19 -112 -33 -221q-10 -75 21.5 -111.5t89.5 -36.5q56 0 122 29t120 79.5t73 104.5q29 4 44.5 -22t4.5 -56zM1417 1327q-46 0 -101 -181t-108 -487
q114 110 179 287.5t65 335.5q0 25 -8.5 35t-26.5 10z" />
    <glyph glyph-name="afii10080_afii10067" unicode="&#x43e;&#x432;" horiz-adv-x="1771" 
d="M911 377q3 50 9 110q-64 0 -123 11q-30 -133 -112.5 -252t-192.5 -190.5t-216 -71.5q-77 0 -136 29t-94 80t-53 115t-18 138q0 93 24.5 191t72 187.5t110 161t145.5 114t173 42.5q82 0 141.5 -27t103.5 -93q-3 -34 -24 -50.5t-45 -7.5q-64 23 -131 23t-126 -46
t-97.5 -116.5t-61 -153.5t-22.5 -159q0 -127 37 -188.5t96 -61.5q58 0 116.5 53t93 146.5t19.5 193.5q-14 6 -90 45q-4 2 -8 6q-34 85 -0.5 150t119.5 65q85 0 139 -59t51 -156q0 -18 -2 -26q59 -11 123 -11q19 128 52.5 250.5t86 240.5t117 206t151 142t183.5 54
q96 0 147.5 -51t44.5 -147q-8 -83 -102 -232t-226 -282q75 30 146 30q85 0 136 -59t44 -156q-12 -150 -99 -285.5t-214 -215.5t-254 -80q-118 0 -181 94t-53 299zM1477 600q-34 82 -164 82q-66 -60 -146 -111q-15 -91 -18 -161q-13 -256 119 -256q45 0 83 25t63.5 64.5
t43.5 89t25.5 99t6 94t-12.5 74.5zM1516 1335q-64 0 -130.5 -104t-115 -247t-82.5 -304q138 111 250 277t127 284q13 94 -49 94z" />
    <glyph glyph-name="Fi" unicode="Fi" horiz-adv-x="1499" 
d="M279 1118q0 -73 40 -119q-44 -20 -86 -20q-76 0 -121.5 56t-45.5 134q0 81 28 147t76 108.5t105.5 74t124 48t123 23.5t110.5 7q80 0 198 -11.5t200.5 -20t193.5 1.5t211 46q41 -112 19.5 -194t-82.5 -129t-138 -47q-59 0 -127.5 27t-166.5 80t-144 73l-119 -553
q21 -2 68.5 -9t71 -8.5t59 3t65.5 18.5q20 -24 18 -53t-16.5 -54.5t-45.5 -43t-69 -17.5q-27 0 -56.5 5.5t-66 15.5t-55.5 14l-129 -606q-14 -67 -63 -99t-113 -32q-71 0 -108 26l325 1442q-53 -5 -102.5 -28t-90.5 -63t-66 -103t-25 -140zM963 227l118 570q9 51 -20 51
q-13 0 -41 -25q-23 13 -25.5 50t25.5 63q125 98 229 98q58 0 84.5 -27.5t14.5 -84.5l-125 -592q-33 -152 61 -152q54 0 113.5 30.5t101.5 72.5q35 -15 35 -50q0 -24 -18 -45q-78 -88 -176 -145t-195 -57q-41 0 -77 12t-67 40t-40.5 74.5t2.5 116.5z" />
    <glyph glyph-name="Fj" unicode="Fj" horiz-adv-x="1460" 
d="M279 1118q0 -73 40 -119q-44 -20 -86 -20q-76 0 -121.5 56t-45.5 134q0 81 28 147t76 108.5t105.5 74t124 48t123 23.5t110.5 7q80 0 198 -11.5t200.5 -20t193.5 1.5t211 46q41 -112 19.5 -194t-82.5 -129t-138 -47q-59 0 -127.5 27t-166.5 80t-144 73l-119 -553
q21 -2 68.5 -9t71 -8.5t59 3t65.5 18.5q20 -24 18 -53t-16.5 -54.5t-45.5 -43t-69 -17.5q-27 0 -56.5 5.5t-66 15.5t-55.5 14l-129 -606q-14 -67 -63 -99t-113 -32q-71 0 -108 26l325 1442q-53 -5 -102.5 -28t-90.5 -63t-66 -103t-25 -140zM1348 922l-156 -725
q-9 -43 -18 -84q192 94 292 178q24 -21 25.5 -50t-23.5 -53q-33 -29 -127.5 -87t-193.5 -105q-22 -89 -44 -164t-54 -157.5t-66.5 -147.5t-81.5 -126t-100 -101t-120.5 -64t-143.5 -24q-44 0 -87.5 16t-79.5 45.5t-58.5 79t-22.5 110.5q0 54 18.5 104t41.5 87.5t77.5 81
t90.5 68.5t119 67t124.5 61.5t142.5 64.5q1 1 2 1q24 99 51 219l125 580q9 51 -20 51q-13 0 -41 -25q-23 13 -25.5 50t25.5 63q125 98 229 98q58 0 84.5 -27.5t14.5 -84.5zM539 -606q102 0 180 113t149 358q-84 -41 -138 -71t-111.5 -68t-89.5 -72t-53 -76t-21 -88
q0 -48 28.5 -72t55.5 -24z" />
    <glyph glyph-name="tj" unicode="tj" horiz-adv-x="1050" 
d="M541 217l137 637q12 51 -43 51h-277l-120 -575q-15 -78 -1.5 -114t46.5 -36q31 0 61.5 23.5t52.5 75.5q29 0 45.5 -15t16.5 -41q0 -67 -47.5 -124t-111.5 -86t-124 -29q-33 0 -64 8t-63 28.5t-50 54.5t-26 86.5t9 125.5l131 618h-103q-8 51 16 85t70 34h41l37 168
q14 66 62 97.5t110 31.5q54 0 96 -27l-57 -270h446q57 0 84 -28t15 -85l-154 -714q-9 -43 -18 -84q195 95 293 178q24 -21 25.5 -50t-23.5 -53q-32 -29 -127 -87t-195 -105q-22 -89 -44 -164t-54 -157.5t-66.5 -147.5t-81.5 -126t-100 -101t-120.5 -64t-143.5 -24
q-44 0 -87.5 16t-79.5 45.5t-58.5 79t-22.5 110.5q0 54 18.5 104t41.5 87.5t77.5 81t90.5 68.5t119 67t124.5 61.5t142.5 64.5q1 1 2 1q38 156 52 219zM123 -606q102 0 180.5 113t149.5 358q-84 -42 -138 -71.5t-111.5 -67.5t-90 -72t-53.5 -76t-21 -88q0 -48 28.5 -72
t55.5 -24zM733 1298q6 60 51 102t105 42t98.5 -42t32.5 -102q-9 -60 -54.5 -101.5t-105.5 -41.5q-61 0 -98.5 42t-28.5 101z" />
    <glyph glyph-name="tm" unicode="tm" horiz-adv-x="2033" 
d="M496 10l180 844q12 51 -43 51h-275l-120 -575q-15 -78 -1.5 -114t46.5 -36q31 0 61.5 23.5t52.5 75.5q29 0 45.5 -15t16.5 -41q0 -67 -47.5 -124t-111.5 -86t-124 -29q-33 0 -64 8t-63 28.5t-50 54.5t-26 86.5t9 125.5l131 618h-103q-8 51 16 85t70 34h41l37 168
q14 66 62 97.5t110 31.5q54 0 96 -27l-57 -270h444q57 0 84 -28t15 -85l-19 -82q142 205 303 205q71 0 123.5 -55t48.5 -156q148 211 308 211q30 0 58 -8.5t57 -28.5t45 -54.5t22.5 -86t-10.5 -123.5l-101 -471q-9 -42 7 -63t49 -21q54 0 113.5 30.5t101.5 72.5
q34 -15 34 -50q0 -24 -18 -45q-78 -88 -176 -145t-195 -57q-33 0 -60.5 7t-54.5 26t-39.5 51.5t-17 83.5t12.5 122l86 408q15 50 5.5 85.5t-55.5 35.5q-91 0 -178 -94l-127 -596q-14 -66 -62 -97.5t-110 -31.5q-55 0 -96 26l143 672q15 50 6 85.5t-55 35.5q-99 0 -188 -107
l-125 -583q-14 -66 -62 -97.5t-110 -31.5q-55 0 -96 26z" />
    <glyph glyph-name="tn" unicode="tn" horiz-adv-x="1554" 
d="M496 10l180 844q12 51 -43 51h-275l-120 -575q-15 -78 -1.5 -114t46.5 -36q31 0 61.5 23.5t52.5 75.5q29 0 45.5 -15t16.5 -41q0 -67 -47.5 -124t-111.5 -86t-124 -29q-33 0 -64 8t-63 28.5t-50 54.5t-26 86.5t9 125.5l131 618h-103q-8 51 16 85t70 34h41l37 168
q14 66 62 97.5t110 31.5q54 0 96 -27l-57 -270h444q58 0 85 -28t14 -85l-19 -82q65 93 156 149t180 56t130.5 -74.5t8.5 -226.5l-100 -471q-9 -42 6.5 -63t48.5 -21q54 0 113.5 30.5t101.5 72.5q35 -15 35 -50q0 -24 -18 -45q-78 -88 -176 -145t-195 -57q-33 0 -60.5 7
t-54.5 26t-40 51.5t-17.5 83.5t12.5 122l86 408q13 61 -3 91t-52 30q-40 0 -93.5 -32t-88.5 -75l-125 -583q-14 -66 -62 -97.5t-110 -31.5q-55 0 -96 26z" />
    <glyph glyph-name="tp" unicode="tp" horiz-adv-x="1523" 
d="M340 -745l336 1599q12 51 -43 51h-275l-120 -575q-15 -78 -1.5 -114t46.5 -36q31 0 61.5 23.5t52.5 75.5q29 0 45.5 -15t16.5 -41q0 -67 -47.5 -124t-111.5 -86t-124 -29q-33 0 -64 8t-63 28.5t-50 54.5t-26 86.5t9 125.5l131 618h-103q-8 51 16 85t70 34h41l37 168
q14 66 62 97.5t110 31.5q54 0 96 -27l-57 -270h444q58 0 85 -28t14 -85l-8 -39q132 162 278 162q87 0 147 -46.5t86.5 -121t26.5 -170.5q0 -93 -25.5 -192t-76 -191.5t-118 -166t-160 -118t-193.5 -44.5q-80 0 -142 53l-141 -680q-14 -66 -59.5 -97.5t-106.5 -31.5
q-54 0 -96 27zM1085 829q-96 0 -202 -131l-113 -534q43 -23 102 -23q75 0 140 46.5t106 118.5t64.5 155.5t23.5 161.5q0 103 -33 154.5t-88 51.5z" />
    <glyph glyph-name="tr" unicode="tr" horiz-adv-x="1421" 
d="M496 10l180 844q12 51 -43 51h-275l-120 -575q-15 -78 -1.5 -114t46.5 -36q31 0 61.5 23.5t52.5 75.5q29 0 45.5 -15t16.5 -41q0 -67 -47.5 -124t-111.5 -86t-124 -29q-33 0 -64 8t-63 28.5t-50 54.5t-26 86.5t9 125.5l131 618h-103q-8 51 16 85t70 34h41l37 168
q14 66 62 97.5t110 31.5q54 0 96 -27l-57 -270h444q57 0 84 -28t15 -85l-27 -131q133 254 311 254q81 0 125.5 -53t44.5 -129q0 -45 -17 -86.5t-50 -73.5t-82.5 -45t-114.5 0q20 39 22.5 75t-14 58.5t-49.5 22.5q-59 0 -124 -96t-126 -285l-63 -309q-13 -66 -61.5 -97.5
t-110.5 -31.5q-55 0 -96 26z" />
    <glyph glyph-name="tu" unicode="tu" horiz-adv-x="1587" 
d="M567 377l109 477q12 51 -43 51h-275l-120 -575q-15 -78 -1.5 -114t46.5 -36q31 0 61.5 23.5t52.5 75.5q29 0 45.5 -15t16.5 -41q0 -67 -47.5 -124t-111.5 -86t-124 -29q-33 0 -64 8t-63 28.5t-50 54.5t-26 86.5t9 125.5l131 618h-103q-8 51 16 85t70 34h41l37 168
q14 66 62 97.5t110 31.5q54 0 96 -27l-57 -270h444q58 0 85 -28t14 -85l-123 -571q-26 -121 69 -121q100 0 189 107l123 579q14 66 62 97.5t110 31.5q55 0 96 -26l-143 -678q-33 -152 61 -152q54 0 113.5 30.5t101.5 72.5q35 -15 35 -50q0 -24 -18 -45
q-75 -85 -174.5 -143.5t-180.5 -58.5q-40 0 -73.5 11.5t-62 36.5t-43.5 71.5t-11 111.5q-142 -231 -299 -231q-65 0 -110 26.5t-66.5 67t-29 95t-3 104t15.5 100.5z" />
    <glyph glyph-name="tv" unicode="tv" horiz-adv-x="1372" 
d="M866 911q-29 -134 -41 -260t-0.5 -250t52.5 -204q116 92 187 238t71 292q0 107 -32.5 188t-94.5 109q3 76 43 118t94 40q66 -2 116 -62t50 -166q0 -136 -36.5 -280t-96.5 -264.5t-132 -218t-149.5 -152.5t-142.5 -55q-77 0 -123.5 96.5t-57 235.5t0.5 285.5t40 252.5
q7 25 -5 38t-38 13h-213l-120 -575q-15 -78 -1.5 -114t46.5 -36q31 0 61.5 23.5t52.5 75.5q29 0 45.5 -15t16.5 -41q0 -67 -47.5 -124t-111.5 -86t-124 -29q-33 0 -64 8t-63 28.5t-50 54.5t-26 86.5t9 125.5l131 618h-103q-8 51 16 85t70 34h41l37 168q14 66 62 97.5
t110 31.5q54 0 96 -27l-57 -270h383q58 0 84.5 -28t13.5 -85z" />
    <glyph glyph-name="tw" unicode="tw" horiz-adv-x="1886" 
d="M866 911q-101 -465 15 -714q88 87 142.5 248t109.5 460q13 66 61.5 97.5t110.5 31.5q59 0 96 -26q-72 -332 -72 -504q0 -174 62 -307q116 92 187 238t71 292q0 107 -32.5 188t-94.5 109q3 76 43 118t94 40q66 -2 116 -62t50 -166q0 -136 -36.5 -280t-96.5 -264.5
t-132 -218t-149.5 -152.5t-142.5 -55q-135 0 -158 395q-82 -184 -176 -289.5t-176 -105.5q-71 0 -116 73t-59.5 181.5t-14 231t14 225t31.5 159.5q7 25 -5 38t-38 13h-213l-120 -575q-15 -78 -1.5 -114t46.5 -36q31 0 61.5 23.5t52.5 75.5q29 0 45.5 -15t16.5 -41
q0 -67 -47.5 -124t-111.5 -86t-124 -29q-33 0 -64 8t-63 28.5t-50 54.5t-26 86.5t9 125.5l131 618h-103q-8 51 16 85t70 34h41l37 168q14 66 62 97.5t110 31.5q54 0 96 -27l-57 -270h383q58 0 84.5 -28t13.5 -85z" />
    <glyph glyph-name="Ti" unicode="Ti" horiz-adv-x="1462" 
d="M279 1118q0 -73 40 -119q-44 -20 -86 -20q-76 0 -121.5 56t-45.5 134q0 81 28 147t76 108.5t105.5 74t124 48t123 23.5t110.5 7q80 0 198 -11.5t200.5 -20t193.5 1.5t211 46q41 -112 19.5 -194t-82.5 -129t-138 -47q-40 0 -92.5 16.5t-88 33.5t-106.5 54t-98 51
l-268 -1263q-14 -67 -63 -99t-113 -32q-72 0 -109 26l326 1442q-5 0 -14.5 1t-14.5 1q-56 0 -110.5 -20.5t-101 -60t-75 -106t-28.5 -149.5zM926 227l118 570q9 51 -20 51q-13 0 -41 -25q-23 13 -25.5 50t25.5 63q125 98 229 98q58 0 84.5 -27.5t14.5 -84.5l-125 -592
q-33 -152 61 -152q54 0 113.5 30.5t101.5 72.5q35 -15 35 -50q0 -24 -18 -45q-78 -88 -176 -145t-195 -57q-41 0 -77 12t-67 40t-40.5 74.5t2.5 116.5z" />
    <glyph glyph-name="Tj" unicode="Tj" horiz-adv-x="1429" 
d="M1311 922l-156 -725q-9 -43 -18 -84q195 95 293 178q24 -21 25.5 -50t-23.5 -53q-32 -29 -127 -87t-195 -105q-22 -89 -44 -164t-54 -157.5t-66.5 -147.5t-81.5 -126t-100 -101t-120.5 -64t-143.5 -24q-44 0 -87.5 16t-79.5 45.5t-58.5 79t-22.5 110.5q0 54 18.5 104
t41.5 87.5t77.5 81t90.5 68.5t119 67t124.5 61.5t142.5 64.5q1 1 2 1q38 156 52 219l124 580q9 51 -20 51q-13 0 -41 -25q-23 13 -25.5 50t25.5 63q125 98 229 98q58 0 84.5 -27.5t14.5 -84.5zM279 1118q0 -73 40 -119q-44 -20 -86 -20q-76 0 -121.5 56t-45.5 134
q0 81 28 147t76 108.5t105.5 74t124 48t123 23.5t110.5 7q80 0 198 -11.5t200.5 -20t193.5 1.5t211 46q41 -112 19.5 -194t-82.5 -129t-138 -47q-40 0 -92.5 16.5t-88 33.5t-106.5 54t-98 51l-268 -1263q-14 -67 -63 -99t-113 -32q-72 0 -109 26l326 1442q-5 0 -14.5 1
t-14.5 1q-56 0 -110.5 -20.5t-101 -60t-75 -106t-28.5 -149.5zM502 -606q102 0 180 113t149 358q-84 -41 -138 -71t-111.5 -68t-89.5 -72t-53 -76t-21 -88q0 -48 28.5 -72t55.5 -24z" />
    <glyph glyph-name="fm" unicode="fm" horiz-adv-x="2033" 
d="M-371 -606q35 0 63.5 15t53.5 50t45.5 80.5t42.5 118.5t41 151t43 191l195 905h-103q-8 51 16 85t70 34h41l17 74q42 195 159.5 309.5t266.5 114.5q258 0 258 -199q0 -82 -42 -126.5t-102 -41.5q-43 3 -82 29q33 70 33 133q0 59 -76 59q-116 0 -178 -291l-14 -61h452
q57 0 84 -28t15 -85l-19 -82q142 205 303 205q71 0 123.5 -55t48.5 -156q148 211 308 211q30 0 58 -8.5t57 -28.5t45 -54.5t22.5 -86t-10.5 -123.5l-101 -471q-9 -42 7 -63t49 -21q54 0 113.5 30.5t101.5 72.5q34 -15 34 -50q0 -24 -18 -45q-78 -88 -176 -145t-195 -57
q-33 0 -60.5 7t-54.5 26t-39.5 51.5t-17 83.5t12.5 122l86 408q15 50 5.5 85.5t-55.5 35.5q-91 0 -178 -94l-127 -596q-14 -66 -62 -97.5t-110 -31.5q-55 0 -96 26l143 672q15 50 6 85.5t-55 35.5q-99 0 -188 -107l-125 -583q-14 -66 -62 -97.5t-110 -31.5q-55 0 -96 26
l180 844q12 51 -43 51h-281l-194 -905q-38 -176 -72 -295.5t-77 -219.5t-93.5 -156.5t-117 -86.5t-152.5 -30q-100 0 -163 58.5t-63 180.5q0 26 18.5 40.5t49.5 14.5q24 -112 141 -112z" />
    <glyph glyph-name="fn" unicode="fn" horiz-adv-x="1554" 
d="M-371 -606q35 0 63.5 15t53.5 50t45.5 80.5t42.5 118.5t41 151t43 191l195 905h-103q-8 51 16 85t70 34h41l17 74q42 195 159.5 309.5t266.5 114.5q258 0 258 -199q0 -82 -42 -126.5t-102 -41.5q-43 3 -82 29q33 70 33 133q0 59 -76 59q-116 0 -178 -291l-14 -61h452
q58 0 85 -28t14 -85l-19 -82q65 93 156 149t180 56t130.5 -74.5t8.5 -226.5l-100 -471q-9 -42 6.5 -63t48.5 -21q54 0 113.5 30.5t101.5 72.5q35 -15 35 -50q0 -24 -18 -45q-78 -88 -176 -145t-195 -57q-33 0 -60.5 7t-54.5 26t-40 51.5t-17.5 83.5t12.5 122l86 408
q13 61 -3 91t-52 30q-40 0 -93.5 -32t-88.5 -75l-125 -583q-14 -66 -62 -97.5t-110 -31.5q-55 0 -96 26l180 844q12 51 -43 51h-281l-194 -905q-38 -176 -72 -295.5t-77 -219.5t-93.5 -156.5t-117 -86.5t-152.5 -30q-100 0 -163 58.5t-63 180.5q0 26 18.5 40.5t49.5 14.5
q24 -112 141 -112z" />
    <glyph glyph-name="fp" unicode="fp" horiz-adv-x="1523" 
d="M-371 -606q35 0 63.5 15t53.5 50t45.5 80.5t42.5 118.5t41 151t43 191l195 905h-103q-8 51 16 85t70 34h41l17 74q42 195 159.5 309.5t266.5 114.5q258 0 258 -199q0 -82 -42 -126.5t-102 -41.5q-43 3 -82 29q33 70 33 133q0 59 -76 59q-116 0 -178 -291l-14 -61h452
q58 0 85 -28t14 -85l-8 -39q132 162 278 162q87 0 147 -46.5t86.5 -121t26.5 -170.5q0 -93 -25.5 -192t-76 -191.5t-118 -166t-160 -118t-193.5 -44.5q-80 0 -142 53l-141 -680q-14 -66 -59.5 -97.5t-106.5 -31.5q-54 0 -96 27l336 1599q12 51 -43 51h-281l-194 -905
q-38 -176 -72 -295.5t-77 -219.5t-93.5 -156.5t-117 -86.5t-152.5 -30q-100 0 -163 58.5t-63 180.5q0 26 18.5 40.5t49.5 14.5q24 -112 141 -112zM1085 829q-96 0 -202 -131l-113 -534q43 -23 102 -23q75 0 140 46.5t106 118.5t64.5 155.5t23.5 161.5q0 103 -33 154.5
t-88 51.5z" />
    <glyph glyph-name="fr" unicode="fr" horiz-adv-x="1421" 
d="M-371 -606q35 0 63.5 15t53.5 50t45.5 80.5t42.5 118.5t41 151t43 191l195 905h-103q-8 51 16 85t70 34h41l17 74q42 195 159.5 309.5t266.5 114.5q258 0 258 -199q0 -82 -42 -126.5t-102 -41.5q-43 3 -82 29q33 70 33 133q0 59 -76 59q-116 0 -178 -291l-14 -61h452
q57 0 84 -28t15 -85l-27 -131q133 254 311 254q81 0 125.5 -53t44.5 -129q0 -45 -17 -86.5t-50 -73.5t-82.5 -45t-114.5 0q20 39 22.5 75t-14 58.5t-49.5 22.5q-59 0 -124 -96t-126 -285l-63 -309q-13 -66 -61.5 -97.5t-110.5 -31.5q-55 0 -96 26l180 844q12 51 -43 51h-281
l-194 -905q-38 -176 -72 -295.5t-77 -219.5t-93.5 -156.5t-117 -86.5t-152.5 -30q-100 0 -163 58.5t-63 180.5q0 26 18.5 40.5t49.5 14.5q24 -112 141 -112z" />
    <glyph glyph-name="fu" unicode="fu" horiz-adv-x="1587" 
d="M-371 -606q35 0 63.5 15t53.5 50t45.5 80.5t42.5 118.5t41 151t43 191l195 905h-103q-8 51 16 85t70 34h41l17 74q42 195 159.5 309.5t266.5 114.5q258 0 258 -199q0 -82 -42 -126.5t-102 -41.5q-43 3 -82 29q33 70 33 133q0 59 -76 59q-116 0 -178 -291l-14 -61h452
q58 0 85 -28t14 -85l-123 -571q-26 -121 69 -121q100 0 189 107l123 579q14 66 62 97.5t110 31.5q55 0 96 -26l-143 -678q-33 -152 61 -152q54 0 113.5 30.5t101.5 72.5q35 -15 35 -50q0 -24 -18 -45q-75 -85 -174.5 -143.5t-180.5 -58.5q-40 0 -73.5 11.5t-62 36.5
t-43.5 71.5t-11 111.5q-142 -231 -299 -231q-65 0 -110 26.5t-66.5 67t-29 95t-3 104t15.5 100.5l109 477q12 51 -43 51h-281l-194 -905q-38 -176 -72 -295.5t-77 -219.5t-93.5 -156.5t-117 -86.5t-152.5 -30q-100 0 -163 58.5t-63 180.5q0 26 18.5 40.5t49.5 14.5
q24 -112 141 -112z" />
    <glyph glyph-name="fv" unicode="fv" horiz-adv-x="1372" 
d="M-371 -606q35 0 63.5 15t53.5 50t45.5 80.5t42.5 118.5t41 151t43 191l195 905h-103q-8 51 16 85t70 34h41l17 74q42 195 159.5 309.5t266.5 114.5q258 0 258 -199q0 -82 -42 -126.5t-102 -41.5q-43 3 -82 29q33 70 33 133q0 59 -76 59q-116 0 -178 -291l-14 -61h391
q58 0 84.5 -28t13.5 -85q-29 -134 -41 -260t-0.5 -250t52.5 -204q116 92 187 238t71 292q0 107 -32.5 188t-94.5 109q3 76 43 118t94 40q66 -2 116 -62t50 -166q0 -136 -36.5 -280t-96.5 -264.5t-132 -218t-149.5 -152.5t-142.5 -55q-77 0 -123.5 96.5t-57 235.5t0.5 285.5
t40 252.5q7 25 -5 38t-38 13h-219l-194 -905q-38 -176 -72 -295.5t-77 -219.5t-93.5 -156.5t-117 -86.5t-152.5 -30q-100 0 -163 58.5t-63 180.5q0 26 18.5 40.5t49.5 14.5q24 -112 141 -112z" />
    <glyph glyph-name="fw" unicode="fw" horiz-adv-x="1886" 
d="M-371 -606q35 0 63.5 15t53.5 50t45.5 80.5t42.5 118.5t41 151t43 191l195 905h-103q-8 51 16 85t70 34h41l17 74q42 195 159.5 309.5t266.5 114.5q258 0 258 -199q0 -82 -42 -126.5t-102 -41.5q-43 3 -82 29q33 70 33 133q0 59 -76 59q-116 0 -178 -291l-14 -61h391
q58 0 84.5 -28t13.5 -85q-101 -465 15 -714q88 87 142.5 248t109.5 460q13 66 61.5 97.5t110.5 31.5q59 0 96 -26q-72 -332 -72 -504q0 -174 62 -307q116 92 187 238t71 292q0 107 -32.5 188t-94.5 109q3 76 43 118t94 40q66 -2 116 -62t50 -166q0 -136 -36.5 -280
t-96.5 -264.5t-132 -218t-149.5 -152.5t-142.5 -55q-135 0 -158 395q-82 -184 -176 -289.5t-176 -105.5q-71 0 -116 73t-59.5 181.5t-14 231t14 225t31.5 159.5q7 25 -5 38t-38 13h-219l-194 -905q-38 -176 -72 -295.5t-77 -219.5t-93.5 -156.5t-117 -86.5t-152.5 -30
q-100 0 -163 58.5t-63 180.5q0 26 18.5 40.5t49.5 14.5q24 -112 141 -112z" />
    <glyph glyph-name=".notdef" horiz-adv-x="1388" 
d="M1286 457q0 -60 -22 -60q-11 0 -29 9l-145 65q36 48 36 88q0 129 -321 129l-336 219q-63 41 -63 62q0 27 100.5 52.5t181.5 25.5q159 0 298 -84.5t219.5 -220.5t80.5 -285zM440 37q-338 39 -338 418q0 200 119 358q40 51 62 51q7 0 16 -3.5t17 -8t23 -13.5t28 -16
l385 -207q0 -40 8.5 -86t25.5 -91.5t49.5 -75t73.5 -29.5q27 0 52 12.5t39.5 26t35.5 37.5l146 -107q27 -20 35 -28.5t8 -16.5q0 -14 -47 -55q-52 -41 -127 -76l22 -123q3 -29 -19.5 -53.5t-58.5 -30.5q-37 -7 -65 11.5t-33 48.5l-16 94l-41 -8l22 -160q4 -32 -19 -56.5
t-59 -29.5q-37 -5 -66.5 11.5t-33.5 47.5l-20 162l-48 -4l13 -82q6 -29 -17 -55.5t-59 -32.5t-64.5 14t-33.5 51zM518 549l-98 117l-41 -144l-143 -65l129 -78l14 -160l115 96l155 -32l-57 141l80 137z" />
    <glyph glyph-name=".null" horiz-adv-x="0" 
 />
    <glyph glyph-name="nonmarkingreturn" horiz-adv-x="682" 
 />
    <glyph glyph-name="space" unicode=" " horiz-adv-x="512" 
 />
    <glyph glyph-name="exclam" unicode="!" horiz-adv-x="569" 
d="M618 1530l-288 -1071q-11 -44 -44 -66t-75 -22q-37 0 -66 18l199 1036q14 67 63 99t113 32q57 0 98 -26zM39 94q3 60 46 102t103 42t100.5 -42t37.5 -102q-5 -60 -48.5 -101.5t-103.5 -41.5t-99.5 41.5t-35.5 101.5z" />
    <glyph glyph-name="quotedbl" unicode="&#x22;" horiz-adv-x="720" 
d="M100 1024q-18 0 -30.5 14.5t-12.5 38.5q78 89 78 170q0 32 -23.5 83.5t-23.5 88.5q0 56 41 96.5t100 40.5q62 0 104 -43t42 -102q0 -108 -89.5 -227t-185.5 -160zM465 1024q-18 0 -30.5 14.5t-12.5 38.5q78 89 78 170q0 32 -23.5 83.5t-23.5 88.5q0 56 41 96.5t100 40.5
q62 0 103.5 -42.5t41.5 -102.5q0 -108 -89.5 -227t-184.5 -160z" />
    <glyph glyph-name="numbersign" unicode="#" horiz-adv-x="1110" 
d="M1061 928h-150l-65 -310h209q8 -64 -12.5 -100.5t-84.5 -36.5h-143l-106 -497q-56 -5 -91.5 29.5t-23.5 92.5l80 375h-293l-107 -497q-56 -5 -91 29.5t-23 92.5l80 375h-217q-16 54 10.5 95.5t85.5 41.5h151l66 310h-211q-16 54 10.5 95.5t85.5 41.5h146l96 451
q138 -7 115 -123l-70 -328h293l96 451q138 -7 115 -123l-70 -328h215q8 -64 -12 -100.5t-84 -36.5zM477 928l-65 -310h293l65 310h-293z" />
    <glyph glyph-name="dollar" unicode="$" horiz-adv-x="1167" 
d="M942 1800l-63 -239q106 -29 160.5 -106t54.5 -167q0 -83 -45.5 -142t-120.5 -59q-30 0 -66.5 21.5t-52.5 60.5q48 14 76 61t28 101q0 55 -32 93t-93 38q-91 0 -141.5 -72t-50.5 -176q0 -59 23.5 -113.5t61.5 -98t83.5 -86.5t91 -88t83.5 -93.5t61.5 -112.5t23.5 -135
q0 -223 -141.5 -357.5t-364.5 -143.5l-65 -246q-9 -32 -32.5 -48t-53.5 -16q-25 0 -48 15l58 303q-150 31 -230.5 138t-80.5 241q0 66 21.5 126.5t61 108.5t102.5 76.5t140 28.5q54 0 94.5 -35.5t40.5 -91.5q0 -31 -14 -66q-98 33 -167 -19t-69 -143q0 -88 58 -152.5
t158 -64.5q120 0 183.5 81.5t63.5 203.5q0 67 -22.5 125.5t-58.5 103t-80 87t-87.5 87t-79.5 93t-58.5 114.5t-22.5 142q0 161 108 271.5t277 125.5l30 149q10 49 45.5 72t81.5 23q45 0 70 -19z" />
    <glyph glyph-name="ampersand" unicode="&#x26;" horiz-adv-x="1705" 
d="M506 1169q0 -170 127 -345t325 -330q39 112 39 241q0 45 -6 92q-60 -3 -90 -41q-27 35 -27 73t23 69t70.5 51t109.5 20q57 0 145.5 -15t154 -15t122.5 30q25 -32 24.5 -73t-21.5 -75.5t-63 -58.5t-93 -24q-37 0 -75 7t-86.5 20t-72.5 18q14 -82 14 -143q0 -151 -41 -269
q233 -154 369 -180q0 -128 -57.5 -196.5t-120.5 -47.5q-145 50 -330 193q-87 -91 -200.5 -138.5t-231.5 -47.5q-107 0 -192 33t-137 89.5t-79.5 127t-27.5 149.5q0 92 36.5 178t112.5 156t181 100q-91 190 -91 352q0 92 46 176t131 137.5t188 53.5q156 0 241 -78.5
t85 -206.5q0 -184 -160 -184q-30 0 -66.5 21.5t-52.5 60.5q46 23 71 67.5t25 88.5q0 54 -38.5 85t-98.5 31q-85 0 -133.5 -62t-48.5 -190zM551 168q153 0 270 111q-220 204 -356 432q-70 -50 -109 -130.5t-39 -164.5q0 -106 60 -177t174 -71z" />
    <glyph glyph-name="quotesingle" unicode="'" horiz-adv-x="270" 
d="M-41 1104l82 289q25 73 67 108t91 35q42 0 71 -20l-170 -355q-35 -71 -90 -71q-26 0 -51 14z" />
    <glyph glyph-name="parenleft" unicode="(" horiz-adv-x="778" 
d="M377 223q0 -161 48 -321t130 -273q-32 -56 -100 -71q-86 68 -151.5 161.5t-102 193t-54.5 195t-18 185.5q0 172 40.5 342t122.5 335t220 314.5t319 261.5q67 -27 76 -88q-154 -132 -262 -286.5t-164.5 -317t-80 -314t-23.5 -317.5z" />
    <glyph glyph-name="parenright" unicode=")" horiz-adv-x="757" 
d="M408 881q0 161 -48.5 321t-130.5 273q32 56 101 71q86 -68 151.5 -161.5t102 -193t54 -195t17.5 -185.5q0 -172 -40.5 -342t-122.5 -335t-220 -314.5t-319 -261.5q-67 27 -76 88q531 453 531 1235z" />
    <glyph glyph-name="asterisk" unicode="*" horiz-adv-x="997" 
d="M180 1282q5 31 30.5 54t61.5 25.5t76 -30.5l94 -86l50 234q47 17 91.5 -18.5t28.5 -106.5l-24 -109l196 129q29 -14 44.5 -44t5 -67.5t-53.5 -64.5l-135 -86l158 -135q-5 -31 -30.5 -54t-61.5 -25.5t-76 30.5l-96 86l-47 -232q-47 -17 -92 18.5t-29 106.5l22 107
l-194 -129q-29 14 -44.5 44t-5 67.5t53.5 64.5l135 86z" />
    <glyph glyph-name="plus" unicode="+" horiz-adv-x="1054" 
d="M172 678q-16 18 -17 48t11.5 59t45 50t77.5 21h180l63 279q58 21 113 -22.5t35 -129.5l-29 -127h250q15 -23 16 -53.5t-11 -58.5t-44 -47t-78 -19h-174l-61 -293q-21 -15 -50.5 -7.5t-55.5 25t-40 54.5t-4 80l31 141h-258z" />
    <glyph glyph-name="comma" unicode="," horiz-adv-x="485" 
d="M-8 -295q-19 -6 -32 10.5t-3 42.5q54 46 83 100t32 100.5t-6 84t-27 61.5q8 57 49.5 96.5t99.5 39.5q62 0 98 -39t36 -99q0 -114 -94 -230.5t-236 -166.5z" />
    <glyph glyph-name="hyphen" unicode="-" horiz-adv-x="686" 
d="M145 502q-69 0 -102 -41q-27 38 -27 74q0 55 50 93t133 38q45 0 121 -9.5t110 -9.5q63 0 113 31q24 -39 24 -74q0 -59 -50 -104t-128 -45q-42 0 -119.5 23.5t-124.5 23.5z" />
    <glyph glyph-name="period" unicode="." horiz-adv-x="532" 
d="M39 94q3 60 46 102t103 42t100.5 -42t37.5 -102q-5 -60 -48.5 -101.5t-103.5 -41.5t-99.5 41.5t-35.5 101.5z" />
    <glyph glyph-name="slash" unicode="/" horiz-adv-x="786" 
d="M788 1389l-708 -1405q-55 0 -81 46t1 101l709 1405q62 0 85.5 -42t-6.5 -105z" />
    <glyph glyph-name="zero" unicode="0" horiz-adv-x="1101" 
d="M1102 1012q0 -94 -11.5 -191.5t-37.5 -199t-64 -194t-94 -174.5t-124 -141.5t-159 -94.5t-194 -35q-91 0 -159 27.5t-109 72.5t-66 114.5t-34 142.5t-9 167t11.5 191.5t37.5 199t64 194t94 174.5t124 141.5t159 94.5t194 35q91 0 159 -27.5t109 -72.5t66 -114.5
t34 -142.5t9 -167zM307 451q0 -157 41.5 -245.5t116.5 -88.5q62 0 115 41.5t90 108t67 155t48 178.5t30 182.5t16.5 162t4.5 122.5q0 157 -41.5 245.5t-116.5 88.5q-62 0 -115 -41.5t-90 -108t-67 -155t-48 -178.5t-30 -182.5t-16.5 -162t-4.5 -122.5z" />
    <glyph glyph-name="one" unicode="1" horiz-adv-x="616" 
d="M657 1520l-301 -1416q-14 -67 -63 -99t-113 -32q-56 0 -98 27l244 1139q-90 -35 -174 -35q-19 0 -34.5 23t-16.5 51.5t16 54.5q69 15 131.5 45.5t120 78t96 86.5t92.5 99q56 9 100 -22z" />
    <glyph glyph-name="two" unicode="2" horiz-adv-x="1019" 
d="M426 1106q-103 -39 -167 5.5t-64 148.5q0 86 56.5 153t144 100t186.5 33q81 0 154 -22t132.5 -65t95 -115.5t35.5 -165.5q0 -90 -36 -172t-96 -148t-133.5 -127.5t-152.5 -120.5t-149 -116.5t-127.5 -127t-83.5 -139.5q114 0 185 2t154.5 9t138.5 21.5t108.5 40
t93.5 62.5q53 -122 30 -207.5t-87 -131.5t-144 -46q-114 0 -254.5 18t-250.5 44q-26 -24 -67 -32.5t-79 1.5q-13 67 -1.5 141.5t42.5 133.5q34 66 90 135t116.5 127.5t126.5 121t124.5 125.5t106 129t75 145t27.5 161q0 90 -48 136t-118 46q-85 0 -137 -54.5t-52 -148.5
q0 -42 25 -100z" />
    <glyph glyph-name="three" unicode="3" horiz-adv-x="1038" 
d="M1102 1499q-37 -154 -168 -316.5t-309 -310.5q88 -8 153.5 -38t102 -75t54 -96.5t17.5 -111.5q0 -148 -64.5 -277.5t-182.5 -209.5t-261 -80q-188 0 -294.5 85t-106.5 238q0 57 16 111.5t47.5 100.5t84.5 74t120 28q57 0 98 -41t33 -115q-85 20 -133.5 -23.5
t-48.5 -124.5q0 -83 44 -136.5t128 -53.5q111 0 182.5 109t71.5 294q0 274 -262 236q-28 48 -6 108q123 106 211 196t155 196q-28 1 -131 16.5t-180 15.5q-60 0 -127.5 -18.5t-107.5 -42.5q-41 139 20.5 219t177.5 80q87 0 211.5 -20.5t177.5 -20.5q104 0 205 49
q49 -8 72 -45z" />
    <glyph glyph-name="four" unicode="4" horiz-adv-x="1050" 
d="M41 522q101 105 230.5 338.5t129.5 358.5q0 81 -27 139.5t-75 85.5q77 89 168 92q84 2 128 -40.5t44 -139.5q0 -120 -129.5 -364t-259.5 -374q53 9 112.5 7t87.5 -6t77 -12t81 -11l168 809q14 67 63 99t113 32q57 0 99 -27l-187 -895q42 12 90 37q33 -118 -6 -179.5
t-129 -74.5l-61 -293q-14 -67 -63 -99t-113 -32q-57 0 -99 27l84 401q-30 2 -84 8t-77.5 7.5t-82 3.5t-98.5 -4q-43 -2 -96 -17q-69 38 -88 123z" />
    <glyph glyph-name="five" unicode="5" horiz-adv-x="1042" 
d="M815 1233q-151 0 -383 49l-86 -391q88 27 174 27q107 0 188.5 -29.5t129.5 -81.5t72 -116t24 -140q0 -148 -64.5 -277.5t-182.5 -209.5t-261 -80q-188 0 -294.5 85t-106.5 238q0 57 16 111.5t47.5 100.5t84.5 74t120 28q57 0 98 -41t33 -115q-85 20 -133.5 -23.5
t-48.5 -124.5q0 -83 44 -136.5t128 -53.5q114 0 184 103t70 300q0 113 -53 187t-160 74q-61 0 -150 -25q-24 5 -51.5 25t-40.5 45l141 698q127 -22 226.5 -30.5t221 1.5t216.5 49q4 -46 4 -79q0 -109 -51.5 -175.5t-155.5 -66.5z" />
    <glyph glyph-name="six" unicode="6" horiz-adv-x="1071" 
d="M772 1577q136 0 197 -58t61 -141q0 -23 -9 -49.5t-28 -54t-57 -41.5t-88 -6q32 223 -115 223q-74 0 -140 -52.5t-115 -143t-84 -200t-56 -233.5q128 115 264 115q177 0 272 -106t95 -265q0 -82 -21.5 -163.5t-67 -157.5t-108.5 -134t-152.5 -93t-193.5 -35
q-96 0 -170.5 40.5t-120.5 112t-69 163.5t-23 200q0 120 22.5 245.5t64.5 246t106.5 227t143 187t180 127t212.5 46.5zM508 778q-82 0 -186 -73q-9 -89 -9 -175q0 -223 38 -314t122 -91q61 0 116.5 70.5t86.5 172t31 197.5q0 94 -49.5 153.5t-149.5 59.5z" />
    <glyph glyph-name="seven" unicode="7" horiz-adv-x="860" 
d="M414 106q0 -67 -54 -99t-122 -32q-57 0 -99 27q0 135 36 285.5t92.5 285t131.5 267t148.5 236.5t146.5 188q-83 -3 -195 15.5t-194 18.5q-58 0 -127 -19t-108 -42q-41 141 22 240.5t176 99.5q106 0 191.5 -21.5t158.5 -39t162 -9.5q71 5 164 37q26 -30 34.5 -64.5
t-11.5 -62.5q-151 -170 -262.5 -351.5t-172.5 -350.5t-89.5 -319t-28.5 -290z" />
    <glyph glyph-name="eight" unicode="8" horiz-adv-x="993" 
d="M991 1262q3 -102 -60.5 -205t-182.5 -174q47 -37 81.5 -75t67 -91t49.5 -124t17 -157t-29 -161t-79 -129t-116 -93t-140 -58.5t-150 -19.5q-123 0 -217 55t-141.5 143t-47.5 192q0 146 80.5 264t243.5 192q-67 62 -103.5 129t-36.5 158q0 104 37.5 191.5t99 143t136.5 86
t153 30.5q154 0 244.5 -85t93.5 -212zM692 383q0 64 -19 118.5t-56 98t-72.5 75.5t-87.5 72q-10 7 -15 11q-70 -75 -110.5 -174.5t-40.5 -202.5q0 -104 47.5 -169t146.5 -65q86 0 146.5 62t60.5 174zM473 1202q0 -45 14 -82t46.5 -70.5t58.5 -54t76 -55.5q34 38 63 99.5
t41 128t7.5 125t-40.5 96t-100 36.5q-68 -2 -117 -59.5t-49 -163.5z" />
    <glyph glyph-name="nine" unicode="9" horiz-adv-x="1081" 
d="M311 -18q-136 0 -197 57.5t-61 140.5q0 18 5 38.5t18.5 44t33 41t52.5 26.5t74 2q-32 -223 114 -223q98 0 181 92t134.5 229t79.5 305q-128 -112 -264 -112q-90 0 -161.5 35t-115 95.5t-66.5 137t-23 164.5q0 73 21.5 146t66.5 140.5t108 120t152.5 84t193.5 31.5
q96 0 170.5 -40.5t120.5 -112t69 -163.5t23 -200q0 -120 -22.5 -245.5t-64.5 -246t-106.5 -227t-143 -187t-180 -127t-212.5 -46.5zM575 780q86 0 185 72q10 98 10 176q0 223 -38 314.5t-122 91.5q-57 0 -103 -35.5t-73.5 -92t-42 -121.5t-14.5 -130q0 -77 19.5 -137t65 -99
t113.5 -39z" />
    <glyph glyph-name="colon" unicode=":" horiz-adv-x="425" 
d="M86 813q3 60 46.5 101.5t103.5 41.5t100 -41.5t37 -101.5q-5 -60 -48.5 -101.5t-103.5 -41.5t-99.5 41.5t-35.5 101.5zM8 211q3 60 46.5 101.5t103.5 41.5t100 -41.5t37 -101.5q-5 -60 -48.5 -101.5t-103.5 -41.5t-99.5 41.5t-35.5 101.5z" />
    <glyph glyph-name="semicolon" unicode=";" horiz-adv-x="485" 
d="M115 813q3 60 46 101.5t103 41.5t100 -41.5t37 -101.5q-5 -60 -48 -101.5t-103 -41.5t-99.5 41.5t-35.5 101.5zM-8 -295q-19 -6 -32 10.5t-3 42.5q54 46 83 100t32 100.5t-6 84t-27 61.5q8 57 49.5 96.5t99.5 39.5q62 0 98 -39t36 -99q0 -114 -94 -230.5t-236 -166.5z
" />
    <glyph glyph-name="less" unicode="&#x3c;" horiz-adv-x="688" 
d="M709 1012q-272 -300 -484 -469q120 -207 357 -461q-37 -35 -83 -53.5t-93.5 -11.5t-77.5 46q-7 9 -37 48.5t-38.5 50.5t-35.5 47l-37.5 50t-34 46t-35 49.5t-31 46t-32.5 50t-28.5 47t-28.5 49.5q197 176 471 483q38 42 88 49.5t91.5 -12.5t68.5 -55z" />
    <glyph glyph-name="equal" unicode="=" horiz-adv-x="731" 
d="M508 477h-465q-18 18 -18 53q0 47 35.5 86t99.5 39h465q16 -26 16 -61q0 -47 -34 -82t-99 -35zM578 805h-465q-19 19 -19 53q0 47 35.5 86t99.5 39h465q17 -27 17 -61q0 -47 -34 -82t-99 -35z" />
    <glyph glyph-name="greater" unicode="&#x3e;" horiz-adv-x="688" 
d="M-20 82q141 154 252.5 265t228.5 204q-116 205 -355 461q37 35 83 53.5t93.5 11t77.5 -46.5q7 -9 46.5 -60.5t48.5 -63.5t42.5 -57t46.5 -63t40 -56.5t42.5 -63t35.5 -57t36 -62.5q-193 -172 -471 -484q-38 -42 -87.5 -49t-91 13t-68.5 55z" />
    <glyph glyph-name="question" unicode="?" horiz-adv-x="722" 
d="M231 1135q-38 -45 -100 -45q-121 0 -121 167q0 133 105.5 226.5t261.5 93.5q89 0 165.5 -33t127.5 -105t51 -171q0 -67 -16 -124t-52 -110t-64.5 -86.5t-82.5 -87.5q-43 -45 -63.5 -67.5t-55 -68t-51 -81.5t-30 -87.5t-13.5 -106.5q0 -54 -48 -77.5t-130 1.5
q0 77 12.5 146t27 114.5t45.5 100.5t48.5 80.5t56.5 78.5q38 50 58 79t45 76.5t36 97.5t11 109q0 71 -32.5 108.5t-78.5 37.5q-73 0 -114.5 -49t-41.5 -117q0 -66 43 -100zM49 121q3 60 46.5 101.5t103.5 41.5t100 -41.5t37 -101.5q-5 -60 -48.5 -102t-103.5 -42t-99.5 42
t-35.5 102z" />
    <glyph glyph-name="at" unicode="@" horiz-adv-x="1331" 
d="M786 244q-132 0 -135 141q-99 -141 -211 -141q-48 0 -83 23.5t-52 61.5t-24 75.5t-7 76.5q0 115 41.5 229t116.5 185q91 82 184 82q99 0 132 -72q33 64 112 64q43 0 68 -19l-99 -467q-23 -106 48 -106q70 0 129 59t91.5 152.5t32.5 195.5q0 99 -22.5 177.5t-71 138.5
t-130 92.5t-193.5 32.5q-178 0 -310.5 -91.5t-199 -245t-66.5 -345.5q0 -229 117.5 -367.5t349.5 -138.5q123 0 236 41t166 102q37 -8 52.5 -33t11 -50.5t-20.5 -45.5q-49 -65 -158.5 -104t-278.5 -39q-164 0 -295 48.5t-216 135.5t-130 205.5t-45 259.5q0 125 30.5 238
t96 211t159.5 169t228.5 111.5t296.5 40.5q124 0 224 -29t167.5 -79t113 -119t65.5 -145.5t20 -161.5q0 -131 -69.5 -256.5t-196.5 -209t-275 -83.5zM520 406q71 0 137 79l76 367q-90 58 -166 -27q-58 -65 -86 -154.5t-28 -178.5q0 -40 18.5 -63t48.5 -23z" />
    <glyph glyph-name="A" unicode="A" horiz-adv-x="1325" 
d="M1341 186q-90 -91 -184 -146.5t-170 -55.5q-37 0 -70.5 7.5t-65 24.5t-50.5 45t-27.5 69t4.5 97l70 332h-230q-133 -307 -258 -441t-262 -134q-79 0 -127.5 73.5t-48.5 206.5q0 154 174 154q59 0 103 -35q-43 -98 -43 -211v-18q53 20 103 63.5t115.5 138t131.5 234
t148 363t169 513.5h-41q-129 0 -191.5 -59t-62.5 -141q0 -71 41 -119q-46 -21 -88 -21q-75 0 -120.5 57.5t-45.5 137.5q0 51 19.5 98t59 88t107 65.5t154.5 24.5q86 0 196.5 -13.5t183.5 -26t163 -16.5t135 15q29 -17 29 -53q0 -32 -19.5 -56t-52.5 -24h-8l-233 -1093
q-32 -152 67 -152q45 0 105.5 33t103.5 70q35 -15 35 -50q0 -23 -19 -45zM1036 1448q-92 10 -112 12q-134 -470 -256 -782h204z" />
    <glyph glyph-name="B" unicode="B" horiz-adv-x="1275" 
d="M969 1255q0 118 -60.5 172t-187.5 54q-103 0 -203 -40t-169.5 -119t-69.5 -177q0 -73 40 -119q-44 -20 -88 -20q-75 0 -120 57t-45 137q0 82 62.5 154t162 120t221.5 75.5t242 27.5q80 0 143.5 -8t120.5 -28t94.5 -53t59.5 -85.5t22 -122.5q0 -122 -86 -246.5
t-236 -204.5l2 -2q154 0 232 -72t78 -188q0 -94 -49.5 -196t-134 -188.5t-211.5 -142.5t-267 -56q-173 0 -293 43t-120 112q0 36 20 65t61 42q44 -38 95 -66l233 1102q14 67 63 99t113 32q57 0 99 -27l-119 -555q122 37 208.5 166t86.5 258zM743 739q-43 0 -92 -12
l-131 -612h2q103 0 196 64.5t148.5 167t55.5 210.5q0 83 -45.5 132.5t-133.5 49.5z" />
    <glyph glyph-name="C" unicode="C" 
d="M733 1577q72 0 128 -23t89.5 -60.5t50.5 -82.5t17 -94q0 -85 -46.5 -147t-119.5 -62q-32 0 -68.5 21.5t-52.5 60.5q45 18 70 60t24 83.5t-32 73t-88 31.5q-88 0 -172.5 -115t-138.5 -307t-54 -400q0 -94 16.5 -172t50 -139.5t90.5 -96t132 -34.5q176 0 366 107
q35 -15 35 -50q0 -27 -18 -45q-202 -202 -498 -202q-117 0 -207.5 48.5t-145.5 133t-82.5 190t-27.5 226.5q0 193 54.5 375.5t145.5 318.5t218 218.5t264 82.5z" />
    <glyph glyph-name="D" unicode="D" horiz-adv-x="1415" 
d="M139 313q64 0 158 -55q37 60 61 166l183 858q14 67 63 99t113 32q56 0 98 -27l-194 -890q-48 -212 -150 -342q83 -39 158 -39q96 0 178.5 51.5t139.5 136.5t98 195.5t60 228.5t19 236q0 85 -12.5 160t-41.5 141t-71.5 113t-106 74.5t-142.5 27.5q-119 0 -211.5 -27.5
t-148 -74.5t-83.5 -106t-28 -126q0 -73 40 -119q-44 -20 -88 -20q-75 0 -120 57t-45 137q0 78 45.5 145.5t133 119.5t227 82t316.5 30q155 0 273.5 -49t188.5 -134.5t104.5 -193t34.5 -233.5q0 -138 -30.5 -277t-92.5 -266t-148 -225t-205.5 -156.5t-255.5 -58.5
q-138 0 -270 90q-118 -90 -278 -90q-80 0 -131.5 38.5t-51.5 104.5q0 72 58 129t155 57zM123 135q68 0 123 55q-66 56 -105 56q-41 0 -66.5 -18.5t-25.5 -41.5t20.5 -37t53.5 -14z" />
    <glyph glyph-name="E" unicode="E" 
d="M281 1169q0 76 30 148.5t84 130.5t139 93.5t187 35.5q167 0 250.5 -73t83.5 -181q0 -89 -47 -152t-121 -63q-30 0 -66.5 21.5t-52.5 60.5q45 13 72.5 57t27.5 94q0 51 -30.5 86t-89.5 35q-113 0 -179.5 -89.5t-66.5 -209.5q0 -104 53.5 -186t155.5 -107q6 -42 -21 -77
q-97 -7 -170.5 -64.5t-109 -137t-35.5 -165.5q0 -111 62 -186.5t181 -75.5q98 0 197.5 28.5t179.5 88.5q35 -15 35 -50q0 -27 -18 -45q-101 -101 -246.5 -151.5t-292.5 -50.5q-97 0 -173 33t-121.5 90t-69 128.5t-23.5 153.5q0 155 96.5 290.5t261.5 186.5
q-82 54 -122.5 133t-40.5 170z" />
    <glyph glyph-name="F" unicode="F" horiz-adv-x="991" 
d="M279 1118q0 -73 40 -119q-44 -20 -86 -20q-76 0 -121.5 56t-45.5 134q0 81 28 147t76 108.5t105.5 74t124 48t123 23.5t110.5 7q67 0 163.5 -11.5t164.5 -20t158.5 1.5t172.5 46q33 -135 -27 -222t-173 -87q-13 0 -27.5 1.5t-32 6t-31 8t-34.5 11.5t-33 12.5t-36.5 15.5
t-34 15t-36.5 16.5t-34 15.5l-115 -536q21 -2 68.5 -9t71 -8.5t59 3t65.5 18.5q20 -24 18 -53t-16.5 -54.5t-45.5 -43t-69 -17.5q-27 0 -56.5 5.5t-66 15.5t-55.5 14l-129 -606q-14 -67 -63 -99t-113 -32q-71 0 -108 26l325 1442q-53 -5 -102.5 -28t-90.5 -63t-66 -103
t-25 -140z" />
    <glyph glyph-name="G" unicode="G" horiz-adv-x="1171" 
d="M514 -16q-117 0 -207.5 48.5t-145.5 133t-82.5 190t-27.5 226.5q0 193 54.5 375.5t145.5 318.5t218 218.5t264 82.5q173 0 246 -120q55 -90 31 -203q-21 -100 -88 -145q-36 -24 -78 -24q-30 0 -66.5 21.5t-52.5 60.5q51 30 71.5 90.5t-3.5 110t-88 49.5q-66 0 -132 -67
t-117.5 -176t-83.5 -257.5t-32 -300.5q0 -94 16.5 -172t50 -139.5t90.5 -96t132 -34.5q96 0 176.5 103t93.5 284q-19 -4 -64.5 -17t-79.5 -19.5t-67 -6.5q-51 0 -93 24t-63 59t-21.5 76t24.5 73q55 -30 116.5 -30t146 15t138.5 15q51 0 90.5 -19t59 -47.5t19.5 -63.5
t-22 -67q-22 22 -59 25q-12 -152 -60 -269.5t-119.5 -186.5t-155 -103.5t-175.5 -34.5z" />
    <glyph glyph-name="H" unicode="H" horiz-adv-x="1376" 
d="M1393 186q-103 -96 -189 -149t-168 -53q-40 0 -72.5 8t-63.5 27.5t-47 53t-22 85.5t11 123l108 514q-143 -50 -319 -54l-133 -626q-14 -67 -63 -99t-113 -32q-72 0 -109 26l330 1456h-11q-129 0 -191 -59t-62 -141q0 -73 40 -119q-47 -21 -88 -21q-75 0 -120 57.5
t-45 137.5q0 51 19.5 98t59 88t107 65.5t154.5 24.5q55 0 127 -13.5t120 -25.5t104.5 -16t80.5 14q28 -17 28 -53q0 -32 -19 -56t-52 -24h-19l-117 -542q136 0 312 16l108 508q14 67 63 99t113 32q53 0 99 -27l-254 -1179q-16 -84 3 -118t64 -34t105.5 33t103.5 70
q35 -15 35 -50q0 -24 -18 -45z" />
    <glyph glyph-name="I" unicode="I" horiz-adv-x="784" 
d="M532 1466q-129 0 -191 -59t-62 -141q0 -73 40 -119q-47 -21 -88 -21q-75 0 -120 57.5t-45 137.5q0 51 19.5 98t59 88t107 65.5t154.5 24.5q55 0 127 -13.5t120 -25.5t104.5 -16t80.5 14q28 -17 28 -53q0 -32 -19 -56t-52 -24h-19l-278 -1308q-14 -67 -63 -99t-113 -32
q-72 0 -109 26l330 1456h-11z" />
    <glyph glyph-name="J" unicode="J" horiz-adv-x="1097" 
d="M336 -293q93 0 150 101.5t116 367.5l281 1290q-128 0 -190 -59t-62 -141q0 -71 41 -119q-46 -21 -88 -21q-75 0 -120.5 57.5t-45.5 137.5q0 51 19.5 98t59 88t107 65.5t154.5 24.5q55 0 127 -13.5t120 -25.5t104.5 -16t80.5 14q29 -17 29 -53q0 -32 -19.5 -56t-52.5 -24
q-17 0 -25 2l-280 -1329q-54 -252 -181.5 -380t-322.5 -128q-77 0 -137 25.5t-95 68.5t-53 95t-18 110q0 116 70 202.5t186 86.5q111 0 152.5 -63t0.5 -176q-38 36 -96 36q-73 0 -111 -42.5t-38 -100.5q0 -48 37.5 -85.5t99.5 -37.5z" />
    <glyph glyph-name="K" unicode="K" horiz-adv-x="1351" 
d="M1063 -16q-68 0 -123.5 44.5t-91.5 114t-62.5 167.5t-40.5 191t-22 199l-105 -14l-120 -571q-14 -67 -63 -99t-113 -32q-72 0 -109 26l330 1456h-11q-129 0 -191 -59t-62 -141q0 -73 40 -119q-47 -21 -88 -21q-75 0 -120 57.5t-45 137.5q0 51 19.5 98t59 88t107 65.5
t154.5 24.5q55 0 127 -13.5t120 -25.5t104.5 -16t80.5 14q28 -17 28 -53q0 -32 -19 -56t-52 -24h-19l-133 -628l49 16q69 40 126.5 93.5t99 116t72.5 123t55 134t38 127.5t29 123q31 16 76 16q54 0 97.5 -34.5t43.5 -88.5q0 -139 -101 -286.5t-280 -290.5q66 -666 244 -666
q40 0 84.5 30t75.5 73q30 -13 30 -48q0 -27 -23 -68t-62.5 -82t-102 -70t-131.5 -29z" />
    <glyph glyph-name="L" unicode="L" horiz-adv-x="1052" 
d="M813 1430h-22l-203 -934q-37 -159 -99 -263q172 -53 275 -53q98 0 171.5 30.5t117.5 70.5q34 -15 34 -50q0 -21 -31 -61t-79.5 -82t-120 -73t-141.5 -31q-116 0 -194 30t-142 82q-130 -108 -322 -108q-111 0 -150 76q-33 64 3 137q39 79 129 103q32 9 67 9q89 0 179 -22
q23 55 41 133l221 1049q-115 -3 -176.5 -63.5t-61.5 -158.5q0 -46 29 -106q-71 -16 -120.5 -10t-80 34t-44 63t-13.5 77q0 290 344 286q54 0 126.5 -12t120 -22.5t104.5 -13t81 15.5q29 -17 29 -54q0 -32 -19.5 -55.5t-52.5 -23.5zM96 141q82 0 140 70q-61 35 -127 35
q-59 0 -85 -36q-21 -30 6 -52q21 -17 66 -17z" />
    <glyph glyph-name="M" unicode="M" horiz-adv-x="1943" 
d="M885 1466q-129 0 -191.5 -59t-62.5 -141q0 -71 41 -119q-46 -21 -88 -21q-75 0 -120.5 57.5t-45.5 137.5q0 51 19.5 98t59 88t107 65.5t154.5 24.5q55 0 127 -13.5t120 -25.5t104.5 -16t80.5 14q29 -17 29 -53q0 -32 -19.5 -56t-52.5 -24h-2l-74 -1089l475 1071
q53 131 176 131q71 0 113 -27l-168 -1179q-11 -86 6.5 -119t61.5 -33q45 0 105.5 33t103.5 70q34 -15 34 -50q0 -24 -18 -45q-195 -202 -352 -202q-46 0 -84.5 12t-71 38.5t-46 76t-3.5 116.5l137 926l-446 -1049q-26 -67 -69 -93.5t-105 -26.5q-58 0 -99 26l74 908l10 239
q-136 -435 -260 -696t-236.5 -369t-238.5 -108q-79 0 -127.5 73.5t-48.5 206.5q0 154 174 154q58 0 102 -35q-43 -98 -43 -211v-18q53 20 103.5 63.5t115.5 138t131.5 234t148.5 363t169 513.5h-10z" />
    <glyph glyph-name="N" unicode="N" horiz-adv-x="1374" 
d="M645 1466q-129 0 -191.5 -59t-62.5 -141q0 -71 41 -119q-46 -21 -88 -21q-75 0 -120.5 57.5t-45.5 137.5q0 51 19.5 98t59 88t107 65.5t154.5 24.5q55 0 127 -13.5t120 -25.5t104.5 -16t80.5 14q29 -17 29 -53q0 -32 -19.5 -56t-52.5 -24h-2l221 -956q99 387 99 668
t-109 430q59 53 168 53q135 0 135 -170q0 -345 -157 -897l-160 -557q-107 -35 -129 57l-256 1116q-41 -236 -85.5 -423t-90 -314t-91 -216.5t-93 -138.5t-91 -70t-90.5 -21q-79 0 -127.5 73.5t-48.5 206.5q0 154 174 154q58 0 102 -35q-43 -98 -43 -211v-10
q240 154 420 1282l-6 22h-2z" />
    <glyph glyph-name="O" unicode="O" horiz-adv-x="1085" 
d="M713 1417q-72 0 -138.5 -49.5t-116 -131t-87 -184t-57 -213t-19.5 -212.5q0 -81 12.5 -149t37.5 -121t66.5 -83t96.5 -30t111.5 31t110.5 97t96 158t68 226.5t26 290.5q0 176 -58.5 273t-148.5 97zM414 -16q-101 0 -180.5 47.5t-128.5 131t-74 190t-25 229.5
q0 113 21 229.5t60.5 227.5t100.5 208.5t136 171t172 116t204 42.5q103 0 182 -42t126.5 -115.5t71.5 -167t24 -203.5q0 -121 -21.5 -246.5t-61.5 -244t-101 -223t-135.5 -182.5t-170.5 -123.5t-200 -45.5z" />
    <glyph glyph-name="P" unicode="P" horiz-adv-x="1292" 
d="M238 10l286 1276q14 65 61.5 96t108.5 31q55 0 97 -27l-144 -675q163 8 272 145.5t109 347.5q0 122 -71 198.5t-218 76.5q-123 0 -216 -30t-144 -80t-75.5 -106.5t-24.5 -117.5q0 -73 40 -119q-44 -20 -88 -20q-75 0 -120 57t-45 137q0 118 96 204.5t256 129.5t362 43
q131 0 229.5 -28t156.5 -78t86 -112.5t28 -137.5q0 -135 -50 -250t-135 -192.5t-198.5 -121t-239.5 -43.5h-30l-105 -499q-14 -67 -63 -99t-113 -32q-71 0 -108 26z" />
    <glyph glyph-name="Q" unicode="Q" horiz-adv-x="1114" 
d="M414 -16q-101 0 -180.5 47.5t-128.5 131t-74 190t-25 229.5q0 113 21 229.5t60.5 227.5t100.5 208.5t136 171t172 116t204 42.5q103 0 182 -42t126.5 -115.5t71.5 -167t24 -203.5q0 -195 -51.5 -390t-155 -360t-240.5 -246q48 -112 104 -153t144 -41q80 0 172 67
q26 -18 30 -50t-11 -48q-42 -62 -120.5 -97.5t-154.5 -35.5q-74 0 -126.5 11.5t-102 43t-88.5 89t-74 147.5q-3 0 -8.5 -1t-7.5 -1zM713 1417q-72 0 -138.5 -49.5t-116 -131t-87 -184t-57 -213t-19.5 -212.5q0 -81 12.5 -149t37.5 -121t66.5 -83t96.5 -30t111.5 31t110.5 97
t96 158t68 226.5t26 290.5q0 176 -58.5 273t-148.5 97z" />
    <glyph glyph-name="R" unicode="R" horiz-adv-x="1400" 
d="M1063 -16q-62 0 -114 37.5t-87 97.5t-62.5 145.5t-43.5 170.5t-27 183q-46 -4 -72 -4h-28l-107 -499q-14 -67 -63 -99t-113 -32q-71 0 -108 26l288 1276q14 65 61.5 96t108.5 31q55 0 97 -27l-144 -675q76 6 147.5 53.5t121.5 118t80 156t30 165.5q0 122 -71 198.5
t-218 76.5q-123 0 -216 -30t-144 -80t-75.5 -106.5t-24.5 -117.5q0 -73 40 -119q-44 -20 -88 -20q-75 0 -120 57t-45 137q0 118 96 204.5t256 129.5t362 43q131 0 229.5 -28t156.5 -78t86 -112.5t28 -137.5q0 -140 -88 -283t-229 -231q72 -529 229 -529q45 0 106.5 33
t102.5 70q35 -15 35 -50q0 -23 -19 -45q-191 -202 -354 -202z" />
    <glyph glyph-name="S" unicode="S" horiz-adv-x="1167" 
d="M762 1577q84 0 149.5 -26t104.5 -68.5t58.5 -92t19.5 -102.5q0 -83 -45.5 -142t-120.5 -59q-30 0 -66.5 21.5t-52.5 60.5q48 14 76 61t28 101q0 55 -32 93t-93 38q-91 0 -141.5 -72t-50.5 -176q0 -59 23.5 -113.5t61.5 -98t83.5 -86.5t91 -88t83.5 -93.5t61.5 -112.5
t23.5 -135q0 -232 -152.5 -367.5t-388.5 -135.5q-103 0 -185 33.5t-131 90t-75 124.5t-26 141q0 66 21.5 126.5t61 108.5t102.5 76.5t140 28.5q54 0 94.5 -35.5t40.5 -91.5q0 -31 -14 -66q-98 33 -167 -19t-69 -143q0 -88 58 -152.5t158 -64.5q120 0 183.5 81.5t63.5 203.5
q0 67 -22.5 125.5t-58.5 103t-80 87t-87.5 87t-79.5 93t-58.5 114.5t-22.5 142q0 172 122.5 285.5t309.5 113.5z" />
    <glyph glyph-name="T" unicode="T" horiz-adv-x="954" 
d="M279 1118q0 -73 40 -119q-44 -20 -86 -20q-76 0 -121.5 56t-45.5 134q0 81 28 147t76 108.5t105.5 74t124 48t123 23.5t110.5 7q67 0 163.5 -11.5t164.5 -20t158.5 1.5t172.5 46q33 -135 -27 -222t-173 -87q-75 0 -246 76l-264 -1245q-14 -67 -63 -99t-113 -32
q-72 0 -109 26l326 1440q-20 4 -29 4q-56 0 -110.5 -20.5t-101 -60t-75 -106t-28.5 -149.5z" />
    <glyph glyph-name="U" unicode="U" horiz-adv-x="1314" 
d="M532 1466q-129 0 -191 -59t-62 -141q0 -73 40 -119q-47 -21 -88 -21q-75 0 -120 57.5t-45 137.5q0 51 19.5 98t59 88t107 65.5t154.5 24.5q55 0 127 -13.5t120 -25.5t104.5 -16t80.5 14q28 -17 28 -53q0 -32 -19 -56t-52 -24h-15l-174 -823q-34 -161 -33.5 -249.5
t30.5 -122t95 -33.5q86 0 169 104.5t141.5 263t94.5 347t36 354.5q0 199 -72 303q56 69 147 80q69 8 106.5 -27.5t41.5 -79.5q4 -54 4 -80q-1 -118 -29.5 -273.5t-79 -319.5t-124.5 -322.5t-158 -283t-187 -201t-206 -76.5q-110 0 -174 68.5t-80.5 217t34.5 381.5l173 815
h-3z" />
    <glyph glyph-name="V" unicode="V" horiz-adv-x="1372" 
d="M596 0l-35 1466q-124 -3 -184 -61.5t-60 -138.5q0 -71 41 -119q-46 -21 -88 -21q-75 0 -120.5 57.5t-45.5 137.5q0 51 19.5 98t59 88t107 65.5t154.5 24.5q55 0 127 -13.5t120 -25.5t105 -16t81 14q28 -17 28 -53q0 -32 -19 -56t-52 -24h-11l17 -1161l194 369
q42 80 79.5 166t72 192t51.5 203t11.5 194.5t-40.5 169.5q65 62 156 62q70 0 102.5 -39t32.5 -84q0 -72 -15.5 -153t-51 -175.5t-64 -163t-85.5 -176.5t-81.5 -152.5t-83.5 -150.5l-239 -424q-38 -68 -76 -97.5t-94 -29.5q-71 0 -113 27z" />
    <glyph glyph-name="W" unicode="W" horiz-adv-x="1937" 
d="M598 0l-37 1466q-124 -3 -184 -61.5t-60 -138.5q0 -71 41 -119q-46 -21 -88 -21q-75 0 -120.5 57.5t-45.5 137.5q0 51 19.5 98t59 88t107 65.5t154.5 24.5q55 0 127 -13.5t120 -25.5t105 -16t81 14q28 -17 28 -53q0 -32 -19 -56t-52 -24h-11l15 -1091l346 1093
q19 57 58.5 84t90.5 27q64 0 97 -23l73 -1239l150 373q34 86 62 171t52 193t31.5 201.5t-8 188.5t-57.5 164q24 24 67.5 38.5t87.5 14.5q142 0 142 -168q0 -248 -283 -899l-195 -447q-54 -131 -174 -131q-70 0 -112 27l-72 1077l-309 -973q-54 -131 -174 -131q-71 0 -113 27
z" />
    <glyph glyph-name="X" unicode="X" horiz-adv-x="1269" 
d="M987 -16q-77 0 -133.5 47.5t-75.5 140.5l-73 344q-145 -256 -288 -394t-261 -138q-79 0 -127.5 73.5t-48.5 206.5q0 154 174 154q58 0 102 -35q-43 -98 -43 -211v-16q91 42 210 174.5t245 361.5l-164 772q-110 -10 -162.5 -66.5t-52.5 -131.5q0 -71 41 -119
q-47 -21 -88 -21q-75 0 -120.5 57.5t-45.5 137.5q0 51 19.5 98t59 88t107 65.5t154.5 24.5q55 0 127 -13.5t120 -25.5t104.5 -16t80.5 14q29 -17 29 -53q0 -32 -19.5 -56t-52.5 -24h-6l104 -505q101 139 147 308t31 339q73 53 136 53q34 0 59 -12.5t36.5 -32t16 -37.5
t4.5 -35q0 -110 -31 -210.5t-91 -188.5t-126 -158.5t-157 -148.5l110 -533q16 -84 78 -84q45 0 106.5 33t102.5 70q35 -15 35 -50q0 -23 -19 -45q-191 -202 -354 -202z" />
    <glyph glyph-name="Y" unicode="Y" horiz-adv-x="1331" 
d="M1055 629l-107 -498q-16 -76 -70.5 -111.5t-125.5 -35.5q-63 0 -111 30l135 619l-213 831q-107 -11 -159 -67.5t-52 -130.5q0 -71 41 -119q-46 -21 -88 -21q-75 0 -120.5 57.5t-45.5 137.5q0 51 19.5 98t59 88t107 65.5t154.5 24.5q55 0 127 -13.5t120 -25.5t104.5 -16
t80.5 14q29 -17 29 -53q0 -32 -19.5 -56t-52.5 -24h-6l156 -645q135 198 187 388.5t20 398.5q53 53 135 53q65 0 93 -39t24 -78q-17 -193 -140 -431.5t-282 -440.5z" />
    <glyph glyph-name="Z" unicode="Z" horiz-adv-x="974" 
d="M637 -16q-118 0 -195 31t-143 85q-144 -116 -299 -116q-81 0 -130.5 36t-49.5 107q0 72 58 129t155 57q71 0 166 -18q13 20 34 63l521 1033q-53 -1 -162.5 1.5t-166.5 0.5t-135.5 -23.5t-139.5 -66.5q-54 60 -54 124q0 73 47.5 121.5t141.5 48.5q119 0 347.5 -36.5
t360.5 -36.5q31 0 60.5 9.5t42.5 22.5q34 -11 34 -53q0 -32 -23.5 -61.5t-68.5 -34.5l-506 -1004q-56 -108 -108 -174q160 -49 262 -49q98 0 171.5 30.5t117.5 70.5q35 -15 35 -50q0 -21 -31 -61t-80 -82t-120.5 -73t-141.5 -31zM35 246q-41 0 -66.5 -18.5t-25.5 -41.5
q0 -22 19.5 -36.5t55.5 -14.5q69 0 132 82q-60 29 -115 29z" />
    <glyph glyph-name="bracketleft" unicode="[" horiz-adv-x="864" 
d="M72 -164q34 160 175.5 730t182.5 816q-65 21 -65 101q0 65 42.5 95t108.5 30q71 0 96 -74q9 0 72.5 23.5t99.5 23.5q52 0 90.5 -22t56 -54.5t15 -73t-27.5 -75.5q-54 30 -138 30q-67 0 -153 -8q-39 -215 -165 -759t-161 -719q90 28 139 28q41 0 77 -15.5t58.5 -41
t34.5 -55t8 -61.5t-24 -58q-52 30 -122 30t-164 -15t-146 -15q-54 0 -77.5 20.5t-21 51.5t8.5 67z" />
    <glyph glyph-name="bracketright" unicode="]" horiz-adv-x="823" 
d="M752 1468q-34 -161 -176.5 -730.5t-184.5 -815.5q68 -21 68 -100q0 -65 -43 -95t-109 -30q-71 0 -96 74q-9 0 -72.5 -23.5t-99.5 -23.5q-52 0 -90.5 22t-55.5 54.5t-14.5 73t27.5 75.5q56 -31 137 -31q64 0 154 8q39 216 164 762.5t159 716.5q-93 -29 -137 -29
q-41 0 -77 15.5t-58.5 41t-34.5 55.5t-8 62t24 58q52 -30 122.5 -30t164.5 15t146 15q54 0 77.5 -20.5t21 -52t-8.5 -67.5z" />
    <glyph glyph-name="underscore" unicode="_" horiz-adv-x="1015" 
d="M829 -57h-786q-18 18 -18 53q0 47 35.5 86t99.5 39h786q17 -27 17 -62q0 -47 -34.5 -81.5t-99.5 -34.5z" />
    <glyph glyph-name="a" unicode="a" horiz-adv-x="1073" 
d="M494 1042q135 0 211 -67q50 59 139 59q55 0 96 -26l-143 -678q-33 -152 61 -152q54 0 113.5 30.5t101.5 72.5q35 -15 35 -50q0 -24 -18 -45q-75 -85 -174.5 -143.5t-180.5 -58.5q-83 0 -137 47t-53 159q-68 -95 -148 -150.5t-164 -55.5q-61 0 -108 23.5t-74.5 59.5
t-44.5 84t-23 90.5t-6 86.5q0 178 69 342.5t189.5 268t258.5 103.5zM549 324l115 548q-50 17 -97 17q-88 0 -156 -53t-105.5 -138t-56 -175.5t-18.5 -180.5q0 -73 30.5 -110t80.5 -37t108 36t99 93z" />
    <glyph glyph-name="b" unicode="b" horiz-adv-x="931" 
d="M6 539l148 686q9 40 -13 49t-47 -21q-31 29 -31 64q0 23 41 57.5t103.5 61t114.5 26.5q121 0 98 -112l-96 -476q135 160 280 160q119 0 187.5 -85.5t68.5 -233.5q0 -127 -58 -260.5t-148.5 -236t-208 -168.5t-228.5 -66q-82 0 -136.5 42t-78.5 117.5t-23 175.5t27 220z
M602 670q0 81 -30 119t-80 38t-105 -33.5t-98 -88.5q-64 -282 -64 -365q0 -145 101 -145q71 0 135 68.5t102.5 178.5t38.5 228z" />
    <glyph glyph-name="c" unicode="c" horiz-adv-x="849" 
d="M903 313q-103 -152 -263.5 -240.5t-313.5 -88.5q-154 0 -251.5 93t-97.5 273q0 118 39.5 241t106.5 223t166.5 164t210.5 64q248 0 248 -198q0 -82 -41.5 -125t-102.5 -43q-49 0 -82 29q33 70 33 133q0 59 -76 59q-43 0 -87 -39.5t-80 -106t-58.5 -164t-22.5 -204.5
q0 -115 53.5 -168t143.5 -53q108 0 232.5 66t191.5 155q38 7 54 -17.5t-3 -52.5z" />
    <glyph glyph-name="d" unicode="d" horiz-adv-x="1069" 
d="M731 -16q-83 0 -135 47t-51 159q-68 -95 -148 -150.5t-164 -55.5q-61 0 -108 23.5t-74.5 59.5t-44.5 84t-23 90.5t-6 86.5q0 178 69 342.5t189.5 268t258.5 103.5q124 0 196 -57l51 240q9 40 -12.5 49t-46.5 -21q-31 29 -31 64q0 23 40.5 57.5t103 61t114.5 26.5
q58 0 84.5 -27.5t14.5 -84.5l-215 -1020q-33 -152 61 -152q54 0 113.5 30.5t101.5 72.5q35 -15 35 -50q0 -23 -19 -45q-75 -85 -174 -143.5t-180 -58.5zM549 324v-2l117 548q-55 19 -99 19q-88 0 -156 -53t-105.5 -138t-56 -175.5t-18.5 -180.5q0 -73 30.5 -110t80.5 -37
t108 36t99 93z" />
    <glyph glyph-name="e" unicode="e" horiz-adv-x="849" 
d="M725 846q0 -69 -21 -126.5t-74 -122t-149.5 -134t-242.5 -150.5q27 -151 190 -151q108 0 232.5 66t191.5 155q38 7 54 -17.5t-3 -52.5q-103 -152 -263.5 -240.5t-313.5 -88.5q-154 0 -251.5 93t-97.5 273q0 68 15 144t43 153.5t73 148.5t100 126t129 87.5t155 32.5
q67 0 114.5 -17t72 -47t35.5 -62t11 -70zM506 883q-58 0 -106 -37t-77.5 -91.5t-50.5 -122.5t-30 -125.5t-11 -105.5q155 98 244.5 202t89.5 200q0 35 -16.5 57.5t-42.5 22.5z" />
    <glyph glyph-name="f" unicode="f" horiz-adv-x="512" 
d="M449 905h-97l-194 -905q-38 -176 -72 -295.5t-77 -219.5t-93.5 -156.5t-117 -86.5t-152.5 -30q-100 0 -163 58.5t-63 180.5q0 26 18.5 40.5t49.5 14.5q24 -112 141 -112q35 0 63.5 15t53.5 50t45.5 80.5t42.5 118.5t41 151t43 191l195 905h-103q-8 51 16 85t70 34h41
l17 74q42 195 159.5 309.5t266.5 114.5q258 0 258 -199q0 -82 -42 -126.5t-102 -41.5q-43 3 -82 29q33 70 33 133q0 59 -76 59q-116 0 -178 -291l-14 -61h158q8 -51 -16 -85t-70 -34z" />
    <glyph glyph-name="g" unicode="g" horiz-adv-x="1021" 
d="M1044 188q-33 -29 -127.5 -87t-193.5 -105q-22 -90 -43 -164t-52 -157.5t-64.5 -148t-78.5 -125.5t-96 -101t-116.5 -64t-139.5 -24q-101 0 -171.5 65t-70.5 186q0 73 36 144.5t94 130t137.5 111.5t160.5 93t168 72q8 30 25 89t20 71q-141 -190 -299 -190
q-61 0 -108 23.5t-74.5 59.5t-44.5 84t-23 90.5t-6 86.5q0 178 69 342.5t189.5 268t258.5 103.5q132 0 208 -67q50 59 142 59q55 0 96 -26l-172 -811q-9 -43 -18 -84q192 94 292 178q24 -21 25.5 -50t-23.5 -53zM549 324l115 548q-50 17 -97 17q-88 0 -156 -53t-105.5 -138
t-56 -175.5t-18.5 -180.5q0 -73 30.5 -110t80.5 -37t108 36t99 93zM115 -606q103 0 176 109t153 368q-176 -70 -294.5 -176t-118.5 -205q0 -48 28.5 -72t55.5 -24z" />
    <glyph glyph-name="h" unicode="h" horiz-adv-x="974" 
d="M621 -16q-33 0 -60.5 7t-54.5 26t-40 51.5t-17.5 83.5t12.5 122l86 408q15 50 6 85.5t-55 35.5q-100 0 -191 -109l-129 -581q-14 -66 -62 -97.5t-110 -31.5q-55 0 -86 20l260 1221q9 40 -12.5 49t-46.5 -21q-31 29 -31 64q0 23 40.5 57.5t103 61t114.5 26.5
q121 0 98 -112l-106 -502q131 186 272 186q27 0 53 -5.5t53.5 -19t47 -35.5t34.5 -55.5t15.5 -79t-10.5 -106.5l-100 -471q-9 -42 6.5 -63t48.5 -21q54 0 113.5 30.5t101.5 72.5q35 -15 35 -50q0 -23 -19 -45q-78 -89 -175.5 -145.5t-194.5 -56.5z" />
    <glyph glyph-name="i" unicode="i" horiz-adv-x="507" 
d="M158 1298q6 60 50.5 102t104.5 42t98.5 -42t32.5 -102q-9 -61 -54.5 -102t-104.5 -41q-61 0 -98.5 42t-28.5 101zM-29 227l119 570q9 51 -20 51q-13 0 -41 -25q-23 13 -25.5 50t25.5 63q125 98 229 98q121 0 98 -112l-125 -592q-33 -152 62 -152q54 0 113.5 30.5
t101.5 72.5q35 -15 35 -50q0 -23 -19 -45q-78 -89 -175.5 -145.5t-194.5 -56.5q-41 0 -77 12t-67.5 40t-41 74.5t2.5 116.5z" />
    <glyph glyph-name="j" unicode="j" horiz-adv-x="468" 
d="M356 922l-155 -725q-3 -17 -10 -46.5t-9 -37.5q195 95 293 178q24 -21 25.5 -50t-23.5 -53q-33 -29 -127.5 -87t-193.5 -105q-22 -89 -44.5 -164t-54 -157.5t-66.5 -147.5t-82 -126t-100 -101t-120.5 -64t-143.5 -24q-44 0 -87 16t-79.5 45.5t-58.5 79t-22 110.5
q0 63 22 118.5t61.5 100.5t95 87t123.5 78.5t145 73t161 74.5q5 2 8 3q27 99 51 219l125 580q9 51 -20 51q-13 0 -41 -25q-23 13 -25.5 50t25.5 63q125 98 229 98q121 0 98 -112zM-453 -606q102 0 181.5 113.5t150.5 357.5q-84 -42 -138 -71t-112.5 -67.5t-91 -72.5
t-53.5 -76t-21 -88q0 -48 28.5 -72t55.5 -24zM162 1298q3 60 46 102t103 42t100.5 -42t37.5 -102q-5 -60 -48.5 -101.5t-103.5 -41.5t-99.5 41.5t-35.5 101.5z" />
    <glyph glyph-name="k" unicode="k" horiz-adv-x="874" 
d="M444 1350l-168 -785l41 10q199 59 199 238q0 82 -29 127q21 42 64 68t96 26q60 0 87.5 -35.5t27.5 -117.5q1 -115 -73.5 -206.5t-182.5 -142.5q9 -38 17.5 -67t23 -72.5t32 -74.5t40.5 -61t52.5 -46t63.5 -16q28 0 60 21.5t79 64.5q35 -15 35 -50q0 -24 -18 -45
q-61 -75 -151 -138.5t-150 -63.5q-47 0 -86.5 22t-67.5 62.5t-49.5 84.5t-37.5 102.5t-25 100.5t-19 93q-3 15 -4 22l-47 -12l-74 -346q-13 -66 -58.5 -97.5t-103.5 -31.5q-55 0 -96 26l256 1215q6 24 0 37.5t-20 13.5q-13 0 -41 -25q-23 13 -25.5 50t25.5 63q125 98 229 98
q118 0 98 -112z" />
    <glyph glyph-name="l" unicode="l" horiz-adv-x="661" 
d="M717 317q-53 -136 -207 -234.5t-299 -98.5q-116 0 -180 75t-45 228q24 191 51 345t60.5 288.5t73 232.5t87 168.5t104.5 105.5t123 35q74 0 119 -44t45 -122q0 -125 -103 -361.5t-294 -528.5q-8 -49 -10 -76q-10 -75 21 -111.5t89 -36.5q56 0 122.5 29t120.5 79.5
t73 104.5q29 4 44.5 -22t4.5 -56zM500 1327q-49 0 -108 -201.5t-113 -537.5q120 223 188 424t68 270q0 25 -8.5 35t-26.5 10z" />
    <glyph glyph-name="m" unicode="m" horiz-adv-x="1460" 
d="M356 922l-20 -93q142 205 303 205q71 0 123.5 -55t48.5 -156q148 211 307 211q30 0 58 -8.5t57.5 -28.5t45.5 -54.5t22.5 -86t-11.5 -123.5l-100 -471q-9 -42 6.5 -63t48.5 -21q54 0 113.5 30.5t101.5 72.5q35 -15 35 -50q0 -24 -18 -45q-78 -88 -176 -145t-195 -57
q-33 0 -60.5 7t-54.5 26t-40 51.5t-17.5 83.5t12.5 122l86 408q16 50 7 85.5t-56 35.5q-91 0 -178 -94l-127 -596q-14 -66 -62 -97.5t-110 -31.5q-55 0 -96 26l143 672q15 50 6 85.5t-55 35.5q-100 0 -189 -107l-125 -583q-14 -66 -62 -97.5t-110 -31.5q-55 0 -96 26
l168 787q6 24 0 37.5t-20 13.5q-13 0 -41 -25q-23 13 -25.5 50t25.5 63q125 98 229 98q58 0 84.5 -27.5t13.5 -84.5z" />
    <glyph glyph-name="n" unicode="n" horiz-adv-x="980" 
d="M29 823q-23 13 -25.5 50t25.5 63q125 98 229 98q58 0 84.5 -27.5t13.5 -84.5l-20 -93q65 93 156 149t180 56t130.5 -74.5t8.5 -226.5l-100 -471q-9 -42 6.5 -63t48.5 -21q54 0 113.5 30.5t101.5 72.5q35 -15 35 -50q0 -23 -19 -45q-78 -89 -175.5 -145.5t-194.5 -56.5
q-33 0 -60.5 7t-54.5 26t-40 51.5t-17.5 83.5t12.5 122l86 408q13 61 -3 91t-52 30q-40 0 -94 -32.5t-89 -74.5l-125 -583q-14 -66 -62 -97.5t-110 -31.5q-55 0 -96 26l168 787q6 24 0 37.5t-20 13.5q-13 0 -41 -25z" />
    <glyph glyph-name="o" unicode="o" horiz-adv-x="927" 
d="M500 1042q81 0 143 -28.5t99.5 -79.5t56 -116t18.5 -142q0 -92 -25 -189t-73.5 -186.5t-112.5 -160.5t-150.5 -113.5t-179.5 -42.5q-77 0 -136 29t-94 80t-53 115t-18 138q0 93 24.5 191t72 187.5t110 161t145.5 114t173 42.5zM545 887q-67 0 -126 -46t-97.5 -116.5
t-61 -153.5t-22.5 -159q0 -127 37 -188.5t96 -61.5q77 0 146.5 88t108 210.5t38.5 231.5q0 88 -29.5 141.5t-89.5 53.5z" />
    <glyph glyph-name="p" unicode="p" horiz-adv-x="974" 
d="M-233 -745l323 1542q6 24 0 37.5t-20 13.5q-13 0 -41 -25q-23 13 -25.5 50t25.5 63q125 98 229 98q58 0 84.5 -27.5t13.5 -84.5l-10 -50q132 162 279 162q87 0 147 -46.5t86.5 -121t26.5 -170.5q0 -117 -41.5 -241t-113.5 -229.5t-182.5 -173.5t-236.5 -68q-79 0 -141 53
l-141 -680q-14 -66 -59.5 -97.5t-106.5 -31.5q-54 0 -96 27zM512 829q-97 0 -203 -131l-112 -534q43 -23 102 -23q75 0 140 46.5t106 118.5t64.5 155.5t23.5 161.5q0 103 -33 154.5t-88 51.5z" />
    <glyph glyph-name="q" unicode="q" horiz-adv-x="1007" 
d="M934 1008l-350 -1651q-14 -66 -59.5 -97.5t-106.5 -31.5q-54 0 -96 27l188 892q-133 -163 -277 -163q-61 0 -108 23.5t-74.5 59.5t-44.5 84t-23 90.5t-6 86.5q0 178 69 342.5t189.5 268t258.5 103.5q132 0 208 -67q45 59 136 59q55 0 96 -26zM342 195q49 0 106.5 35.5
t98.5 91.5l117 550q-50 17 -97 17q-88 0 -156 -53t-105.5 -138t-56 -175.5t-18.5 -180.5q0 -73 30.5 -110t80.5 -37z" />
    <glyph glyph-name="r" unicode="r" horiz-adv-x="759" 
d="M356 922l-22 -111q110 223 264 223q70 0 110 -47.5t40 -114.5q0 -75 -44.5 -133.5t-119.5 -58.5q-36 0 -60 8q23 20 23 64q0 23 -16.5 37t-47.5 14q-144 0 -268 -565l-25 -125q-14 -66 -62 -97.5t-110 -31.5q-55 0 -96 26l168 787q9 51 -20 51q-13 0 -41 -25
q-23 13 -25.5 50t25.5 63q125 98 229 98q121 0 98 -112z" />
    <glyph glyph-name="s" unicode="s" horiz-adv-x="786" 
d="M193 -16q-156 0 -231.5 80t-57.5 190q11 67 57 112.5t117 45.5q49 0 82 -29q-43 -49 -43 -129q0 -66 37.5 -100.5t91.5 -34.5q62 0 112 46t50 118q0 36 -25 66t-62.5 50t-81.5 49.5t-81.5 61.5t-62.5 88.5t-25 128.5q0 63 21.5 118.5t63.5 100t110.5 70.5t154.5 26
q258 0 258 -198q0 -83 -41.5 -127t-101.5 -41q-43 3 -82 29q34 43 34 110q0 54 -26.5 82.5t-65.5 28.5q-46 0 -82.5 -44t-36.5 -122q0 -44 18.5 -78t48 -57t65.5 -43t72 -42t65.5 -48.5t48 -67.5t18.5 -94q0 -159 -102 -252.5t-317 -93.5z" />
    <glyph glyph-name="t" unicode="t" horiz-adv-x="514" 
d="M449 905h-91l-120 -575q-33 -152 61 -152q54 0 113.5 30.5t101.5 72.5q35 -15 35 -50q0 -23 -19 -45q-76 -86 -183 -144t-206 -58q-102 0 -147 72t-12 231l131 618h-103q-8 51 16 85t70 34h41l37 168q14 66 62 97.5t110 31.5q54 0 96 -27l-57 -270h150q8 -51 -16 -85
t-70 -34z" />
    <glyph glyph-name="u" unicode="u" horiz-adv-x="1013" 
d="M-6 377l96 420q6 24 0 37.5t-20 13.5q-13 0 -41 -25q-23 13 -25.5 50t25.5 63q125 98 229 98q58 0 84.5 -27.5t13.5 -84.5l-125 -582q-26 -121 70 -121q99 0 188 107l123 579q14 66 62 97.5t110 31.5q56 0 97 -26l-144 -678q-33 -152 62 -152q54 0 113.5 30.5t101.5 72.5
q35 -15 35 -50q0 -23 -19 -45q-75 -85 -174 -143.5t-180 -58.5q-40 0 -73.5 11.5t-62.5 36.5t-44 71.5t-11 111.5q-142 -231 -299 -231q-65 0 -110 26.5t-66 67t-28.5 95t-3.5 104t16 100.5z" />
    <glyph glyph-name="v" unicode="v" horiz-adv-x="860" 
d="M92 817q3 12 -3 21.5t-19 9.5t-41 -25q-23 13 -25.5 50t25.5 63q125 98 229 98q58 0 84.5 -27.5t13.5 -84.5q-29 -136 -41 -263t-1.5 -254.5t51.5 -207.5q116 92 187 238t71 292q0 107 -32.5 188t-94.5 109q3 76 43 118t94 40q66 -2 116 -62t50 -166q0 -136 -36.5 -280
t-96.5 -264.5t-132 -218t-149.5 -152.5t-142.5 -55q-62 0 -105.5 63.5t-62.5 161.5t-23.5 211.5t7.5 219t34 177.5z" />
    <glyph glyph-name="w" unicode="w" horiz-adv-x="1370" 
d="M616 905q13 66 61.5 97.5t110.5 31.5q60 0 97 -26q-72 -332 -72 -504q0 -176 61 -307q117 92 188 238.5t71 291.5q0 107 -32.5 188t-94.5 109q3 76 43 118t94 40q66 -2 116 -62t50 -166q0 -136 -36.5 -280t-96.5 -264.5t-132 -218t-149.5 -152.5t-142.5 -55
q-135 0 -158 395q-82 -184 -176 -289.5t-176 -105.5q-50 0 -88.5 41.5t-60.5 112t-33 154t-11 177.5q0 214 43 348q4 14 -3 22.5t-19 8.5q-19 0 -39 -23q-31 29 -31 64q0 23 40.5 57.5t103 61t114.5 26.5q121 0 98 -112q-49 -225 -49 -416q0 -196 58 -309q88 87 141.5 247.5
t109.5 460.5z" />
    <glyph glyph-name="x" unicode="x" horiz-adv-x="983" 
d="M645 -16q-98 0 -156 69t-86 250q-220 -319 -360 -319q-65 0 -105 60t-40 169q0 127 143 127q41 0 84 -29q-35 -76 -35 -161q74 42 141 108t154 207l-43 346q-3 28 -19.5 46.5t-42.5 23.5t-63 -9.5t-76 -48.5q-24 22 -25.5 53t25.5 60q122 106 219 106q104 0 154 -61
t68 -199l18 -145q158 183 158 291q0 39 -27.5 68t-83.5 28q3 75 42.5 116.5t94.5 41.5q37 0 68 -10.5t59 -34t39 -71t0 -112.5q-18 -101 -96.5 -199.5t-239.5 -236.5l19 -145q24 -195 135 -195q54 0 113.5 30.5t101.5 72.5q35 -15 35 -50q0 -23 -19 -45q-75 -85 -174 -143.5
t-180 -58.5z" />
    <glyph glyph-name="y" unicode="y" horiz-adv-x="940" 
d="M-6 377l96 420q6 24 0 37.5t-20 13.5q-13 0 -41 -25q-23 13 -25.5 50t25.5 63q125 98 229 98q58 0 84.5 -27.5t13.5 -84.5l-127 -590q-11 -51 5.5 -82t64.5 -31q81 0 158 74l133 612q14 66 62 97.5t110 31.5q55 0 96 -26l-174 -811q-9 -43 -18 -84q192 94 292 178
q24 -21 26 -50t-23 -53q-32 -29 -127 -87t-195 -105q-22 -89 -44 -164t-54 -157.5t-66.5 -147.5t-81.5 -126t-100 -101t-120.5 -64t-143.5 -24q-44 0 -87.5 16t-79.5 45.5t-58.5 79t-22.5 110.5q0 54 17 103t45 89t74 79t93.5 70t115 65.5t127.5 62.5t141 64q3 1 5 2
q6 22 20 74t23 82q-134 -168 -274 -168q-59 0 -100 23t-61 60t-27.5 89t-3 105t17.5 114zM31 -606q103 0 174.5 106.5t152.5 362.5q-104 -51 -169 -88t-125.5 -83.5t-88.5 -95.5t-28 -106q0 -48 28.5 -72t55.5 -24z" />
    <glyph glyph-name="z" unicode="z" horiz-adv-x="804" 
d="M637 1018q43 -22 72 -52t61 -87q-125 -128 -251 -319.5t-214 -373.5q3 -1 33 -9.5t36.5 -10.5t32 -8.5t37.5 -8.5t32.5 -6t38 -5t34.5 -1q65 0 136.5 42.5t119.5 101.5q35 -15 35 -50q0 -23 -19 -45q-189 -202 -375 -202q-26 0 -59.5 8t-59.5 17.5t-70 27t-71 26.5
q-46 -79 -110 -79q-86 0 -119.5 59t0.5 135q54 25 100 33q148 297 430 637q-44 -7 -93 -7t-104 3.5t-79 3.5q-100 0 -131 -43q-27 43 -27 90q0 66 43.5 113t114.5 47q63 0 156 -36t139 -36q67 0 131 35z" />
    <glyph glyph-name="braceleft" unicode="{" horiz-adv-x="792" 
d="M485 410q-13 -89 -54 -188.5t-81 -195t-51 -176.5q-21 -149 143 -149q81 0 203 39q26 -84 -62 -130t-255 -46q-156 0 -211 77.5t-35 217.5q7 54 38.5 132.5t65.5 144.5t65 139t36 116q13 93 -37 109q-43 -37 -105 -37q-53 0 -77 30t-19 68q6 41 45.5 75t118.5 34
q47 0 96 -21q65 50 84 180q13 94 15.5 233t5.5 163q6 51 20 97.5t41 94t63.5 82.5t91.5 56.5t122 21.5q64 0 109.5 -6.5t71.5 -18t37.5 -28.5t9 -36.5t-16.5 -43.5q-96 26 -156 26q-76 0 -115 -52.5t-51 -182.5l-25 -283q-12 -126 -63 -222.5t-152 -139.5q97 -67 84 -180z
" />
    <glyph glyph-name="bar" unicode="|" horiz-adv-x="632" 
d="M582 1393l-367 -1721q-56 -5 -91.5 30t-23.5 93l367 1721q138 -7 115 -123z" />
    <glyph glyph-name="braceright" unicode="}" horiz-adv-x="792" 
d="M303 731q10 71 38 149.5t56.5 136.5t55.5 133t36 140q21 150 -143 150q-81 0 -203 -39q-26 84 62 130t256 46q156 0 211 -77.5t35 -217.5q-7 -54 -38.5 -132.5t-65.5 -144.5t-65 -139t-36 -116q-13 -93 35 -111q42 39 106 39q53 0 77 -30t19 -68q-6 -41 -45.5 -75
t-118.5 -34q-53 0 -98 18q-67 -54 -82 -178q-13 -94 -15 -232.5t-5 -162.5q-6 -51 -20 -97.5t-41 -94t-63.5 -82.5t-91.5 -56.5t-122 -21.5q-64 0 -109.5 6.5t-71.5 18t-37.5 28.5t-9 36.5t16.5 43.5q100 -27 156 -27q76 0 114.5 53t50.5 183l25 282q10 124 62 222t153 141
q-100 63 -84 180z" />
    <glyph glyph-name="asciitilde" unicode="~" horiz-adv-x="720" 
d="M205 524q-37 0 -69.5 -19t-49.5 -54q-53 23 -53 92q0 56 44 110t120 54q49 0 113 -16t105.5 -28.5t87.5 -2.5t79 53q61 -37 61 -117q0 -66 -46 -115t-108 -49q-46 -2 -142 45.5t-142 46.5z" />
    <glyph glyph-name="dieresis" unicode="&#xa8;" horiz-adv-x="829" 
d="M109 1315q0 54 36.5 90.5t90.5 36.5t90 -36.5t36 -90.5t-36 -90.5t-90 -36.5t-90.5 36.5t-36.5 90.5zM512 1315q0 54 37 90.5t90 36.5q54 0 90.5 -36.5t36.5 -90.5t-36.5 -90.5t-90.5 -36.5q-53 0 -90 36.5t-37 90.5z" />
    <glyph glyph-name="guillemotleft" unicode="&#xab;" horiz-adv-x="950" 
d="M651 934l-401 -387l295 -387q-31 -30 -69.5 -46t-78.5 -10t-63 39l-283 404l393 403q33 33 74.5 39t76 -9.5t56.5 -45.5zM930 844l-371 -297l289 -297q-38 -43 -94.5 -55t-94.5 26l-278 326l369 325q49 38 101 26.5t79 -54.5z" />
    <glyph glyph-name="guillemotright" unicode="&#xbb;" horiz-adv-x="923" 
d="M506 143q-33 -33 -74.5 -39t-76 10t-56.5 46l399 387l-292 387q31 30 69.5 45.5t78 9.5t62.5 -39l283 -403zM20 250l369 297l-287 297q38 43 94.5 54.5t94.5 -26.5l278 -325l-368 -326q-49 -38 -101.5 -26t-79.5 55z" />
    <glyph glyph-name="breve" unicode="&#x2d8;" horiz-adv-x="610" 
d="M590 1319q-11 -115 -122.5 -205t-268.5 -90q-101 0 -155 59t-54 140q0 72 45.5 123t126.5 51q44 0 82 -21q-15 -27 -15 -61q0 -44 26.5 -68t68.5 -24q55 0 109 43t83 123q31 5 55.5 -13.5t18.5 -56.5z" />
    <glyph glyph-name="afii10023" unicode="&#x401;" 
d="M281 1169q0 76 30 148.5t84 130.5t139 93.5t187 35.5q167 0 250.5 -73t83.5 -181q0 -89 -47 -152t-121 -63q-30 0 -66.5 21.5t-52.5 60.5q45 13 72.5 57t27.5 94q0 51 -30.5 86t-89.5 35q-113 0 -179.5 -89.5t-66.5 -209.5q0 -104 53.5 -186t155.5 -107q6 -42 -21 -77
q-97 -7 -170.5 -64.5t-109 -137t-35.5 -165.5q0 -111 62 -186.5t181 -75.5q98 0 197.5 28.5t179.5 88.5q35 -15 35 -50q0 -27 -18 -45q-101 -101 -246.5 -151.5t-292.5 -50.5q-97 0 -173 33t-121.5 90t-69 128.5t-23.5 153.5q0 155 96.5 290.5t261.5 186.5
q-82 54 -122.5 133t-40.5 170zM455 1765q0 54 36.5 90.5t90.5 36.5t90.5 -36.5t36.5 -90.5t-36.5 -90.5t-90.5 -36.5t-90.5 36.5t-36.5 90.5zM858 1765q0 54 37 90.5t90 36.5q54 0 90.5 -36.5t36.5 -90.5t-36.5 -90.5t-90.5 -36.5q-53 0 -90 36.5t-37 90.5z" />
    <glyph glyph-name="afii10017" unicode="&#x410;" horiz-adv-x="1398" 
d="M1415 186q-90 -91 -184 -146.5t-170 -55.5q-37 0 -70.5 7.5t-65 24.5t-50.5 45t-27.5 69t4.5 97l70 332h-230q-133 -307 -258 -441t-262 -134q-79 0 -127.5 73.5t-48.5 206.5q0 154 174 154q58 0 102 -35q-43 -98 -43 -211v-18q53 20 103.5 63.5t115.5 138t131.5 234
t148.5 363t169 513.5h-41q-129 0 -191.5 -59t-62.5 -141q0 -71 41 -119q-47 -21 -88 -21q-75 0 -120.5 57.5t-45.5 137.5q0 51 19.5 98t59 88t107 65.5t154.5 24.5q86 0 196.5 -13.5t183.5 -26t163 -16.5t135 15q29 -17 29 -53q0 -32 -19.5 -56t-52.5 -24h-8l-234 -1093
q-32 -152 68 -152q45 0 105.5 33t103.5 70q35 -15 35 -50q0 -23 -19 -45zM1110 1448q-74 8 -113 12q-134 -470 -256 -782h205z" />
    <glyph glyph-name="afii10018" unicode="&#x411;" horiz-adv-x="1286" 
d="M276 1126q0 -59 29 -106q-71 -17 -120.5 -11t-80 34t-44 63.5t-13.5 77.5q0 77 28.5 140t78 104t109 71.5t128.5 46.5t129.5 23.5t118.5 7.5q54 0 196.5 -12.5t200.5 -12.5q159 0 242 60q44 -128 -6 -216.5t-160 -88.5q-42 0 -90 13t-118.5 39t-108.5 38l-115 -533
q98 33 176 33q77 0 137.5 -20.5t97 -52t60 -74t32.5 -82t9 -80.5q0 -77 -31 -161t-91.5 -162.5t-140.5 -141.5t-186.5 -101t-220.5 -38q-173 0 -293 43t-120 112q0 36 20 65t61 42q44 -38 95 -66l268 1252q-112 -8 -194.5 -90t-82.5 -216zM752 760q-48 0 -97 -12l-135 -633
h2q104 0 199.5 67.5t152 175t56.5 220.5q0 83 -45 132.5t-133 49.5z" />
    <glyph glyph-name="afii10019" unicode="&#x412;" horiz-adv-x="1275" 
d="M969 1255q0 118 -60.5 172t-187.5 54q-103 0 -203 -40t-169.5 -119t-69.5 -177q0 -73 40 -119q-44 -20 -88 -20q-75 0 -120 57t-45 137q0 82 62.5 154t162 120t221.5 75.5t242 27.5q80 0 143.5 -8t120.5 -28t94.5 -53t59.5 -85.5t22 -122.5q0 -122 -86 -246.5
t-236 -204.5l2 -2q154 0 232 -72t78 -188q0 -94 -49.5 -196t-134 -188.5t-211.5 -142.5t-267 -56q-173 0 -293 43t-120 112q0 36 20 65t61 42q44 -38 95 -66l233 1102q14 67 63 99t113 32q57 0 99 -27l-119 -555q122 37 208.5 166t86.5 258zM743 739q-43 0 -92 -12
l-131 -612h2q103 0 196 64.5t148.5 167t55.5 210.5q0 83 -45.5 132.5t-133.5 49.5z" />
    <glyph glyph-name="afii10020" unicode="&#x413;" horiz-adv-x="976" 
d="M350 -16q-71 0 -108 26l321 1422q-61 -3 -114 -37q-25 31 -25 67q0 32 17 54.5t40 34t58.5 18t59 7.5t54.5 1q54 0 197 -12.5t201 -12.5q158 0 241 60q43 -126 -6 -210t-160 -95q-43 -5 -90.5 6.5t-126 42.5t-110.5 41l-273 -1282q-14 -67 -63 -99t-113 -32z" />
    <glyph glyph-name="afii10021" unicode="&#x414;" horiz-adv-x="1415" 
d="M139 313q64 0 158 -55q37 60 61 166l183 858q14 67 63 99t113 32q56 0 98 -27l-194 -890q-48 -212 -150 -342q83 -39 158 -39q96 0 178.5 51.5t139.5 136.5t98 195.5t60 228.5t19 236q0 85 -12.5 160t-41.5 141t-71.5 113t-106 74.5t-142.5 27.5q-119 0 -211.5 -27.5
t-148 -74.5t-83.5 -106t-28 -126q0 -73 40 -119q-44 -20 -88 -20q-75 0 -120 57t-45 137q0 78 45.5 145.5t133 119.5t227 82t316.5 30q155 0 273.5 -49t188.5 -134.5t104.5 -193t34.5 -233.5q0 -138 -30.5 -277t-92.5 -266t-148 -225t-205.5 -156.5t-255.5 -58.5
q-138 0 -270 90q-118 -90 -278 -90q-80 0 -131.5 38.5t-51.5 104.5q0 72 58 129t155 57zM123 135q68 0 123 55q-66 56 -105 56q-41 0 -66.5 -18.5t-25.5 -41.5t20.5 -37t53.5 -14z" />
    <glyph glyph-name="afii10022" unicode="&#x415;" 
d="M281 1169q0 76 30 148.5t84 130.5t139 93.5t187 35.5q167 0 250.5 -73t83.5 -181q0 -89 -47 -152t-121 -63q-30 0 -66.5 21.5t-52.5 60.5q45 13 72.5 57t27.5 94q0 51 -30.5 86t-89.5 35q-113 0 -179.5 -89.5t-66.5 -209.5q0 -104 53.5 -186t155.5 -107q6 -42 -21 -77
q-97 -7 -170.5 -64.5t-109 -137t-35.5 -165.5q0 -111 62 -186.5t181 -75.5q98 0 197.5 28.5t179.5 88.5q35 -15 35 -50q0 -27 -18 -45q-101 -101 -246.5 -151.5t-292.5 -50.5q-97 0 -173 33t-121.5 90t-69 128.5t-23.5 153.5q0 155 96.5 290.5t261.5 186.5
q-82 54 -122.5 133t-40.5 170z" />
    <glyph glyph-name="afii10024" unicode="&#x416;" horiz-adv-x="2207" 
d="M1878 176q79 0 174.5 33.5t155.5 71.5q35 -15 35 -50q0 -29 -19 -45q-102 -98 -222 -150t-235 -52q-97 0 -170 42.5t-116.5 118t-64.5 171t-21 210.5q0 165 32 310l-196 -340l-80 -381q-14 -67 -63 -99t-113 -32q-61 0 -98 26l172 813l-236 -415h-2q-82 -194 -207.5 -309
t-281.5 -115q-57 0 -102.5 6.5t-88 25t-71 49t-45.5 80t-17 115.5q0 75 42 128.5t128 53.5q23 0 49 -12.5t37 -32.5q-27 -47 -27 -100q0 -85 33.5 -133.5t95.5 -48.5q107 0 189.5 123t126 330t43.5 460q0 186 -37 289.5t-111 103.5q-163 0 -266 -225q-38 6 -52 38.5t-1 65.5
q48 122 146.5 191.5t209.5 69.5q166 0 249 -139.5t83 -391.5q0 -170 -37 -334l197 348l82 381q14 67 63 99t113 32q54 0 98 -26l-176 -830l240 418q85 200 213 321.5t286 121.5q173 0 246 -120q55 -90 31 -203q-21 -100 -88 -145q-36 -24 -78 -24q-30 0 -66.5 21.5
t-52.5 60.5q38 22 59 68.5t21 91.5t-26 79.5t-74 34.5q-116 0 -216 -175q-101 -177 -137 -434q-40 -274 22 -453q65 -187 222 -187z" />
    <glyph glyph-name="afii10025" unicode="&#x417;" horiz-adv-x="1130" 
d="M797 1251q0 97 -47.5 146t-114.5 49q-73 0 -113.5 -44.5t-40.5 -111.5q0 -55 31 -112q-45 -31 -90 -31q-56 0 -95.5 39t-39.5 104q0 64 26 115t67 82.5t95 52.5t105 29t102 8q72 0 135 -18.5t113.5 -55.5t80 -99.5t29.5 -143.5q0 -53 -22 -114t-63.5 -123.5
t-112.5 -118.5t-160 -91q165 3 254.5 -68t89.5 -219q0 -117 -56 -221t-144 -173t-194.5 -108.5t-209.5 -39.5q-162 0 -268.5 73.5t-106.5 212.5q0 75 42.5 129t127.5 54q23 0 49 -12.5t37 -32.5q-27 -42 -27 -101q0 -92 48.5 -141t121.5 -49q53 0 108 26.5t102 74.5
t76.5 126t29.5 170q0 69 -19 113t-62 68t-99 33t-144 9q-18 47 15 101q78 3 139 30.5t99 69t62.5 96.5t34 108t9.5 109z" />
    <glyph glyph-name="afii10026" unicode="&#x418;" horiz-adv-x="1437" 
d="M903 281l166 784l-571 -950q-39 -70 -79.5 -100.5t-96.5 -30.5q-58 0 -99 26l309 1456q-129 0 -191 -59t-62 -141q0 -73 40 -119q-47 -21 -88 -21q-75 0 -120 57.5t-45 137.5q0 51 19.5 98t59 88t107 65.5t154.5 24.5q55 0 127 -13.5t120 -25.5t104.5 -16t80.5 14
q28 -17 28 -53q0 -32 -19 -56t-52 -24h-19l-207 -977l572 959q37 69 78.5 100t97.5 31t98 -27l-254 -1179q-32 -152 68 -152q45 0 105.5 33t103.5 70q35 -15 35 -50q0 -23 -19 -45q-104 -97 -189 -149.5t-167 -52.5q-40 0 -72.5 8t-64 27.5t-47.5 53t-22 85.5t11 123z" />
    <glyph glyph-name="afii10027" unicode="&#x419;" horiz-adv-x="1437" 
d="M903 281l166 784l-571 -950q-39 -70 -79.5 -100.5t-96.5 -30.5q-58 0 -99 26l309 1456q-129 0 -191 -59t-62 -141q0 -73 40 -119q-47 -21 -88 -21q-75 0 -120 57.5t-45 137.5q0 51 19.5 98t59 88t107 65.5t154.5 24.5q55 0 127 -13.5t120 -25.5t104.5 -16t80.5 14
q28 -17 28 -53q0 -32 -19 -56t-52 -24h-19l-207 -977l572 959q37 69 78.5 100t97.5 31t98 -27l-254 -1179q-32 -152 68 -152q45 0 105.5 33t103.5 70q35 -15 35 -50q0 -23 -19 -45q-104 -97 -189 -149.5t-167 -52.5q-40 0 -72.5 8t-64 27.5t-47.5 53t-22 85.5t11 123z
M1358 1872q-11 -115 -122.5 -205t-268.5 -90q-101 0 -155 59t-54 140q0 72 45.5 123t126.5 51q44 0 82 -21q-15 -27 -15 -61q0 -44 26.5 -68t68.5 -24q55 0 109 43t83 123q31 5 55.5 -13.5t18.5 -56.5z" />
    <glyph glyph-name="afii10028" unicode="&#x41a;" horiz-adv-x="1351" 
d="M1063 -16q-68 0 -123.5 44.5t-91.5 114t-62.5 167.5t-40.5 191t-22 199l-105 -14l-120 -571q-14 -67 -63 -99t-113 -32q-72 0 -109 26l330 1456h-11q-129 0 -191 -59t-62 -141q0 -73 40 -119q-47 -21 -88 -21q-75 0 -120 57.5t-45 137.5q0 51 19.5 98t59 88t107 65.5
t154.5 24.5q55 0 127 -13.5t120 -25.5t104.5 -16t80.5 14q28 -17 28 -53q0 -32 -19 -56t-52 -24h-19l-133 -628l49 16q69 40 126.5 93.5t99 116t72.5 123t55 134t38 127.5t29 123q31 16 76 16q54 0 97.5 -34.5t43.5 -88.5q0 -139 -101 -286.5t-280 -290.5q66 -666 244 -666
q40 0 84.5 30t75.5 73q30 -13 30 -48q0 -27 -23 -68t-62.5 -82t-102 -70t-131.5 -29z" />
    <glyph glyph-name="afii10029" unicode="&#x41b;" horiz-adv-x="1406" 
d="M872 281l246 1167q-21 2 -68.5 7t-72.5 7q-160 -554 -300 -882t-264 -462t-263 -134q-79 0 -128 73.5t-49 206.5q0 154 174 154q59 0 103 -35q-43 -98 -43 -211v-18q53 20 103 63.5t115.5 138t131.5 234t148 363t169 513.5h-18q-117 -1 -179.5 -61t-62.5 -160
q0 -59 29 -106q-71 -17 -120.5 -11t-80 34t-44 63.5t-13.5 77.5q0 83 27 141t77 88.5t108 43.5t132 13q86 0 200 -12t188.5 -23t163.5 -13.5t126 15.5q29 -17 29 -53q0 -32 -19.5 -56t-52.5 -24l-234 -1093q-32 -152 68 -152q45 0 105.5 33t103.5 70q35 -15 35 -50
q0 -23 -19 -45q-104 -97 -189 -149.5t-167 -52.5q-40 0 -72.5 8t-64 27.5t-47.5 53t-22 85.5t11 123z" />
    <glyph glyph-name="afii10030" unicode="&#x41c;" horiz-adv-x="1937" 
d="M879 1466q-129 0 -191.5 -59t-62.5 -141q0 -71 41 -119q-46 -21 -88 -21q-75 0 -120.5 57.5t-45.5 137.5q0 51 19.5 98t59 88t107 65.5t154.5 24.5q55 0 127 -13.5t120 -25.5t104.5 -16t80.5 14q28 -17 28 -53q0 -32 -19 -56t-52 -24h-2l-74 -1089l475 1071
q53 131 176 131q71 0 113 -27l-168 -1179q-11 -86 6.5 -119t61.5 -33q45 0 105 32.5t103 70.5q35 -15 35 -50q0 -24 -18 -45q-195 -202 -352 -202q-46 0 -84.5 12t-71 38.5t-46 76t-3.5 116.5l137 926l-447 -1049q-26 -67 -69 -93.5t-105 -26.5q-57 0 -98 26l74 908l10 239
q-136 -435 -260 -696t-236.5 -369t-238.5 -108q-79 0 -127.5 73.5t-48.5 206.5q0 154 174 154q58 0 102 -35q-43 -98 -43 -211v-18q53 20 103.5 63.5t115.5 138t131.5 234t148.5 363t169 513.5h-10z" />
    <glyph glyph-name="afii10031" unicode="&#x41d;" horiz-adv-x="1376" 
d="M1393 186q-103 -96 -189 -149t-168 -53q-40 0 -72.5 8t-63.5 27.5t-47 53t-22 85.5t11 123l108 514q-143 -50 -319 -54l-133 -626q-14 -67 -63 -99t-113 -32q-72 0 -109 26l330 1456h-11q-129 0 -191 -59t-62 -141q0 -73 40 -119q-47 -21 -88 -21q-75 0 -120 57.5
t-45 137.5q0 51 19.5 98t59 88t107 65.5t154.5 24.5q55 0 127 -13.5t120 -25.5t104.5 -16t80.5 14q28 -17 28 -53q0 -32 -19 -56t-52 -24h-19l-117 -542q136 0 312 16l108 508q14 67 63 99t113 32q53 0 99 -27l-254 -1179q-16 -84 3 -118t64 -34t105.5 33t103.5 70
q35 -15 35 -50q0 -24 -18 -45z" />
    <glyph glyph-name="afii10032" unicode="&#x41e;" horiz-adv-x="1298" 
d="M874 1417q-89 0 -169 -75.5t-133 -192.5t-84 -255t-31 -267q0 -81 12.5 -149t37.5 -121t66.5 -83t96.5 -30t111.5 31t110.5 97t96 158t67.5 226.5t25.5 290.5q0 176 -58.5 273t-148.5 97zM575 -16q-101 0 -180.5 47.5t-128 131t-73.5 190t-25 229.5q0 113 21 229.5
t60.5 227.5t100.5 208.5t136 171t172 116t204 42.5q103 0 182 -42t126.5 -115.5t71.5 -167t24 -203.5q0 -121 -21.5 -246.5t-61.5 -244t-101.5 -223t-136 -182.5t-170.5 -123.5t-200 -45.5z" />
    <glyph glyph-name="afii10033" unicode="&#x41f;" horiz-adv-x="1376" 
d="M842 281l227 1077q-273 53 -295 57l-276 -1300q-14 -67 -63 -99t-113 -32q-72 0 -109 26l319 1415q-102 -20 -171.5 -99t-69.5 -202q0 -61 28 -106q-71 -17 -120.5 -11t-80 34t-44 63.5t-13.5 77.5q0 77 28.5 140t78 104t109 71.5t128.5 46.5t129.5 23.5t118.5 7.5
q51 0 247.5 -12.5t252.5 -12.5q159 0 242 60q37 -14 57 -45.5t18.5 -69.5t-17 -74t-52.5 -62.5t-86 -31.5l-215 -997q-32 -152 67 -152q45 0 105.5 33t103.5 70q35 -15 35 -50q0 -24 -18 -45q-103 -96 -189 -149t-168 -53q-40 0 -72.5 8t-63.5 27.5t-47 53t-22 85.5t11 123z
" />
    <glyph glyph-name="afii10034" unicode="&#x420;" horiz-adv-x="1292" 
d="M238 10l286 1276q14 65 61.5 96t108.5 31q55 0 97 -27l-144 -675q163 8 272 145.5t109 347.5q0 122 -71 198.5t-218 76.5q-123 0 -216 -30t-144 -80t-75.5 -106.5t-24.5 -117.5q0 -73 40 -119q-44 -20 -88 -20q-75 0 -120 57t-45 137q0 118 96 204.5t256 129.5t362 43
q131 0 229.5 -28t156.5 -78t86 -112.5t28 -137.5q0 -135 -50 -250t-135 -192.5t-198.5 -121t-239.5 -43.5h-30l-105 -499q-14 -67 -63 -99t-113 -32q-71 0 -108 26z" />
    <glyph glyph-name="afii10035" unicode="&#x421;" 
d="M733 1577q72 0 128 -23t89.5 -60.5t50.5 -82.5t17 -94q0 -85 -46.5 -147t-119.5 -62q-32 0 -68.5 21.5t-52.5 60.5q45 18 70 60t24 83.5t-32 73t-88 31.5q-88 0 -172.5 -115t-138.5 -307t-54 -400q0 -94 16.5 -172t50 -139.5t90.5 -96t132 -34.5q176 0 366 107
q35 -15 35 -50q0 -27 -18 -45q-202 -202 -498 -202q-117 0 -207.5 48.5t-145.5 133t-82.5 190t-27.5 226.5q0 193 54.5 375.5t145.5 318.5t218 218.5t264 82.5z" />
    <glyph glyph-name="afii10036" unicode="&#x422;" horiz-adv-x="1748" 
d="M1214 281l226 1060q-23 2 -264 33l-269 -1259q-14 -67 -63 -99t-113 -32q-71 0 -108 26l315 1393q-195 22 -266 27l-281 -1315q-14 -67 -63 -99t-113 -32q-72 0 -109 26l322 1420q-102 -20 -172 -99.5t-70 -202.5q0 -59 29 -106q-71 -17 -120.5 -11t-80 34t-44 63.5
t-13.5 77.5q0 77 28.5 140t78 104t109 71.5t128.5 46.5t129.5 23.5t118.5 7.5q109 0 473 -12.5t477 -12.5q159 0 242 60q58 -22 72.5 -82t-20 -119t-103.5 -78l-217 -1005q-32 -152 67 -152q45 0 105.5 33t103.5 70q35 -15 35 -50q0 -23 -19 -45q-104 -97 -189 -149.5
t-167 -52.5q-40 0 -72.5 8t-64 27.5t-47.5 53t-22 85.5t11 123z" />
    <glyph glyph-name="afii10037" unicode="&#x423;" horiz-adv-x="1343" 
d="M385 -23q-98 0 -151.5 60t-53.5 139q0 84 58 133q82 -102 264 -102q115 0 215 35q21 302 -31 628.5t-156 612.5q-98 -14 -145 -70t-47 -127t41 -119q-44 -20 -88 -20q-75 0 -120.5 57t-45.5 137q0 51 19.5 98.5t59 88t107 65.5t154.5 25q55 0 127 -13.5t120 -25.5
t104.5 -16t80.5 14q29 -17 29 -53q0 -32 -19.5 -56t-52.5 -24h-14q43 -144 72.5 -328t37.5 -376.5t-16 -352.5q274 297 274 1036q0 83 -10 142q53 53 135 53q45 0 73.5 -22t36.5 -46.5t7 -48.5q-6 -113 -30.5 -246t-71.5 -280.5t-110 -289t-152 -270.5t-192 -226
t-234.5 -154.5t-274.5 -57.5z" />
    <glyph glyph-name="afii10038" unicode="&#x424;" horiz-adv-x="1480" 
d="M741 1509q51 0 144 21.5t119 21.5q34 0 52.5 -20t18.5 -53q0 -43 -28 -60q-26 23 -54 25l-32 -154h22q113 0 200.5 -36.5t141 -101t80.5 -147.5t27 -180q0 -94 -23.5 -192.5t-66.5 -192t-108 -176.5t-143 -145t-177.5 -98.5t-206.5 -36.5h-23l-14 -74q-14 -67 -63 -99
t-113 -32q-58 0 -99 26l37 179h-16q-113 0 -200.5 36.5t-141 101t-80.5 147.5t-27 180q0 94 23.5 192.5t66.5 192t108 176.5t143 145t177.5 98.5t206.5 36.5h19l22 103q-73 -15 -119 -15q-143 0 -211.5 58t-68.5 141q0 74 41.5 122t105.5 48q41 0 88 -21q-24 -65 -24 -104
q0 -35 15 -58t44.5 -34t60.5 -15.5t76 -5.5zM942 1186h-10l-232 -1098h7q84 0 159.5 43.5t131.5 115.5t97 163.5t62 191t21 193.5q0 110 -24 196t-78.5 140.5t-133.5 54.5zM221 479q0 -110 24 -196t78.5 -140.5t133.5 -54.5h6l233 1098h-4q-84 0 -159.5 -43.5t-131.5 -115.5
t-97 -163.5t-62 -191t-21 -193.5z" />
    <glyph glyph-name="afii10039" unicode="&#x425;" horiz-adv-x="1269" 
d="M987 -16q-77 0 -133.5 47.5t-75.5 140.5l-73 344q-145 -256 -288 -394t-261 -138q-79 0 -127.5 73.5t-48.5 206.5q0 154 174 154q58 0 102 -35q-43 -98 -43 -211v-16q91 42 210 174.5t245 361.5l-164 772q-110 -10 -162.5 -66.5t-52.5 -131.5q0 -71 41 -119
q-47 -21 -88 -21q-75 0 -120.5 57.5t-45.5 137.5q0 51 19.5 98t59 88t107 65.5t154.5 24.5q55 0 127 -13.5t120 -25.5t104.5 -16t80.5 14q29 -17 29 -53q0 -32 -19.5 -56t-52.5 -24h-6l104 -505q101 139 147 308t31 339q73 53 136 53q34 0 59 -12.5t36.5 -32t16 -37.5
t4.5 -35q0 -110 -31 -210.5t-91 -188.5t-126 -158.5t-157 -148.5l110 -533q16 -84 78 -84q45 0 106.5 33t102.5 70q35 -15 35 -50q0 -23 -19 -45q-191 -202 -354 -202z" />
    <glyph glyph-name="afii10040" unicode="&#x426;" horiz-adv-x="1400" 
d="M532 1466q-129 0 -191 -59t-62 -141q0 -73 40 -119q-47 -21 -88 -21q-75 0 -120 57.5t-45 137.5q0 51 19.5 98t59 88t107 65.5t154.5 24.5q55 0 127 -13.5t120 -25.5t104.5 -16t80.5 14q28 -17 28 -53q0 -32 -19 -56t-52 -24h-15l-256 -1202q19 -5 62.5 -18t72 -20.5
t76 -16.5t96.5 -14l273 1259q14 67 63 99t113 32q57 0 98 -26l-309 -1373q94 2 148 136q44 6 73 -31q5 -136 -25 -251.5t-80.5 -191t-116 -129.5t-131 -77.5t-126.5 -24.5q-92 0 -128.5 47.5t-19 114t75.5 127.5q20 -28 66 -39.5t103.5 -0.5t113 39.5t101.5 86t63 133.5
q-24 -38 -65.5 -60t-84.5 -22q-109 0 -288.5 12.5t-292.5 12.5q-159 0 -242 -60q-36 13 -56 43t-20 66.5t14 72t47 63t78 36.5l259 1220h-3z" />
    <glyph glyph-name="afii10041" unicode="&#x427;" horiz-adv-x="1378" 
d="M844 281l104 442q-137 -94 -254 -94q-175 0 -222.5 112t11.5 330l99 393q-8 2 -27 2q-129 0 -191.5 -59t-62.5 -141q0 -71 41 -119q-46 -21 -88 -21q-75 0 -120.5 57.5t-45.5 137.5q0 51 19.5 98t59 88t107 65.5t154.5 24.5q55 0 127 -13.5t120 -25.5t104.5 -16t80.5 14
q29 -17 29 -53q0 -32 -19.5 -56t-52.5 -24h-6l-94 -417q-16 -65 -18 -107.5t10 -63.5t29.5 -28.5t45.5 -7.5q88 0 191 41l141 596q16 66 64 97.5t108 31.5q62 0 96 -27l-282 -1208q-35 -152 67 -152q45 0 105.5 33t103.5 70q35 -15 35 -50q0 -24 -18 -45q-103 -96 -189 -149
t-168 -53q-40 0 -73 8t-64.5 28t-47.5 53.5t-21.5 85t12.5 122.5z" />
    <glyph glyph-name="afii10042" unicode="&#x428;" horiz-adv-x="1734" 
d="M1323 1516l-303 -1342q211 -23 272 -27l273 1264q14 67 63 99t113 32q57 0 98 -26l-342 -1516q-109 0 -519 12.5t-523 12.5q-159 0 -242 -60q-36 13 -56 43t-20 66.5t14 72t47 63t78 36.5l259 1220h-3q-129 0 -191 -59t-62 -141q0 -73 40 -119q-47 -21 -88 -21
q-75 0 -120 57.5t-45 137.5q0 51 19.5 98t59 88t107 65.5t154.5 24.5q55 0 127 -13.5t120 -25.5t104.5 -16t80.5 14q28 -17 28 -53q0 -32 -19 -56t-52 -24h-15l-254 -1187q16 -2 262 -33l261 1208q14 67 63 99t113 32q57 0 98 -26z" />
    <glyph glyph-name="afii10043" unicode="&#x429;" horiz-adv-x="1935" 
d="M1839 1516l-309 -1373q93 2 147 136q45 6 74 -31q5 -136 -25 -251.5t-80.5 -191t-116 -129.5t-131 -77.5t-126.5 -24.5q-92 0 -128.5 47.5t-19 114t75.5 127.5q20 -28 66 -39.5t103.5 -0.5t113 39.5t101.5 86t63 133.5q-24 -38 -65.5 -60t-84.5 -22q-109 0 -519 12.5
t-523 12.5q-159 0 -242 -60q-36 13 -56 43t-20 66.5t14 72t47 63t78 36.5l259 1220h-3q-129 0 -191 -59t-62 -141q0 -73 40 -119q-47 -21 -88 -21q-75 0 -120 57.5t-45 137.5q0 51 19.5 98t59 88t107 65.5t154.5 24.5q55 0 127 -13.5t120 -25.5t104.5 -16t80.5 14
q28 -17 28 -53q0 -32 -19 -56t-52 -24h-15l-254 -1187q16 -2 262 -33l261 1208q14 67 63 99t113 32q57 0 98 -26l-303 -1342q211 -23 272 -27l273 1264q14 67 63 99t113 32q57 0 98 -26z" />
    <glyph glyph-name="afii10044" unicode="&#x42a;" horiz-adv-x="1271" 
d="M438 1466q-129 0 -191.5 -59t-62.5 -141q0 -71 41 -119q-47 -21 -88 -21q-75 0 -120.5 57.5t-45.5 137.5q0 51 19.5 98t59 88t107 65.5t154.5 24.5q68 0 157.5 -13.5t148.5 -25.5t129 -16t100 14q28 -17 28 -53q0 -32 -19 -56t-52 -24h-2l-121 -559q98 33 176 33
q77 0 137.5 -20.5t97 -52t60 -74t32.5 -82t9 -80.5q0 -77 -31 -161t-91.5 -162.5t-140.5 -141.5t-186.5 -101t-220.5 -38q-173 0 -293 43t-120 112q0 36 20 65t61 42q37 -33 95 -66l274 1276q-65 10 -121 10zM752 760q-48 0 -97 -12l-135 -633h2q104 0 199.5 67.5t152 175
t56.5 220.5q0 83 -45 132.5t-133 49.5z" />
    <glyph glyph-name="afii10045" unicode="&#x42b;" horiz-adv-x="1845" 
d="M551 1466q-129 0 -191.5 -59t-62.5 -141q0 -71 41 -119q-47 -21 -88 -21q-75 0 -120.5 57.5t-45.5 137.5q0 51 19.5 98t59 88t107 65.5t154.5 24.5q55 0 127 -13.5t120 -25.5t104.5 -16t80.5 14q29 -17 29 -53q0 -32 -19.5 -56t-52.5 -24h-12l-281 -1308h2q69 0 134 29
t115 77t88 113t56.5 134t15.5 142t-30 135q-76 -15 -166 -18q-22 25 -22 66q0 49 40.5 80.5t114.5 31.5q79 0 140 -22q278 204 565 600q53 73 153 73q58 0 99 -26l-256 -1200q-32 -152 67 -152q45 0 105.5 33t103.5 70q35 -15 35 -50q0 -24 -18 -45q-103 -96 -189 -149
t-168 -53q-40 0 -72.5 8t-63.5 27.5t-47 53t-22 85.5t11 123l207 995q-198 -269 -416 -451q90 -87 90 -237q0 -77 -31 -161t-91.5 -162.5t-140.5 -141.5t-186.5 -101t-220.5 -38q-173 0 -293 43t-120 112q0 36 20 65t61 42q44 -38 95 -66l276 1286h-10z" />
    <glyph glyph-name="afii10046" unicode="&#x42c;" horiz-adv-x="1271" 
d="M553 1466q-129 0 -191.5 -59t-62.5 -141q0 -71 41 -119q-47 -21 -88 -21q-75 0 -120.5 57.5t-45.5 137.5q0 51 19.5 98t59 88t107 65.5t154.5 24.5q55 0 127 -13.5t120 -25.5t104.5 -16t80.5 14q29 -17 29 -53q0 -32 -19.5 -56t-52.5 -24h-14l-121 -559q98 33 176 33
q77 0 137.5 -20.5t97 -52t60 -74t32.5 -82t9 -80.5q0 -204 -164 -375q-131 -137 -308 -197q-175 -59 -292 -8q-130 56 -123 231q1 43 12 93l244 1134h-8zM551 252q-18 -83 35 -113q52 -28 129 15q102 57 162 199q42 99 53 225q8 81 -40.5 131.5t-137.5 50.5q-48 0 -97 -12z
" />
    <glyph glyph-name="afii10047" unicode="&#x42d;" horiz-adv-x="1138" 
d="M797 725q-43 0 -124.5 -21.5t-123.5 -21.5q-38 0 -69 17.5t-45.5 43t-16.5 54.5t18 53q44 -22 93.5 -22t117 11t111.5 11q38 0 65 -12q11 125 11 200q0 190 -51.5 299t-155.5 109q-62 0 -109 -38t-47 -97q0 -76 33 -133q-48 -33 -103 -33q-54 0 -88 43t-34 102
q0 64 26 115t67 82.5t95 52.5t105 29t102 8q220 0 325 -143.5t105 -399.5q0 -133 -20.5 -262t-59 -246t-97.5 -216t-133 -171.5t-169.5 -113.5t-202.5 -41q-162 0 -268.5 73.5t-106.5 212.5q0 75 42.5 129t127.5 54q23 0 49 -12.5t37 -32.5q-27 -42 -27 -101
q0 -92 48.5 -141t121.5 -49q71 0 132.5 48t106 132t76.5 192t50 236h-14z" />
    <glyph glyph-name="afii10048" unicode="&#x42e;" horiz-adv-x="1937" 
d="M532 1466q-129 0 -191 -59t-62 -141q0 -73 40 -119q-47 -21 -88 -21q-75 0 -120 57.5t-45 137.5q0 51 19.5 98t59 88t107 65.5t154.5 24.5q55 0 127 -13.5t120 -25.5t104.5 -16t80.5 14q28 -17 28 -53q0 -32 -19 -56t-52 -24h-19l-114 -542q70 0 196 8q34 141 93.5 261.5
t141 213t189.5 145t229 52.5q110 0 192 -46.5t131 -131t70.5 -198t16.5 -253.5q-5 -145 -38 -284t-94 -260.5t-142 -214t-189 -145.5t-229 -53q-153 0 -252 81.5t-136.5 221t-19.5 326.5q3 84 15 166q-112 -23 -205 -29l-133 -626q-14 -67 -63 -99t-113 -32q-72 0 -109 26
l330 1456h-11zM1120 530q0 -141 57 -217.5t146 -76.5q55 0 111.5 30t110.5 94.5t96 154.5t68 220.5t26 282.5q0 185 -60 284t-151 99q-54 0 -110 -35t-109 -107.5t-94 -173.5t-66 -245t-25 -310z" />
    <glyph glyph-name="afii10049" unicode="&#x42f;" horiz-adv-x="1239" 
d="M721 281l84 403q-41 0 -107 8q-149 -382 -286.5 -545t-288.5 -163q-79 0 -127.5 73.5t-48.5 206.5q0 154 174 154q58 0 102 -35q-43 -98 -43 -211v-18q45 17 88.5 51.5t94.5 97t108 167.5t117 247q-131 41 -194.5 126t-63.5 197q0 132 53 236t146 169t213.5 98.5
t261.5 33.5q48 0 100.5 -5t117.5 -20.5t114.5 -39.5t83.5 -67t34 -99q0 -36 -30 -68.5t-76 -42.5q-52 144 -134 195l-235 -1100q-32 -152 68 -152q45 0 105 32.5t103 70.5q35 -15 35 -50q0 -24 -18 -45q-103 -96 -189 -149t-168 -53q-40 0 -72.5 8t-63.5 27.5t-47 53
t-22 85.5t11 123zM582 1057q0 -112 60 -187t185 -86l146 693q-171 -3 -281 -112t-110 -308z" />
    <glyph glyph-name="afii10065" unicode="&#x430;" horiz-adv-x="1073" 
d="M494 1042q135 0 211 -67q50 59 139 59q55 0 96 -26l-143 -678q-33 -152 61 -152q54 0 113.5 30.5t101.5 72.5q35 -15 35 -50q0 -24 -18 -45q-75 -85 -174.5 -143.5t-180.5 -58.5q-83 0 -137 47t-53 159q-68 -95 -148 -150.5t-164 -55.5q-61 0 -108 23.5t-74.5 59.5
t-44.5 84t-23 90.5t-6 86.5q0 178 69 342.5t189.5 268t258.5 103.5zM549 324l115 548q-50 17 -97 17q-88 0 -156 -53t-105.5 -138t-56 -175.5t-18.5 -180.5q0 -73 30.5 -110t80.5 -37t108 36t99 93z" />
    <glyph glyph-name="afii10066" unicode="&#x431;" horiz-adv-x="802" 
d="M412 1434q69 0 180 -8t188.5 -8t134.5 16q25 -38 15 -101q-14 -61 -57.5 -106t-110.5 -45q-74 0 -207 26.5t-197 30.5q62 -46 101 -77.5t94.5 -87t87.5 -106t56 -120t24 -143.5q0 -90 -20.5 -188.5t-62.5 -193t-99 -170.5t-136 -122.5t-167 -46.5q-77 0 -135.5 28t-93 77
t-51.5 110.5t-17 134.5q0 107 38 221t102.5 209t160.5 156t202 61q38 0 68 -6q-30 36 -73 72.5t-75.5 58t-81 52.5t-65.5 42q0 39 2 64.5t13 61t30.5 56.5t58 36.5t93.5 15.5zM598 743q0 57 -20 115q-33 8 -91 8q-63 0 -118.5 -45.5t-91 -116t-56 -152.5t-20.5 -157
q0 -83 30.5 -134.5t90.5 -51.5q63 0 117.5 55t88 138t52 173t18.5 168z" />
    <glyph glyph-name="afii10067" unicode="&#x432;" horiz-adv-x="860" 
d="M803 1264q-4 -85 -77 -203t-228 -303q64 22 123 22q85 0 136 -59t44 -156q-12 -150 -99 -285.5t-214.5 -215.5t-254.5 -80q-118 0 -181 94t-52 299q6 135 33.5 279.5t79 289.5t120.5 259t167.5 185.5t209.5 71.5q96 0 147.5 -51t45.5 -147zM565 600q-30 76 -133 82
q-77 -92 -190 -221q-4 -36 -4 -51q-13 -256 118 -256q45 0 83 25t63.5 64.5t43.5 89t25.5 99t6 94t-12.5 74.5zM604 1335q-52 0 -106 -69t-98 -178.5t-79 -232t-57 -243.5q199 250 291.5 400t97.5 229q2 48 -8.5 71t-40.5 23z" />
    <glyph glyph-name="afii10068" unicode="&#x433;" horiz-adv-x="694" 
d="M12 905q83 73 159.5 108.5t164.5 35.5q110 0 174.5 -66t64.5 -166q0 -71 -24 -129t-63 -97t-85.5 -72t-93 -60.5t-85.5 -55t-63 -63.5t-24 -78q0 -43 37.5 -70.5t106.5 -27.5q130 0 245.5 70t182.5 200q34 3 46.5 -13.5t-1.5 -45.5q-53 -116 -142.5 -206.5t-189 -137.5
t-193.5 -47q-157 0 -247.5 81.5t-90.5 198.5q0 69 25 125.5t64.5 93t87.5 67t95.5 55.5t87 51t64.5 60.5t25 76.5q0 54 -30.5 80t-78.5 26t-104 -27t-94 -63q-35 15 -35 55q0 27 14 41z" />
    <glyph glyph-name="afii10069" unicode="&#x434;" horiz-adv-x="1021" 
d="M1044 188q-33 -29 -127.5 -87t-193.5 -105q-22 -90 -43 -164t-52 -157.5t-64.5 -148t-78.5 -125.5t-96 -101t-116.5 -64t-139.5 -24q-101 0 -171.5 65t-70.5 186q0 73 36 144.5t94 130t137.5 111.5t160.5 93t168 72q8 30 25 89t20 71q-141 -190 -299 -190
q-61 0 -108 23.5t-74.5 59.5t-44.5 84t-23 90.5t-6 86.5q0 178 69 342.5t189.5 268t258.5 103.5q132 0 208 -67q50 59 142 59q55 0 96 -26l-172 -811q-9 -43 -18 -84q192 94 292 178q24 -21 25.5 -50t-23.5 -53zM549 324l115 548q-50 17 -97 17q-88 0 -156 -53t-105.5 -138
t-56 -175.5t-18.5 -180.5q0 -73 30.5 -110t80.5 -37t108 36t99 93zM115 -606q103 0 176 109t153 368q-176 -70 -294.5 -176t-118.5 -205q0 -48 28.5 -72t55.5 -24z" />
    <glyph glyph-name="afii10070" unicode="&#x435;" horiz-adv-x="849" 
d="M725 846q0 -69 -21 -126.5t-74 -122t-149.5 -134t-242.5 -150.5q27 -151 190 -151q108 0 232.5 66t191.5 155q38 7 54 -17.5t-3 -52.5q-103 -152 -263.5 -240.5t-313.5 -88.5q-154 0 -251.5 93t-97.5 273q0 68 15 144t43 153.5t73 148.5t100 126t129 87.5t155 32.5
q67 0 114.5 -17t72 -47t35.5 -62t11 -70zM506 883q-58 0 -106 -37t-77.5 -91.5t-50.5 -122.5t-30 -125.5t-11 -105.5q155 98 244.5 202t89.5 200q0 35 -16.5 57.5t-42.5 22.5z" />
    <glyph glyph-name="afii10072" unicode="&#x436;" horiz-adv-x="1642" 
d="M92 219q0 -52 22 -82.5t56 -30.5q30 0 62.5 19.5t65.5 64.5t59 110t42.5 166t16.5 222q0 101 -33 155t-82 54q-93 0 -154 -109q-27 -6 -44 22.5t-9 49.5q21 51 53 86.5t71 54t79.5 26t89.5 7.5q104 0 169 -85t65 -212q0 -79 -9 -147l164 334q32 64 62 87t80 23
q46 0 75 -26l-147 -676l168 342q39 101 91.5 179.5t126.5 129.5t154 51q110 0 164 -45.5t54 -144.5q0 -82 -42 -126.5t-102 -41.5q-43 3 -82 29q33 70 33 133q0 71 -35 71q-90 0 -148.5 -148.5t-58.5 -377.5q0 -129 33.5 -192.5t89.5 -63.5q96 0 197 79.5t153 176.5
q40 7 56 -17.5t-4 -52.5q-79 -163 -201.5 -246t-249.5 -83q-59 0 -109.5 20.5t-92 62.5t-65.5 114.5t-24 168.5q0 20 4 70l-159 -326q-32 -64 -62 -87t-80 -23q-46 0 -75 26l145 674l-170 -344q-68 -179 -192.5 -267.5t-260.5 -88.5q-84 0 -143 59t-59 170q0 69 40 100
t103 31q46 0 84 -33q-35 -37 -35 -92z" />
    <glyph glyph-name="afii10073" unicode="&#x437;" horiz-adv-x="737" 
d="M-326 -537q0 75 35 148t92 132.5t135 115t157.5 96.5t166.5 76q12 86 12 112q0 86 -50 139.5t-138 53.5q-8 49 16 84t70 35q95 0 169.5 97t74.5 198q0 71 -37.5 108t-97.5 37q-39 0 -82 -16q-4 -12 -4 -41q0 -65 32 -133q-33 -29 -82 -29q-54 0 -88.5 41t-34.5 100
q0 42 20 81.5t60 74t110.5 55.5t162.5 21q128 0 205 -72.5t77 -177.5q0 -150 -91 -258.5t-247 -151.5q91 -29 141 -97t50 -159v-2q129 67 240 160q24 -21 25.5 -50t-23.5 -53q-29 -25 -102 -75t-152 -95q-22 -134 -78.5 -297.5t-114.5 -261.5q-149 -247 -387 -247
q-101 0 -171.5 65t-70.5 186zM98 -459q66 117 131 350q-175 -69 -295 -182t-120 -219q0 -48 28.5 -72t55.5 -24q114 0 200 147z" />
    <glyph glyph-name="afii10074" unicode="&#x438;" horiz-adv-x="1013" 
d="M-6 377l96 420q6 24 0 37.5t-20 13.5q-13 0 -41 -25q-23 13 -25.5 50t25.5 63q125 98 229 98q58 0 84.5 -27.5t13.5 -84.5l-125 -582q-26 -121 70 -121q99 0 188 107l123 579q14 66 62 97.5t110 31.5q56 0 97 -26l-144 -678q-33 -152 62 -152q54 0 113.5 30.5t101.5 72.5
q35 -15 35 -50q0 -23 -19 -45q-75 -85 -174 -143.5t-180 -58.5q-40 0 -73.5 11.5t-62.5 36.5t-44 71.5t-11 111.5q-142 -231 -299 -231q-65 0 -110 26.5t-66 67t-28.5 95t-3.5 104t16 100.5z" />
    <glyph glyph-name="afii10075" unicode="&#x439;" horiz-adv-x="1013" 
d="M-6 377l96 420q6 24 0 37.5t-20 13.5q-13 0 -41 -25q-23 13 -25.5 50t25.5 63q125 98 229 98q58 0 84.5 -27.5t13.5 -84.5l-125 -582q-26 -121 70 -121q99 0 188 107l123 579q14 66 62 97.5t110 31.5q56 0 97 -26l-144 -678q-33 -152 62 -152q54 0 113.5 30.5t101.5 72.5
q35 -15 35 -50q0 -23 -19 -45q-75 -85 -174 -143.5t-180 -58.5q-40 0 -73.5 11.5t-62.5 36.5t-44 71.5t-11 111.5q-142 -231 -299 -231q-65 0 -110 26.5t-66 67t-28.5 95t-3.5 104t16 100.5zM877 1401q-11 -115 -122.5 -205t-269.5 -90q-101 0 -155 59t-54 140q0 72 46 123
t127 51q43 0 81 -21q-14 -25 -14 -61q0 -44 26.5 -68t67.5 -24q55 0 109.5 42.5t83.5 122.5q32 5 56 -13t18 -56z" />
    <glyph glyph-name="afii10076" unicode="&#x43a;" horiz-adv-x="872" 
d="M356 922l-71 -351l12 4q77 24 163.5 151.5t121.5 285.5q45 22 98 22q50 0 78 -27.5t28 -68.5q0 -86 -90.5 -202t-195.5 -187q9 -35 12.5 -49t15 -54t20.5 -61t24 -55.5t30.5 -54t35.5 -40.5t44 -30.5t51 -9.5q28 0 60 21.5t79 64.5q35 -15 35 -50q0 -24 -18 -45
q-61 -75 -151 -138.5t-150 -63.5q-47 0 -86.5 22t-67.5 62.5t-49.5 84.5t-37.5 102.5t-25 100.5t-19 93q-3 15 -4 22l-37 -10l-72 -348q-14 -66 -62 -97.5t-110 -31.5q-55 0 -96 26l168 787q12 51 -20 51q-13 0 -41 -25q-23 13 -25.5 50t25.5 63q125 98 229 98
q120 0 98 -112z" />
    <glyph glyph-name="afii10077" unicode="&#x43b;" horiz-adv-x="1081" 
d="M743 -16q-38 0 -68 5.5t-57.5 19t-45 38t-27.5 60t-8 88t16 118.5l121 568q-64 -3 -127 -9q-107 -432 -234 -651q-66 -115 -137.5 -175t-132.5 -62q-65 -2 -105 58.5t-40 170.5q0 127 143 127q41 0 84 -29q-35 -74 -35 -159q37 23 64 47.5t63.5 75.5t69 122.5t73 189
t82.5 273.5q-188 -27 -243 -90q-43 49 -43 104q0 89 65 133t162 44q37 0 87 -1.5t116.5 -5.5t128 -11.5t113.5 -18t82 -26.5t26 -36l-131 -622q-33 -152 61 -152q54 0 113.5 30.5t101.5 72.5q35 -15 35 -50q0 -24 -18 -45q-75 -85 -174.5 -143.5t-180.5 -58.5z" />
    <glyph glyph-name="afii10078" unicode="&#x43c;" horiz-adv-x="1497" 
d="M1282 178q54 0 113.5 30.5t101.5 72.5q35 -15 35 -50q0 -23 -19 -45q-75 -85 -174 -143.5t-180 -58.5q-28 0 -52.5 5t-51 18.5t-45 36.5t-33 58.5t-15.5 85.5t7 117l53 350l-346 -663q-75 -20 -122 4.5t-50 93.5l-15 569q-83 -281 -176 -438q-66 -115 -137.5 -175
t-132.5 -62q-65 -2 -105 58.5t-40 170.5q0 127 143 127q41 0 84 -29q-35 -74 -35 -159q47 29 81.5 65t79.5 111.5t93.5 210.5t101.5 333q-160 -18 -235 -102q-43 49 -43 104q0 89 65 133t162 44q221 0 303 -33l27 -696l317 577q41 75 80 105t95 30q54 0 98 -26l-94 -678
q-12 -83 3.5 -117.5t57.5 -34.5z" />
    <glyph glyph-name="afii10079" unicode="&#x43d;" 
d="M664 -16q-28 0 -53.5 5.5t-53 19t-46.5 37t-34 59t-14.5 85t12.5 115.5l41 199q-136 -43 -260 -49l-74 -342q-14 -66 -59.5 -97.5t-106.5 -31.5q-55 0 -96 26l170 787q6 24 0 37.5t-20 13.5q-13 0 -41 -25q-23 13 -25.5 50t25.5 63q125 98 229 98q58 0 84.5 -27.5
t13.5 -84.5l-71 -328q124 3 254 16l63 295q14 66 58.5 97.5t105.5 31.5q55 0 96 -26l-143 -678q-33 -152 61 -152q54 0 113.5 30.5t101.5 72.5q35 -15 35 -50q0 -24 -18 -45q-178 -202 -348 -202z" />
    <glyph glyph-name="afii10080" unicode="&#x43e;" horiz-adv-x="882" 
d="M500 1042q81 0 143 -28.5t99.5 -79.5t56 -116t18.5 -142q0 -92 -25 -189t-73.5 -186.5t-112.5 -160.5t-150.5 -113.5t-179.5 -42.5q-77 0 -136 29t-94 80t-53 115t-18 138q0 93 24.5 191t72 187.5t110 161t145.5 114t173 42.5zM545 887q-67 0 -126 -46t-97.5 -116.5
t-61 -153.5t-22.5 -159q0 -127 37 -188.5t96 -61.5q77 0 146.5 88t108 210.5t38.5 231.5q0 88 -29.5 141.5t-89.5 53.5z" />
    <glyph glyph-name="afii10081" unicode="&#x43f;" horiz-adv-x="980" 
d="M29 823q-23 13 -25.5 50t25.5 63q125 98 229 98q58 0 84.5 -27.5t13.5 -84.5l-20 -93q65 93 156 149t180 56t130.5 -74.5t8.5 -226.5l-100 -471q-9 -42 6.5 -63t48.5 -21q54 0 113.5 30.5t101.5 72.5q35 -15 35 -50q0 -23 -19 -45q-78 -89 -175.5 -145.5t-194.5 -56.5
q-33 0 -60.5 7t-54.5 26t-40 51.5t-17.5 83.5t12.5 122l86 408q13 61 -3 91t-52 30q-40 0 -94 -32.5t-89 -74.5l-125 -583q-14 -66 -62 -97.5t-110 -31.5q-55 0 -96 26l168 787q6 24 0 37.5t-20 13.5q-13 0 -41 -25z" />
    <glyph glyph-name="afii10082" unicode="&#x440;" horiz-adv-x="974" 
d="M-233 -745l323 1542q6 24 0 37.5t-20 13.5q-13 0 -41 -25q-23 13 -25.5 50t25.5 63q125 98 229 98q58 0 84.5 -27.5t13.5 -84.5l-10 -50q132 162 279 162q87 0 147 -46.5t86.5 -121t26.5 -170.5q0 -117 -41.5 -241t-113.5 -229.5t-182.5 -173.5t-236.5 -68q-79 0 -141 53
l-141 -680q-14 -66 -59.5 -97.5t-106.5 -31.5q-54 0 -96 27zM512 829q-97 0 -203 -131l-112 -534q43 -23 102 -23q75 0 140 46.5t106 118.5t64.5 155.5t23.5 161.5q0 103 -33 154.5t-88 51.5z" />
    <glyph glyph-name="afii10083" unicode="&#x441;" horiz-adv-x="849" 
d="M903 313q-103 -152 -263.5 -240.5t-313.5 -88.5q-154 0 -251.5 93t-97.5 273q0 118 39.5 241t106.5 223t166.5 164t210.5 64q248 0 248 -198q0 -82 -41.5 -125t-102.5 -43q-49 0 -82 29q33 70 33 133q0 59 -76 59q-43 0 -87 -39.5t-80 -106t-58.5 -164t-22.5 -204.5
q0 -115 53.5 -168t143.5 -53q108 0 232.5 66t191.5 155q38 7 54 -17.5t-3 -52.5z" />
    <glyph glyph-name="afii10084" unicode="&#x442;" horiz-adv-x="1460" 
d="M356 922l-20 -93q142 205 303 205q71 0 123.5 -55t48.5 -156q148 211 307 211q30 0 58 -8.5t57.5 -28.5t45.5 -54.5t22.5 -86t-11.5 -123.5l-100 -471q-9 -42 6.5 -63t48.5 -21q54 0 113.5 30.5t101.5 72.5q35 -15 35 -50q0 -24 -18 -45q-78 -88 -176 -145t-195 -57
q-33 0 -60.5 7t-54.5 26t-40 51.5t-17.5 83.5t12.5 122l86 408q16 50 7 85.5t-56 35.5q-91 0 -178 -94l-127 -596q-14 -66 -62 -97.5t-110 -31.5q-55 0 -96 26l143 672q15 50 6 85.5t-55 35.5q-100 0 -189 -107l-125 -583q-14 -66 -62 -97.5t-110 -31.5q-55 0 -96 26
l168 787q6 24 0 37.5t-20 13.5q-13 0 -41 -25q-23 13 -25.5 50t25.5 63q125 98 229 98q58 0 84.5 -27.5t13.5 -84.5z" />
    <glyph glyph-name="afii10085" unicode="&#x443;" horiz-adv-x="940" 
d="M-6 377l96 420q6 24 0 37.5t-20 13.5q-13 0 -41 -25q-23 13 -25.5 50t25.5 63q125 98 229 98q58 0 84.5 -27.5t13.5 -84.5l-127 -590q-11 -51 5.5 -82t64.5 -31q81 0 158 74l133 612q14 66 62 97.5t110 31.5q55 0 96 -26l-174 -811q-9 -43 -18 -84q192 94 292 178
q24 -21 26 -50t-23 -53q-32 -29 -127 -87t-195 -105q-22 -89 -44 -164t-54 -157.5t-66.5 -147.5t-81.5 -126t-100 -101t-120.5 -64t-143.5 -24q-44 0 -87.5 16t-79.5 45.5t-58.5 79t-22.5 110.5q0 54 17 103t45 89t74 79t93.5 70t115 65.5t127.5 62.5t141 64q3 1 5 2
q6 22 20 74t23 82q-134 -168 -274 -168q-59 0 -100 23t-61 60t-27.5 89t-3 105t17.5 114zM31 -606q103 0 174.5 106.5t152.5 362.5q-104 -51 -169 -88t-125.5 -83.5t-88.5 -95.5t-28 -106q0 -48 28.5 -72t55.5 -24z" />
    <glyph glyph-name="afii10086" unicode="&#x444;" horiz-adv-x="1425" 
d="M451 55l8 45q-107 -116 -238 -116q-56 0 -99.5 23.5t-68.5 59t-40.5 84t-21 91t-5.5 86.5q0 166 58.5 327t166.5 263q122 116 262 116q106 0 160 -100l35 164q42 198 161 311t269 113q78 0 116.5 -38t38.5 -87q0 -38 -26.5 -62.5t-63.5 -17.5q0 59 -76 59
q-65 0 -104 -73.5t-70 -217.5l-34 -167q107 116 239 116q56 0 99.5 -23t68.5 -58.5t41 -83t21.5 -89.5t5.5 -86q0 -166 -59 -327t-167 -263q-126 -120 -262 -120q-110 0 -164 106l-12 -65q-44 -211 -102 -361t-129.5 -238.5t-151 -128.5t-174.5 -40q-102 0 -173 59.5
t-71 169.5q0 127 144 127q41 0 84 -29q-35 -40 -35 -92q0 -96 57 -96q31 0 59.5 16.5t53.5 51.5t45.5 71.5t40.5 94.5t34.5 102t31 112t25 107.5t22.5 103.5zM983 844q-34 0 -63 -15.5t-74 -60.5l-113 -539q11 -40 28.5 -57.5t53.5 -17.5q66 0 118 39.5t82.5 98.5
t50.5 133.5t27 137t7 117.5q0 164 -117 164zM356 178q34 0 62 15t74 59l112 545q-11 38 -28 54.5t-52 16.5q-66 0 -118 -39.5t-82 -98.5t-50 -133.5t-27 -137t-7 -117.5q0 -164 116 -164z" />
    <glyph glyph-name="afii10087" unicode="&#x445;" horiz-adv-x="983" 
d="M645 -16q-98 0 -156 69t-86 250q-220 -319 -360 -319q-65 0 -105 60t-40 169q0 127 143 127q41 0 84 -29q-35 -76 -35 -161q74 42 141 108t154 207l-43 346q-3 28 -19.5 46.5t-42.5 23.5t-63 -9.5t-76 -48.5q-24 22 -25.5 53t25.5 60q122 106 219 106q104 0 154 -61
t68 -199l18 -145q158 183 158 291q0 39 -27.5 68t-83.5 28q3 75 42.5 116.5t94.5 41.5q37 0 68 -10.5t59 -34t39 -71t0 -112.5q-18 -101 -96.5 -199.5t-239.5 -236.5l19 -145q24 -195 135 -195q54 0 113.5 30.5t101.5 72.5q35 -15 35 -50q0 -23 -19 -45q-75 -85 -174 -143.5
t-180 -58.5z" />
    <glyph glyph-name="afii10088" unicode="&#x446;" horiz-adv-x="1026" 
d="M356 922l-125 -582q-26 -121 70 -121q99 0 188 107l123 579q14 66 62 97.5t110 31.5q56 0 97 -26l-144 -678q-14 -76 -3 -110.5t33.5 -38t51 23.5t49.5 74q42 6 74 -31q5 -136 -24 -251.5t-78.5 -191t-114 -129.5t-129 -77.5t-125.5 -24.5q-92 0 -128.5 47.5t-19 114
t75.5 127.5q26 -35 89 -41.5t132.5 14t132 82.5t83.5 152q-27 -38 -70.5 -62t-89.5 -24q-40 0 -73.5 11.5t-62.5 36.5t-44 71.5t-11 111.5q-142 -231 -299 -231q-65 0 -110 26.5t-66 67t-28.5 95t-3.5 104t16 100.5l96 420q6 24 0 37.5t-20 13.5q-13 0 -41 -25
q-23 13 -25.5 50t25.5 63q125 98 229 98q58 0 84.5 -27.5t13.5 -84.5z" />
    <glyph glyph-name="afii10089" unicode="&#x447;" horiz-adv-x="976" 
d="M645 -16q-28 0 -53.5 5.5t-53 19t-46.5 37t-33.5 59t-14 85t12.5 115.5l35 166q-106 -129 -238 -129q-266 0 -186 352l22 103q6 24 0 37.5t-20 13.5q-13 0 -41 -25q-23 13 -25.5 50t25.5 63q125 98 229 98q58 0 84.5 -27.5t13.5 -84.5l-57 -265q-26 -120 70 -120
q78 0 155 90l60 278q14 66 58.5 97.5t105.5 31.5q55 0 96 -26l-144 -678q-33 -152 62 -152q54 0 113.5 30.5t101.5 72.5q35 -15 35 -50q0 -23 -19 -45q-178 -202 -348 -202z" />
    <glyph glyph-name="afii10090" unicode="&#x448;" horiz-adv-x="1521" 
d="M-6 377l96 420q6 24 0 37.5t-20 13.5q-13 0 -41 -25q-23 13 -25.5 50t25.5 63q125 98 229 98q121 0 98 -112l-125 -582q-26 -121 70 -121q99 0 188 107l123 579q14 66 62 97.5t110 31.5q56 0 97 -26l-142 -668q-26 -121 70 -121q99 0 188 107l123 579q14 66 62 97.5
t110 31.5q56 0 97 -26l-144 -678q-33 -152 62 -152q54 0 113.5 30.5t101.5 72.5q34 -15 34 -50q0 -24 -18 -45q-73 -89 -166 -145.5t-188 -56.5q-40 0 -73.5 11.5t-62.5 36.5t-44 71.5t-11 111.5q-142 -231 -299 -231q-108 0 -157 64t-52 165q-143 -229 -299 -229
q-65 0 -110 26.5t-66 67t-28.5 95t-3.5 104t16 100.5z" />
    <glyph glyph-name="afii10091" unicode="&#x449;" horiz-adv-x="1533" 
d="M356 922l-125 -582q-26 -121 70 -121q99 0 188 107l123 579q14 66 62 97.5t110 31.5q56 0 97 -26l-142 -668q-26 -121 70 -121q99 0 188 107l123 579q14 66 62 97.5t110 31.5q56 0 97 -26l-144 -678q-14 -76 -3 -110.5t33.5 -38t51 23.5t49.5 74q42 6 74 -31
q5 -136 -24 -251.5t-78.5 -191t-114 -129.5t-129 -77.5t-125.5 -24.5q-92 0 -128.5 47.5t-19 114t75.5 127.5q26 -35 89 -41.5t132 14t131.5 82.5t83.5 152q-27 -38 -70 -62t-89 -24q-40 0 -73.5 11.5t-62.5 36.5t-44 71.5t-11 111.5q-142 -231 -299 -231q-108 0 -157 64
t-52 165q-143 -229 -299 -229q-65 0 -110 26.5t-66 67t-28.5 95t-3.5 104t16 100.5l96 420q6 24 0 37.5t-20 13.5q-13 0 -41 -25q-23 13 -25.5 50t25.5 63q125 98 229 98q58 0 84.5 -27.5t13.5 -84.5z" />
    <glyph glyph-name="afii10092" unicode="&#x44a;" horiz-adv-x="782" 
d="M506 1020q27 -10 41 -40t14 -69q0 -38 -26 -61q-154 -135 -228 -244q106 68 201 68q78 0 125 -51.5t47 -163.5q0 -85 -28 -161.5t-74.5 -132.5t-105.5 -97.5t-122.5 -62.5t-124.5 -21q-106 0 -173.5 61.5t-67.5 181.5q0 141 101.5 310t250.5 323q-35 -5 -103.5 -7
t-115.5 -11.5t-86 -36.5q-27 43 -27 90q0 66 43.5 113t114.5 47q31 0 72.5 -12t74 -23t87 -14.5t110.5 14.5zM236 473q-27 -73 -27 -149q0 -89 27.5 -134t68.5 -45q58 0 110 73.5t52 180.5q0 55 -27.5 88t-85.5 33q-62 0 -118 -47z" />
    <glyph glyph-name="afii10093" unicode="&#x44b;" horiz-adv-x="1284" 
d="M-6 377l96 420q6 24 0 37.5t-20 13.5q-13 0 -41 -25q-23 13 -25.5 50t25.5 63q125 98 229 98q58 0 84.5 -27.5t13.5 -84.5l-125 -582q-19 -90 3 -138t67 -48q26 0 55 17.5t59 59t39.5 111t-3.5 174.5q-50 -3 -109 4q-34 76 -0.5 135.5t119.5 59.5q57 0 110 -35
q180 96 353 303q14 18 49 34.5t82 16.5q55 0 96 -26l-143 -678q-33 -152 61 -152q54 0 113.5 30.5t101.5 72.5q35 -15 35 -50q0 -23 -19 -45q-78 -89 -175.5 -145.5t-194.5 -56.5q-33 0 -63 7.5t-59 24.5t-46.5 45t-25.5 69t5 97l119 566q-107 -116 -219 -187
q33 -58 33 -127q0 -70 -17.5 -138t-56 -133t-94.5 -114.5t-138.5 -79.5t-181.5 -30q-65 0 -110 26.5t-66 67t-28.5 95t-3.5 104t16 100.5z" />
    <glyph glyph-name="afii10094" unicode="&#x44c;" horiz-adv-x="776" 
d="M-6 377l96 420q6 24 0 37.5t-20 13.5q-13 0 -41 -25q-23 13 -25.5 50t25.5 63q125 98 229 98q121 0 98 -112l-59 -277q106 49 205 49q88 0 140 -51.5t52 -163.5q0 -55 -23 -120.5t-68.5 -131.5t-105.5 -120.5t-141.5 -88.5t-169.5 -34q-65 0 -110 26.5t-66 67t-28.5 95
t-3.5 104t16 100.5zM369 541q-51 0 -101 -23l-37 -178q-19 -90 3.5 -143.5t66.5 -53.5q65 0 122.5 76t57.5 201q0 55 -27 88t-85 33z" />
    <glyph glyph-name="afii10095" unicode="&#x44d;" horiz-adv-x="784" 
d="M193 109q94 0 166 91.5t98 276.5h-326q-8 49 16 84t70 35h252q2 29 2 92q0 101 -37.5 154t-97.5 53q-46 0 -97 -22.5t-92 -63.5q-32 0 -38.5 34.5t8.5 49.5q73 87 152.5 121.5t181.5 34.5q119 0 190.5 -91t71.5 -221q0 -132 -26.5 -245.5t-71.5 -194t-102.5 -142.5
t-123 -98.5t-129 -54.5t-123.5 -18q-101 0 -172 59t-71 170q0 127 143 127q40 0 84 -29q-35 -40 -35 -92q0 -45 32 -77.5t75 -32.5z" />
    <glyph glyph-name="afii10096" unicode="&#x44e;" horiz-adv-x="1368" 
d="M985 1042q159 0 238.5 -102.5t79.5 -263.5q0 -92 -25 -189t-73.5 -186.5t-112.5 -160.5t-150.5 -113.5t-179.5 -42.5q-77 0 -136 29t-94 80t-53 115t-18 138q0 91 20 172q-96 -57 -225 -63l-74 -342q-14 -66 -59.5 -97.5t-106.5 -31.5q-55 0 -96 26l170 787q9 51 -20 51
q-13 0 -41 -25q-23 13 -25.5 50t25.5 63q125 98 229 98q58 0 84.5 -27.5t13.5 -84.5l-71 -332q136 0 229 39q66 178 190.5 295.5t280.5 117.5zM1030 887q-67 0 -126 -46t-97.5 -116.5t-61 -153.5t-22.5 -159q0 -127 37 -188.5t96 -61.5q77 0 146.5 88t108 210.5t38.5 231.5
q0 88 -29.5 141.5t-89.5 53.5z" />
    <glyph glyph-name="afii10097" unicode="&#x44f;" horiz-adv-x="1030" 
d="M692 -16q-28 0 -53.5 5.5t-53.5 19t-47 37t-34 59t-14.5 85t12.5 115.5l24 115h-96q-34 -73 -71 -138t-88.5 -137t-110.5 -116t-115 -45q-65 -2 -105 58.5t-40 170.5q0 127 143 127q40 0 84 -29q-35 -76 -35 -161q43 25 75 52t73.5 85.5t81.5 144.5q-95 25 -145 94.5
t-50 161.5q0 90 39 160.5t102.5 112t136 62.5t148.5 21q72 0 129 -19.5t99 -61t54.5 -106.5t-4.5 -157l-77 -370q-33 -152 61 -152q54 0 113.5 30.5t101.5 72.5q35 -15 35 -50q0 -24 -18 -45q-76 -86 -173.5 -144t-181.5 -58zM362 688q-2 -66 24.5 -111t76.5 -45h86l51 236
q17 79 -4 117.5t-64 38.5q-76 0 -122 -73t-48 -163z" />
    <glyph glyph-name="afii10071" unicode="&#x451;" horiz-adv-x="849" 
d="M725 846q0 -69 -21 -126.5t-74 -122t-149.5 -134t-242.5 -150.5q27 -151 190 -151q108 0 232.5 66t191.5 155q38 7 54 -17.5t-3 -52.5q-103 -152 -263.5 -240.5t-313.5 -88.5q-154 0 -251.5 93t-97.5 273q0 68 15 144t43 153.5t73 148.5t100 126t129 87.5t155 32.5
q67 0 114.5 -17t72 -47t35.5 -62t11 -70zM506 883q-58 0 -106 -37t-77.5 -91.5t-50.5 -122.5t-30 -125.5t-11 -105.5q155 98 244.5 202t89.5 200q0 35 -16.5 57.5t-42.5 22.5zM238 1315q0 54 36.5 90.5t90.5 36.5t90.5 -36.5t36.5 -90.5t-36.5 -90.5t-90.5 -36.5t-90.5 36.5
t-36.5 90.5zM641 1315q0 54 37 90.5t90 36.5q54 0 90.5 -36.5t36.5 -90.5t-36.5 -90.5t-90.5 -36.5q-53 0 -90 36.5t-37 90.5z" />
    <glyph glyph-name="endash" unicode="&#x2013;" horiz-adv-x="808" 
d="M145 522q-69 0 -102 -41q-27 37 -27 74q0 58 50 98.5t133 40.5q60 0 153 -15t161 -15t128 30q20 -26 24 -58t-8 -61.5t-34.5 -55t-58.5 -41t-77 -15.5q-59 0 -171 29.5t-171 29.5z" />
    <glyph glyph-name="emdash" unicode="&#x2014;" horiz-adv-x="1234" 
d="M145 516q-69 0 -102 -41q-27 35 -27 73t23 69t70.5 51t109.5 20q118 0 297 -15t309.5 -15t245.5 30q25 -38 24.5 -86t-21.5 -89t-62.5 -69t-93.5 -28q-105 0 -238.5 25t-273.5 50t-261 25z" />
    <glyph glyph-name="quoteleft" unicode="&#x2018;" horiz-adv-x="442" 
d="M332 1556q18 0 30.5 -14.5t12.5 -38.5q-78 -89 -78 -170q0 -32 23.5 -83.5t23.5 -88.5q0 -56 -41 -96.5t-100 -40.5q-62 0 -104 43t-42 102q0 108 89.5 227t185.5 160z" />
    <glyph glyph-name="quoteright" unicode="&#x2019;" horiz-adv-x="442" 
d="M100 1024q-18 0 -30.5 14.5t-12.5 38.5q78 89 78 170q0 32 -23.5 83.5t-23.5 88.5q0 56 41 96.5t100 40.5q62 0 104 -43t42 -102q0 -108 -89.5 -227t-185.5 -160z" />
    <glyph glyph-name="quotesinglbase" unicode="&#x201a;" horiz-adv-x="442" 
d="M39 -295q-19 -6 -32 10.5t-3 42.5q54 46 83 100t32 100.5t-6 84t-27 61.5q8 57 49.5 96.5t100.5 39.5q61 0 97 -39t36 -99q0 -114 -94 -230.5t-236 -166.5z" />
    <glyph glyph-name="quotedblleft" unicode="&#x201c;" horiz-adv-x="792" 
d="M332 1556q18 0 30.5 -14.5t12.5 -38.5q-78 -89 -78 -170q0 -32 23.5 -83.5t23.5 -88.5q0 -56 -41 -96.5t-100 -40.5q-62 0 -104 43t-42 102q0 108 89.5 227t185.5 160zM696 1556q18 0 30.5 -14.5t12.5 -38.5q-77 -88 -77 -170q0 -32 23.5 -83.5t23.5 -88.5
q0 -56 -41.5 -96.5t-100.5 -40.5q-62 0 -103.5 42.5t-41.5 102.5q0 108 89.5 227t184.5 160z" />
    <glyph glyph-name="quotedblright" unicode="&#x201d;" horiz-adv-x="792" 
d="M100 1024q-18 0 -30.5 14.5t-12.5 38.5q78 89 78 170q0 32 -23.5 83.5t-23.5 88.5q0 56 41 96.5t100 40.5q62 0 104 -43t42 -102q0 -108 -89.5 -227t-185.5 -160zM465 1024q-18 0 -30.5 14.5t-12.5 38.5q78 89 78 170q0 32 -23.5 83.5t-23.5 88.5q0 56 41 96.5t100 40.5
q62 0 103.5 -42.5t41.5 -102.5q0 -108 -89.5 -227t-184.5 -160z" />
    <glyph glyph-name="quotedblbase" unicode="&#x201e;" horiz-adv-x="792" 
d="M100 -295q-18 0 -30.5 14.5t-12.5 38.5q78 89 78 170q0 32 -23.5 83.5t-23.5 88.5q0 56 41 97t100 41q62 0 104 -43t42 -103q0 -108 -89.5 -227t-185.5 -160zM465 -295q-18 0 -30.5 14.5t-12.5 38.5q78 89 78 170q0 32 -23.5 83.5t-23.5 88.5q0 56 41 97t100 41
q62 0 103.5 -43t41.5 -103q0 -108 -89.5 -227t-184.5 -160z" />
    <glyph glyph-name="bullet" unicode="&#x2022;" horiz-adv-x="538" 
d="M14 580q5 90 70.5 152.5t155.5 62.5q89 0 149 -63t55 -152q-6 -91 -71 -153t-156 -62q-90 0 -149.5 62.5t-53.5 152.5z" />
    <glyph glyph-name="Euro" unicode="&#x20ac;" horiz-adv-x="1142" 
d="M555 805h-203q-8 -76 -10 -109h240q16 -26 16 -61q0 -47 -34 -82t-99 -35h-121q16 -157 87 -250.5t198 -93.5q193 0 274 166q29 0 45.5 -14.5t16.5 -40.5q0 -70 -66 -140.5t-172 -115.5t-213 -45q-109 0 -195.5 42.5t-141.5 117t-86 169t-38 205.5h-155q-19 19 -19 53
q0 47 35.5 86t99.5 39h41q5 50 15 109h-82q-19 19 -19 53q0 47 35.5 86t99.5 39h9q81 261 250 427.5t370 166.5q72 0 128 -23t89.5 -60.5t50.5 -82.5t17 -94q0 -85 -46.5 -147t-119.5 -62q-32 0 -68.5 21.5t-52.5 60.5q45 18 70 60t24 83.5t-32 73t-88 31.5
q-92 0 -180 -128.5t-140 -326.5h287q16 -26 16 -61q0 -47 -34 -82t-99 -35z" />
    <glyph glyph-name="afii61352" unicode="&#x2116;" horiz-adv-x="2193" 
d="M645 1466q-129 0 -191.5 -59t-62.5 -141q0 -71 41 -119q-46 -21 -88 -21q-75 0 -120.5 57.5t-45.5 137.5q0 51 19.5 98t59 88t107 65.5t154.5 24.5q55 0 127 -13.5t120 -25.5t104.5 -16t80.5 14q29 -17 29 -53q0 -32 -19.5 -56t-52.5 -24h-2l221 -956q99 387 99 668
t-109 430q59 53 168 53q135 0 135 -170q0 -345 -157 -897l-160 -557q-107 -35 -129 57l-256 1116q-41 -236 -85.5 -423t-90 -314t-91 -216.5t-93 -138.5t-91 -70t-90.5 -21q-79 0 -127.5 73.5t-48.5 206.5q0 154 174 154q58 0 102 -35q-43 -98 -43 -211v-10
q240 154 420 1282l-6 22h-2zM1743 768q-112 0 -168.5 77t-56.5 195q0 87 29.5 179t79.5 169t125 126t157 49q112 0 168.5 -77.5t56.5 -195.5q0 -87 -29.5 -179t-79.5 -168.5t-125 -125.5t-157 -49zM2034 1294q0 69 -29 105.5t-74 36.5q-79 0 -148 -94.5t-69 -251.5
q0 -96 27.5 -142.5t70.5 -46.5q62 0 114 59.5t80 149.5t28 184zM1524 547q-70 0 -103 -41q-18 35 -18.5 68t16.5 60t59 43.5t103 16.5q57 0 145.5 -15t154 -15t122.5 30q25 -32 27 -69t-16 -67.5t-57 -50.5t-91 -20q-60 0 -171 30t-171 30z" />
    <glyph glyph-name="ff" unicode="&#xfb00;" horiz-adv-x="512" 
d="M694 1024v-119h-342l-194 -905q-38 -176 -72 -295.5t-77 -219.5t-93.5 -156.5t-117 -86.5t-152.5 -30q-100 0 -163 58.5t-63 180.5q0 26 18.5 40.5t49.5 14.5q24 -112 141 -112q35 0 63.5 15t53.5 50t45.5 80.5t42.5 118.5t41 151t43 191l195 905h-103q-8 51 16 85t70 34
h41l17 74q42 195 159.5 309.5t266.5 114.5q290 0 174 -424h-88q16 82 17 144t-27.5 98t-86.5 36q-116 0 -178 -291l-14 -61h317z" />
    <glyph glyph-name="st" unicode="&#xfb06;" horiz-adv-x="1280" 
d="M193 -16q-156 0 -231.5 80t-57.5 190q11 67 57 112.5t117 45.5q49 0 82 -29q-43 -49 -43 -129q0 -66 37.5 -100.5t91.5 -34.5q62 0 112 46t50 118q0 36 -25 66t-62.5 50t-81.5 49.5t-81.5 61.5t-62.5 88.5t-25 128.5q0 63 21.5 118.5t63.5 100t110.5 70.5t154.5 26
q28 0 74 -4q40 102 114.5 174.5t154.5 104t161 31.5q135 0 198.5 -75t30.5 -239l-2 -10h149q8 -51 -16 -85t-70 -34h-90l-120 -575q-33 -152 61 -152q54 0 113.5 30.5t101.5 72.5q35 -15 35 -50q0 -23 -19 -45q-76 -86 -183 -144t-206 -58q-102 0 -147 72t-12 231l131 618
h-103q-8 51 16 85t70 34h41l2 4q32 141 -90 141q-60 0 -122.5 -42.5t-100.5 -118.5q86 -50 86 -164q0 -83 -41.5 -127t-101.5 -41q-43 3 -82 29q-4 58 -4 79q0 43 8 117q-25 25 -62 25q-46 0 -82.5 -44t-36.5 -122q0 -44 18.5 -78t48 -57t65.5 -43t72 -42t65.5 -48.5
t48 -67.5t18.5 -94q0 -159 -102 -252.5t-317 -93.5z" />
    <glyph glyph-name="a.end" horiz-adv-x="1099" 
d="M940 1008l-143 -678q-15 -78 -1.5 -114t46.5 -36q31 0 61.5 23.5t52.5 75.5q29 0 45.5 -15t16.5 -41q0 -67 -47.5 -124t-111.5 -86t-124 -29q-83 0 -137 47t-53 159q-68 -95 -148 -150.5t-164 -55.5q-61 0 -108 23.5t-74.5 59.5t-44.5 84t-23 90.5t-6 86.5
q0 178 69 342.5t189.5 268t258.5 103.5q135 0 211 -67q50 59 139 59q55 0 96 -26zM342 195q50 0 108 36t99 93l115 548q-50 17 -97 17q-88 0 -156 -53t-105.5 -138t-56 -175.5t-18.5 -180.5q0 -73 30.5 -110t80.5 -37z" />
    <glyph glyph-name="c.end" horiz-adv-x="827" 
d="M-23 350q0 118 39.5 241t106.5 223t166.5 164t210.5 64q248 0 248 -198q0 -82 -41.5 -125t-102.5 -43q-49 0 -82 29q33 70 33 133q0 59 -76 59q-43 0 -87 -39.5t-80 -106t-58.5 -164t-22.5 -204.5q0 -110 51 -165.5t134 -55.5q135 0 190 117q29 0 45.5 -15t16.5 -41
q0 -85 -117.5 -162t-251.5 -77q-150 0 -236 87.5t-86 278.5z" />
    <glyph glyph-name="d.end" horiz-adv-x="1095" 
d="M731 -16q-83 0 -135 47t-51 159q-68 -95 -148 -150.5t-164 -55.5q-61 0 -108 23.5t-74.5 59.5t-44.5 84t-23 90.5t-6 86.5q0 178 69 342.5t189.5 268t258.5 103.5q124 0 196 -57l51 240q9 40 -12.5 49t-46.5 -21q-31 29 -31 64q0 23 40.5 57.5t103 61t114.5 26.5
q58 0 84.5 -27.5t14.5 -84.5l-215 -1020q-15 -78 -1.5 -114t46.5 -36q31 0 61.5 23.5t52.5 75.5q29 0 45.5 -15t16.5 -41q0 -67 -47.5 -124t-111.5 -86t-124 -29zM549 324v-2l117 548q-55 19 -99 19q-88 0 -156 -53t-105.5 -138t-56 -175.5t-18.5 -180.5q0 -73 30.5 -110
t80.5 -37t108 36t99 93z" />
    <glyph glyph-name="e.end" horiz-adv-x="804" 
d="M297 -16q-150 0 -236 87.5t-86 278.5q0 82 20.5 174t63.5 184.5t102.5 166.5t145 120.5t182.5 46.5q67 0 114.5 -17t72.5 -47t36 -62t11 -70q0 -69 -21 -126.5t-74 -122t-149.5 -134t-242.5 -150.5q14 -75 61.5 -113t116.5 -38q135 0 190 117q29 0 45.5 -15t16.5 -41
q0 -85 -117.5 -162t-251.5 -77zM504 883q-58 0 -106 -37t-77.5 -91.5t-50.5 -122.5t-30 -125.5t-11 -105.5q155 98 244.5 202t89.5 200q0 35 -16.5 57.5t-42.5 22.5z" />
    <glyph glyph-name="g.end" horiz-adv-x="1021" 
d="M924 -66q-93 20 -215 7q-30 -120 -63 -217t-83.5 -196t-109 -165.5t-141 -108.5t-179.5 -42q-101 0 -171.5 65t-70.5 186q0 73 36 145t94 130t137 111.5t160.5 93t168.5 71.5q8 30 25 89t20 71q-141 -190 -299 -190q-61 0 -108 23.5t-74.5 59.5t-44.5 84t-23 90.5
t-6 86.5q0 178 69 342.5t189.5 268t258.5 103.5q135 0 211 -67q50 59 139 59q55 0 96 -26l-172 -811q-5 -20 -12.5 -57.5t-10.5 -51.5q44 8 84 8q61 0 88.5 -50t6.5 -112zM549 324l115 548q-50 17 -97 17q-88 0 -156 -53t-105.5 -138t-56 -175.5t-18.5 -180.5
q0 -73 30.5 -110t80.5 -37t108 36t99 93zM115 -606q103 0 176 109t153 368q-176 -71 -294.5 -175.5t-118.5 -205.5q0 -48 28.5 -72t55.5 -24z" />
    <glyph glyph-name="h.end" horiz-adv-x="1021" 
d="M498 803q-100 0 -191 -109l-129 -581q-14 -66 -62 -97.5t-110 -31.5q-55 0 -86 20l260 1221q9 40 -12.5 49t-46.5 -21q-31 29 -31 64q0 23 40.5 57.5t103 61t114.5 26.5q121 0 98 -112l-106 -502q131 186 272 186q27 0 53 -5.5t53.5 -19t47 -35.5t34.5 -55.5t15.5 -79
t-10.5 -106.5l-86 -403q-15 -78 -1.5 -114t46.5 -36q31 0 62 24t53 75q29 0 45 -15t16 -41q0 -67 -47.5 -124t-111.5 -86t-124 -29q-28 0 -53.5 5t-54 17t-48 33t-35 53t-15.5 77t10 105l86 408q15 50 6 85.5t-55 35.5z" />
    <glyph glyph-name="i.end" horiz-adv-x="532" 
d="M-31 227l121 570q9 51 -20 51q-13 0 -41 -25q-23 13 -25.5 50t25.5 63q125 98 229 98q121 0 98 -112l-127 -592q-15 -78 -1.5 -114t46.5 -36q31 0 62 24t53 75q29 0 45.5 -15t16.5 -41q0 -67 -47.5 -124t-111.5 -86t-124 -29q-42 0 -80 12.5t-71.5 38.5t-47.5 76t0 116z
M158 1298q6 60 50.5 102t104.5 42t98.5 -42t32.5 -102q-9 -61 -54.5 -102t-104.5 -41q-61 0 -98.5 42t-28.5 101z" />
    <glyph glyph-name="j.end" horiz-adv-x="471" 
d="M-41 182l133 615q9 51 -20 51q-13 0 -41 -25q-23 13 -25.5 50t25.5 63q125 98 229 98q121 0 98 -112l-155 -725q-1 -4 -10.5 -45.5t-14.5 -63.5q47 8 86 8q61 0 88 -50t6 -112q-93 20 -215 7q-31 -121 -63 -217t-82.5 -196t-108.5 -166t-141 -108t-180 -42
q-101 0 -171.5 65t-70.5 186q0 73 36 144.5t94 130t137.5 111.5t160.5 93t168 72q24 102 37 168zM-451 -606q107 0 185.5 111.5t150.5 367.5q-177 -69 -298.5 -175.5t-121.5 -207.5q0 -48 28.5 -72t55.5 -24zM162 1298q3 60 46 102t103 42t100.5 -42t37.5 -102
q-5 -60 -48.5 -101.5t-103.5 -41.5t-99.5 41.5t-35.5 101.5z" />
    <glyph glyph-name="k.end" horiz-adv-x="933" 
d="M-78 4l256 1221q9 40 -12.5 49t-46.5 -21q-31 29 -31 64q0 23 40.5 57.5t103 61t114.5 26.5q121 0 98 -112l-168 -785l41 10q199 59 199 238q0 95 -29 127q21 42 64 68t96 26q62 0 88.5 -35t26.5 -118q1 -115 -73.5 -206.5t-182.5 -142.5q11 -44 17.5 -69.5t20.5 -74
t28.5 -79t33.5 -63.5t42 -49.5t48 -16.5q39 0 61 23t34 76q29 0 45 -15t16 -41q0 -104 -77.5 -171.5t-184.5 -67.5q-47 0 -86.5 22t-67.5 62.5t-49.5 84.5t-37.5 102.5t-25 100.5t-19 93q-3 15 -4 22l-47 -12l-74 -346q-14 -66 -62 -97.5t-110 -31.5q-55 0 -86 20z" />
    <glyph glyph-name="l.end" horiz-adv-x="606" 
d="M-16 287q66 580 185.5 877.5t313.5 297.5q74 0 119 -44t45 -122q0 -126 -103.5 -364t-295.5 -529q-1 -13 -4 -37t-4 -36q-9 -80 2.5 -115t42.5 -35t61.5 23.5t52.5 75.5q29 0 45.5 -15t16.5 -41q0 -67 -47.5 -124t-111.5 -86t-124 -29q-42 0 -77.5 14t-67 46t-45.5 94.5
t-4 148.5zM498 1327q-50 0 -111 -206t-113 -537q121 223 189.5 425.5t68.5 272.5q0 25 -8 35t-26 10z" />
    <glyph glyph-name="m.end" horiz-adv-x="1505" 
d="M1290 733l-86 -403q-15 -78 -1.5 -114t46.5 -36q31 0 62 24t53 75q29 0 45 -15t16 -41q0 -67 -47 -124t-111 -86t-124 -29q-28 0 -53.5 5t-54 17t-48.5 33t-35.5 53t-15.5 77t10 105l86 408q16 50 7 85.5t-56 35.5q-91 0 -178 -94l-127 -596q-14 -66 -62 -97.5
t-110 -31.5q-55 0 -96 26l143 672q15 50 6 85.5t-55 35.5q-100 0 -189 -107l-125 -583q-14 -66 -62 -97.5t-110 -31.5q-55 0 -96 26l168 787q6 24 0 37.5t-20 13.5q-13 0 -41 -25q-23 13 -25.5 50t25.5 63q125 98 229 98q58 0 84.5 -27.5t13.5 -84.5l-20 -93
q142 205 303 205q71 0 123.5 -55t48.5 -156q148 211 307 211q30 0 58 -8.5t57.5 -28.5t45.5 -54.5t22.5 -86t-11.5 -123.5z" />
    <glyph glyph-name="n.end" horiz-adv-x="1028" 
d="M811 733l-86 -403q-15 -78 -1.5 -114t46.5 -36q31 0 62 24t53 75q29 0 45 -15t16 -41q0 -67 -47 -124t-111 -86t-124 -29q-28 0 -53.5 5t-54 17t-48.5 33t-35.5 53t-15.5 77t10 105l86 408q13 61 -3 91t-52 30q-40 0 -94 -32.5t-89 -74.5l-125 -583q-14 -66 -62 -97.5
t-110 -31.5q-55 0 -96 26l168 787q6 24 0 37.5t-20 13.5q-13 0 -41 -25q-23 13 -25.5 50t25.5 63q125 98 229 98q58 0 84.5 -27.5t13.5 -84.5l-20 -93q65 93 156 149t180 56t130 -74.5t9 -226.5z" />
    <glyph glyph-name="o.end" horiz-adv-x="997" 
d="M1026 936q27 -26 25.5 -59.5t-25.5 -53.5q-5 -4 -86 -83t-131 -111q2 -8 2 -23q0 -114 -49.5 -229t-125.5 -200t-172.5 -139t-187.5 -54q-77 0 -136 29t-94 80t-53 115t-18 138q0 93 24.5 191t72 187.5t110 161t145.5 114t173 42.5q82 0 141.5 -27t103.5 -93
q-3 -34 -24 -50.5t-45 -7.5q-64 23 -131 23t-126 -46t-97.5 -116.5t-61 -153.5t-22.5 -159q0 -127 37 -188.5t96 -61.5q82 0 158.5 102t76.5 234q0 36 -10 84q-60 3 -94 24q-34 85 -0.5 150t119.5 65q108 0 161 -94q47 29 132.5 108.5t111.5 100.5z" />
    <glyph glyph-name="t.end" horiz-adv-x="540" 
d="M449 905h-91l-120 -575q-15 -78 -1.5 -114t46.5 -36q31 0 61.5 23.5t52.5 75.5q29 0 45.5 -15t16.5 -41q0 -67 -47.5 -124t-111.5 -86t-124 -29q-33 0 -64 8t-63 28.5t-50 54.5t-26 86.5t9 125.5l131 618h-103q-8 51 16 85t70 34h41l37 168q14 66 62 97.5t110 31.5
q54 0 96 -27l-57 -270h150q8 -51 -16 -85t-70 -34z" />
    <glyph glyph-name="u.end" horiz-adv-x="1040" 
d="M-6 377l96 420q6 24 0 37.5t-20 13.5q-13 0 -41 -25q-23 13 -25.5 50t25.5 63q125 98 229 98q121 0 98 -112l-125 -582q-26 -121 70 -121q99 0 188 107l123 579q14 66 62 97.5t110 31.5q56 0 97 -26l-144 -678q-15 -78 -1.5 -114t46.5 -36q31 0 62 24t53 75q29 0 45 -15
t16 -41q0 -67 -47 -124t-111 -86t-124 -29q-40 0 -73.5 11.5t-62.5 36.5t-44 71.5t-11 111.5q-142 -231 -299 -231q-65 0 -110 26.5t-66 67t-28.5 95t-3.5 104t16 100.5z" />
    <glyph glyph-name="x.end" horiz-adv-x="1028" 
d="M770 178q33 0 67 25t48 76q29 0 45 -15t16 -41q0 -67 -51.5 -124t-119.5 -86t-128 -29q-48 0 -84 14.5t-67 49.5t-53.5 98.5t-36.5 156.5q-220 -319 -361 -319q-65 0 -105 60t-40 169q0 127 143 127q40 0 84 -29q-35 -76 -35 -161q74 42 141 108t154 207l-43 346
q-4 38 -35 61t-78 13.5t-88 -60.5q-30 28 -30 64q0 24 38.5 60t98.5 64.5t112 28.5q104 0 154 -61t68 -199l18 -145q158 183 158 291q0 39 -27.5 68t-83.5 28q3 75 42.5 116.5t94.5 41.5q37 0 68 -10.5t59 -34t39 -71t0 -112.5q-18 -101 -96.5 -199.5t-239.5 -236.5l19 -145
q24 -195 135 -195z" />
    <glyph glyph-name="y.end" horiz-adv-x="940" 
d="M-6 377l96 420q6 24 0 37.5t-20 13.5q-13 0 -41 -25q-23 13 -25.5 50t25.5 63q125 98 229 98q121 0 98 -112l-127 -590q-11 -51 5.5 -82t64.5 -31q81 0 158 74l133 612q14 66 62 97.5t110 31.5q55 0 96 -26l-174 -811q-1 -4 -10.5 -45.5t-14.5 -63.5q47 8 86 8
q61 0 88.5 -50t6.5 -112q-93 20 -215 7q-22 -84 -44.5 -156t-54 -148t-66.5 -136.5t-81 -116t-97 -92.5t-116 -58.5t-137 -21.5q-93 0 -157.5 65t-64.5 186q0 73 36 145t94 130t137 111.5t160.5 93t168.5 71.5q14 52 39 140q-134 -168 -274 -168q-59 0 -100 23t-61 60
t-27.5 89t-3 105t17.5 114zM31 -606q103 0 176 109t153 368q-176 -71 -294.5 -175.5t-118.5 -205.5q0 -48 28.5 -72t55.5 -24z" />
    <glyph glyph-name="afii10065.end" horiz-adv-x="1099" 
d="M940 1008l-143 -678q-15 -78 -1.5 -114t46.5 -36q31 0 61.5 23.5t52.5 75.5q29 0 45.5 -15t16.5 -41q0 -67 -47.5 -124t-111.5 -86t-124 -29q-83 0 -137 47t-53 159q-68 -95 -148 -150.5t-164 -55.5q-61 0 -108 23.5t-74.5 59.5t-44.5 84t-23 90.5t-6 86.5
q0 178 69 342.5t189.5 268t258.5 103.5q135 0 211 -67q50 59 139 59q55 0 96 -26zM342 195q50 0 108 36t99 93l115 548q-50 17 -97 17q-88 0 -156 -53t-105.5 -138t-56 -175.5t-18.5 -180.5q0 -73 30.5 -110t80.5 -37z" />
    <glyph glyph-name="afii10070.end" horiz-adv-x="804" 
d="M297 -16q-150 0 -236 87.5t-86 278.5q0 82 20.5 174t63.5 184.5t102.5 166.5t145 120.5t182.5 46.5q67 0 114.5 -17t72.5 -47t36 -62t11 -70q0 -69 -21 -126.5t-74 -122t-149.5 -134t-242.5 -150.5q14 -75 61.5 -113t116.5 -38q135 0 190 117q29 0 45.5 -15t16.5 -41
q0 -85 -117.5 -162t-251.5 -77zM504 883q-58 0 -106 -37t-77.5 -91.5t-50.5 -122.5t-30 -125.5t-11 -105.5q155 98 244.5 202t89.5 200q0 35 -16.5 57.5t-42.5 22.5z" />
    <glyph glyph-name="afii10080.end" horiz-adv-x="997" 
d="M1026 936q27 -26 25.5 -59.5t-25.5 -53.5q-5 -4 -86 -83t-131 -111q2 -8 2 -23q0 -114 -49.5 -229t-125.5 -200t-172.5 -139t-187.5 -54q-77 0 -136 29t-94 80t-53 115t-18 138q0 93 24.5 191t72 187.5t110 161t145.5 114t173 42.5q82 0 141.5 -27t103.5 -93
q-3 -34 -24 -50.5t-45 -7.5q-64 23 -131 23t-126 -46t-97.5 -116.5t-61 -153.5t-22.5 -159q0 -127 37 -188.5t96 -61.5q82 0 158.5 102t76.5 234q0 36 -10 84q-60 3 -94 24q-34 85 -0.5 150t119.5 65q108 0 161 -94q47 29 132.5 108.5t111.5 100.5z" />
    <glyph glyph-name="afii10083.end" horiz-adv-x="827" 
d="M-23 350q0 118 39.5 241t106.5 223t166.5 164t210.5 64q248 0 248 -198q0 -82 -41.5 -125t-102.5 -43q-49 0 -82 29q33 70 33 133q0 59 -76 59q-43 0 -87 -39.5t-80 -106t-58.5 -164t-22.5 -204.5q0 -110 51 -165.5t134 -55.5q135 0 190 117q29 0 45.5 -15t16.5 -41
q0 -85 -117.5 -162t-251.5 -77q-150 0 -236 87.5t-86 278.5z" />
    <glyph glyph-name="afii10087.end" horiz-adv-x="1028" 
d="M770 178q33 0 67 25t48 76q29 0 45 -15t16 -41q0 -67 -51.5 -124t-119.5 -86t-128 -29q-48 0 -84 14.5t-67 49.5t-53.5 98.5t-36.5 156.5q-220 -319 -361 -319q-65 0 -105 60t-40 169q0 127 143 127q40 0 84 -29q-35 -76 -35 -161q74 42 141 108t154 207l-43 346
q-4 38 -35 61t-78 13.5t-88 -60.5q-30 28 -30 64q0 24 38.5 60t98.5 64.5t112 28.5q104 0 154 -61t68 -199l18 -145q158 183 158 291q0 39 -27.5 68t-83.5 28q3 75 42.5 116.5t94.5 41.5q37 0 68 -10.5t59 -34t39 -71t0 -112.5q-18 -101 -96.5 -199.5t-239.5 -236.5l19 -145
q24 -195 135 -195z" />
    <glyph glyph-name="afii10085.end" horiz-adv-x="940" 
d="M-6 377l96 420q6 24 0 37.5t-20 13.5q-13 0 -41 -25q-23 13 -25.5 50t25.5 63q125 98 229 98q121 0 98 -112l-127 -590q-11 -51 5.5 -82t64.5 -31q81 0 158 74l133 612q14 66 62 97.5t110 31.5q55 0 96 -26l-174 -811q-1 -4 -10.5 -45.5t-14.5 -63.5q47 8 86 8
q61 0 88.5 -50t6.5 -112q-93 20 -215 7q-22 -84 -44.5 -156t-54 -148t-66.5 -136.5t-81 -116t-97 -92.5t-116 -58.5t-137 -21.5q-93 0 -157.5 65t-64.5 186q0 73 36 145t94 130t137 111.5t160.5 93t168.5 71.5q14 52 39 140q-134 -168 -274 -168q-59 0 -100 23t-61 60
t-27.5 89t-3 105t17.5 114zM31 -606q103 0 176 109t153 368q-176 -71 -294.5 -175.5t-118.5 -205.5q0 -48 28.5 -72t55.5 -24z" />
    <glyph glyph-name="afii10081.end" horiz-adv-x="1028" 
d="M811 733l-86 -403q-15 -78 -1.5 -114t46.5 -36q31 0 62 24t53 75q29 0 45 -15t16 -41q0 -67 -47 -124t-111 -86t-124 -29q-28 0 -53.5 5t-54 17t-48.5 33t-35.5 53t-15.5 77t10 105l86 408q13 61 -3 91t-52 30q-40 0 -94 -32.5t-89 -74.5l-125 -583q-14 -66 -62 -97.5
t-110 -31.5q-55 0 -96 26l168 787q6 24 0 37.5t-20 13.5q-13 0 -41 -25q-23 13 -25.5 50t25.5 63q125 98 229 98q58 0 84.5 -27.5t13.5 -84.5l-20 -93q65 93 156 149t180 56t130 -74.5t9 -226.5z" />
    <glyph glyph-name="afii10084.end" horiz-adv-x="1507" 
d="M1292 733l-86 -403q-15 -78 -1.5 -114t46.5 -36q31 0 62 24t53 75q29 0 45 -15t16 -41q0 -67 -47 -124t-111 -86t-124 -29q-28 0 -53.5 5t-54 17t-48.5 33t-35.5 53t-15.5 77t10 105l86 408q16 50 7 85.5t-56 35.5q-91 0 -178 -94l-127 -596q-14 -66 -62 -97.5
t-110 -31.5q-55 0 -96 26l143 672q15 50 6 85.5t-55 35.5q-100 0 -189 -107l-124 -583q-14 -66 -62.5 -97.5t-110.5 -31.5q-55 0 -96 26l168 787q6 24 0 37.5t-20 13.5q-13 0 -41 -25q-23 13 -25.5 50t25.5 63q125 98 229 98q58 0 84.5 -27.5t13.5 -84.5l-20 -93
q142 205 303 205q71 0 123.5 -55t48.5 -156q148 211 307 211q30 0 58 -8.5t57.5 -28.5t45.5 -54.5t22.5 -86t-11.5 -123.5z" />
    <glyph glyph-name="afii10069.end" horiz-adv-x="1021" 
d="M924 -66q-93 20 -215 7q-30 -120 -63 -217t-83.5 -196t-109 -165.5t-141 -108.5t-179.5 -42q-101 0 -171.5 65t-70.5 186q0 73 36 145t94 130t137 111.5t160.5 93t168.5 71.5q8 30 25 89t20 71q-141 -190 -299 -190q-61 0 -108 23.5t-74.5 59.5t-44.5 84t-23 90.5
t-6 86.5q0 178 69 342.5t189.5 268t258.5 103.5q135 0 211 -67q50 59 139 59q55 0 96 -26l-172 -811q-5 -20 -12.5 -57.5t-10.5 -51.5q44 8 84 8q61 0 88.5 -50t6.5 -112zM549 324l115 548q-50 17 -97 17q-88 0 -156 -53t-105.5 -138t-56 -175.5t-18.5 -180.5
q0 -73 30.5 -110t80.5 -37t108 36t99 93zM115 -606q103 0 176 109t153 368q-176 -71 -294.5 -175.5t-118.5 -205.5q0 -48 28.5 -72t55.5 -24z" />
    <glyph glyph-name="afii10074.end" horiz-adv-x="1040" 
d="M-6 377l96 420q6 24 0 37.5t-20 13.5q-13 0 -41 -25q-23 13 -25.5 50t25.5 63q125 98 229 98q121 0 98 -112l-125 -582q-26 -121 70 -121q99 0 188 107l123 579q14 66 62 97.5t110 31.5q56 0 97 -26l-144 -678q-15 -78 -1.5 -114t46.5 -36q31 0 62 24t53 75q29 0 45 -15
t16 -41q0 -67 -47 -124t-111 -86t-124 -29q-40 0 -73.5 11.5t-62.5 36.5t-44 71.5t-11 111.5q-142 -231 -299 -231q-65 0 -110 26.5t-66 67t-28.5 95t-3.5 104t16 100.5z" />
    <glyph glyph-name="afii10076.end" horiz-adv-x="933" 
d="M694 180q39 0 60.5 23t33.5 76q29 0 45.5 -15t16.5 -41q0 -104 -77.5 -171.5t-184.5 -67.5q-47 0 -86.5 22t-67.5 62.5t-49.5 84.5t-37.5 102.5t-25 100.5t-19 93q-3 15 -4 22l-45 -12l-74 -346q-14 -66 -62 -97.5t-110 -31.5q-55 0 -86 20l166 793q9 51 -20 51
q-13 0 -41 -25q-23 13 -25.5 50t25.5 63q125 98 229 98q121 0 98 -112l-75 -353l18 6q77 24 163.5 151.5t121.5 285.5q45 22 98 22q50 0 78 -27.5t28 -68.5q0 -86 -90.5 -202t-195.5 -187q8 -35 11.5 -50.5t14 -56t18.5 -63t21 -58t26 -56.5t29 -43t35 -32t39 -10z" />
    <glyph glyph-name="afii10077.end" horiz-adv-x="1107" 
d="M313 221q-66 -115 -137.5 -175t-132.5 -62q-65 -2 -105 58.5t-40 170.5q0 127 143 127q41 0 84 -29q-35 -74 -35 -159q37 23 64 47.5t63.5 75.5t69 122.5t73 189t82.5 273.5q-188 -27 -243 -90q-43 49 -43 104q0 89 65 133t162 44q37 0 87 -1.5t116.5 -5.5t128 -11.5
t113.5 -18t82 -26.5t26 -36l-131 -622q-15 -78 -1.5 -114t46.5 -36q31 0 62 24t53 75q29 0 45 -15t16 -41q0 -67 -47.5 -124t-111.5 -86t-124 -29q-38 0 -68 5.5t-57.5 19t-45 38t-27.5 60t-8 88t16 118.5l121 568q-64 -3 -127 -9q-107 -432 -234 -651z" />
    <glyph glyph-name="afii10079.end" horiz-adv-x="1021" 
d="M862 1008l-143 -678q-15 -78 -1.5 -114t46.5 -36q31 0 62 24t53 75q29 0 45 -15t16 -41q0 -67 -47.5 -124t-111.5 -86t-124 -29q-34 0 -63.5 8t-60.5 29t-47 57t-23 92t12 135l41 199q-136 -43 -260 -49l-74 -342q-14 -66 -59.5 -97.5t-106.5 -31.5q-55 0 -96 26l170 787
q9 51 -20 51q-13 0 -41 -25q-23 13 -25.5 50t25.5 63q125 98 229 98q121 0 98 -112l-71 -328q124 3 254 16l63 295q14 66 58.5 97.5t105.5 31.5q55 0 96 -26z" />
    <glyph glyph-name="afii10090.end" horiz-adv-x="1548" 
d="M-6 377l96 420q6 24 0 37.5t-20 13.5q-13 0 -41 -25q-23 13 -25.5 50t25.5 63q125 98 229 98q121 0 98 -112l-125 -582q-26 -121 70 -121q99 0 188 107l123 579q14 66 62 97.5t110 31.5q56 0 97 -26l-142 -668q-26 -121 70 -121q99 0 188 107l123 579q14 66 62 97.5
t110 31.5q56 0 97 -26l-144 -678q-15 -78 -1.5 -114t46.5 -36q31 0 62 24t53 75q29 0 45 -15t16 -41q0 -67 -47 -124t-111 -86t-124 -29q-40 0 -73.5 11.5t-62.5 36.5t-44 71.5t-11 111.5q-142 -231 -299 -231q-108 0 -157 64t-52 165q-143 -229 -299 -229q-65 0 -110 26.5
t-66 67t-28.5 95t-3.5 104t16 100.5z" />
    <glyph glyph-name="afii10096.end" horiz-adv-x="1482" 
d="M1511 936q27 -26 25.5 -59.5t-25.5 -53.5q-5 -4 -86 -83t-131 -111q2 -8 2 -23q0 -114 -49 -229t-125.5 -200t-173 -139t-186.5 -54q-77 0 -136 29t-94 80t-53 115t-18 138q0 91 20 172q-96 -57 -225 -63l-74 -342q-14 -66 -59.5 -97.5t-106.5 -31.5q-55 0 -96 26
l170 787q9 51 -20 51q-13 0 -41 -25q-23 13 -25.5 50t25.5 63q125 98 229 98q121 0 98 -112l-71 -332q136 0 229 39q66 178 190.5 295.5t280.5 117.5q82 0 142 -27t104 -93q-3 -34 -24.5 -50.5t-45.5 -7.5q-64 23 -131 23t-126 -46t-97.5 -116.5t-61 -153.5t-22.5 -159
q0 -127 37 -188.5t96 -61.5q82 0 159 102t77 234q0 31 -11 84q-60 3 -94 24q-34 85 -0.5 150t119.5 65q109 0 162 -94q47 29 131.5 108t111.5 101z" />
    <glyph glyph-name="afii10068.end" horiz-adv-x="661" 
d="M229 -16q-157 0 -247.5 81.5t-90.5 198.5q0 69 25 125.5t64.5 93t87.5 67t95.5 55.5t87 51t64.5 60.5t25 76.5q0 54 -30.5 80t-78.5 26t-104 -27t-94 -63q-35 15 -35 55q0 27 14 41q83 73 159.5 108.5t164.5 35.5q110 0 174.5 -66t64.5 -166q0 -71 -24 -129t-63 -97
t-85.5 -72t-93 -60.5t-85.5 -55t-63 -63.5t-24 -78q0 -43 37.5 -70.5t106.5 -27.5q73 0 142.5 31t94.5 84q29 0 45.5 -15t16.5 -41q0 -85 -111.5 -162t-239.5 -77z" />
    <glyph glyph-name="afii10089.end" horiz-adv-x="1009" 
d="M852 1008l-143 -678q-15 -78 -1.5 -114t46.5 -36q31 0 61.5 23.5t52.5 75.5q29 0 45.5 -15t16.5 -41q0 -67 -47.5 -124t-111.5 -86t-124 -29q-34 0 -63.5 8t-60.5 29t-47 57t-23 92t12 135l33 158q-118 -121 -244 -121q-266 0 -186 352l22 103q9 51 -20 51q-13 0 -41 -25
q-23 13 -25.5 50t25.5 63q125 98 229 98q121 0 98 -112l-57 -265q-26 -120 70 -120q86 0 153 45l70 323q14 66 58.5 97.5t105.5 31.5q55 0 96 -26z" />
    <glyph glyph-name="afii10067.end" horiz-adv-x="927" 
d="M956 936q27 -26 25.5 -59.5t-25.5 -53.5q-15 -13 -73 -71t-95 -88q16 -46 13 -99q-12 -150 -99 -285.5t-214.5 -215.5t-254.5 -80q-118 0 -181 94t-52 299q6 135 33.5 279.5t79 289.5t120.5 259t167.5 185.5t209.5 71.5q95 0 146 -50.5t47 -147.5q-3 -48 -30.5 -110
t-65.5 -122t-118.5 -161t-149 -181t-197.5 -229q-4 -36 -4 -51q-13 -256 118 -256q50 0 91.5 31t66 78.5t42 105t19 111t-3.5 95.5q-51 -3 -79 11q-29 79 7 136.5t122 57.5q66 0 114 -39q41 28 115 98.5t106 96.5zM604 1335q-52 0 -106 -69t-98 -178.5t-79 -232t-57 -243.5
q199 250 291.5 400t97.5 229q2 48 -8.5 71t-40.5 23z" />
    <glyph glyph-name="afii10094.end" horiz-adv-x="821" 
d="M850 936q27 -26 25.5 -59.5t-25.5 -53.5q-20 -17 -89.5 -90t-111.5 -112q45 -57 45 -142q0 -55 -23 -120.5t-68.5 -131.5t-105.5 -120.5t-141.5 -88.5t-169.5 -34q-65 0 -110 26.5t-66 67t-28.5 95t-3.5 104t16 100.5l96 420q6 24 0 37.5t-20 13.5q-13 0 -41 -25
q-23 13 -25.5 50t25.5 63q125 98 229 98q58 0 84.5 -27.5t13.5 -84.5l-125 -582q-21 -94 1.5 -145.5t68.5 -51.5q64 0 122 87.5t58 230.5q0 15 -4 47q-81 -13 -135 12q-34 76 -0.5 135.5t119.5 59.5q57 0 114 -31q47 39 140.5 129t134.5 123z" />
    <glyph glyph-name="afii10093.end" horiz-adv-x="1310" 
d="M-6 377l96 420q6 24 0 37.5t-20 13.5q-13 0 -41 -25q-23 13 -25.5 50t25.5 63q125 98 229 98q121 0 98 -112l-125 -582q-19 -90 3 -138t67 -48q26 0 55 17.5t59 59t39.5 111t-3.5 174.5q-50 -3 -109 4q-34 76 -0.5 135.5t119.5 59.5q57 0 110 -35q180 96 353 303
q14 18 49 34.5t82 16.5q55 0 96 -26l-143 -678q-15 -61 -9.5 -94.5t18.5 -44.5t36 -11q31 0 61.5 23.5t52.5 75.5q29 0 45.5 -15t16.5 -41q0 -67 -47.5 -124t-111.5 -86t-124 -29q-33 0 -64.5 7.5t-63 24.5t-51.5 45t-29.5 69t3.5 97l119 566q-107 -116 -219 -187
q33 -58 33 -127q0 -70 -17.5 -138t-56 -133t-94.5 -114.5t-138.5 -79.5t-181.5 -30q-65 0 -110 26.5t-66 67t-28.5 95t-3.5 104t16 100.5z" />
    <glyph glyph-name="afii10078.end" horiz-adv-x="1523" 
d="M698 1018l27 -696l317 577q41 75 80 105t95 30q54 0 98 -26l-94 -678q-20 -150 45 -150q31 0 61.5 23.5t52.5 75.5q29 0 45.5 -15t16.5 -41q0 -67 -47.5 -124t-111.5 -86t-124 -29q-28 0 -52.5 5.5t-51 19t-45 36.5t-33 58.5t-15.5 85.5t7 116l53 350l-346 -663
q-75 -20 -122 4.5t-50 93.5l-15 572q-83 -284 -176 -441q-66 -115 -137.5 -175t-132.5 -62q-65 -2 -105 58.5t-40 170.5q0 127 143 127q41 0 84 -29q-35 -74 -35 -159q37 23 64 47.5t64 76.5t70 125t74 193t84 280q-161 -22 -235 -104q-43 49 -43 104q0 89 65 133t162 44
q175 0 303 -33z" />
    <glyph glyph-name="afii10073.end" horiz-adv-x="737" 
d="M707 -66q-103 21 -228 5q-30 -129 -78.5 -263t-97.5 -217q-149 -247 -387 -247q-101 0 -171.5 65t-70.5 186q0 72 35 142.5t91.5 128t133.5 111t156.5 93t165.5 72.5q16 82 16 133q0 86 -50 139.5t-138 53.5q-8 49 16 84t70 35q95 0 169.5 97t74.5 198q0 71 -37.5 108
t-97.5 37q-39 0 -82 -16q-4 -12 -4 -41q0 -65 32 -133q-33 -29 -82 -29q-54 0 -88.5 41t-34.5 100q0 42 20 81.5t60 74t110.5 55.5t162.5 21q128 0 205 -72.5t77 -177.5q0 -150 -91 -258.5t-247 -151.5q91 -29 141 -97t50 -159q0 -17 -4 -49q64 12 108 12q61 0 88.5 -50
t6.5 -112zM-102 -606q114 0 200 147q67 118 125 328q-174 -68 -291.5 -173.5t-117.5 -205.5q0 -48 28.5 -72t55.5 -24z" />
    <glyph glyph-name="afii10075.end" horiz-adv-x="1040" 
d="M-6 377l96 420q6 24 0 37.5t-20 13.5q-13 0 -41 -25q-23 13 -25.5 50t25.5 63q125 98 229 98q121 0 98 -112l-125 -582q-26 -121 70 -121q99 0 188 107l123 579q14 66 62 97.5t110 31.5q56 0 97 -26l-144 -678q-15 -78 -1.5 -114t46.5 -36q31 0 62 24t53 75q29 0 45 -15
t16 -41q0 -67 -47 -124t-111 -86t-124 -29q-40 0 -73.5 11.5t-62.5 36.5t-44 71.5t-11 111.5q-142 -231 -299 -231q-65 0 -110 26.5t-66 67t-28.5 95t-3.5 104t16 100.5zM877 1401q-11 -115 -122.5 -205t-269.5 -90q-101 0 -155 59t-54 140q0 72 46 123t127 51q43 0 81 -21
q-14 -25 -14 -61q0 -44 26.5 -68t67.5 -24q55 0 109.5 42.5t83.5 122.5q32 5 56 -13t18 -56z" />
    <glyph glyph-name="afii10097.end" horiz-adv-x="1056" 
d="M831 700l-77 -370q-15 -78 -1.5 -114t46.5 -36q31 0 61.5 23.5t52.5 75.5q29 0 45.5 -15t16.5 -41q0 -67 -47.5 -124t-111.5 -86t-124 -29q-28 0 -53.5 5.5t-53.5 19t-47 37t-34 59t-14.5 85t12.5 115.5l24 115h-96q-34 -73 -71 -138t-88.5 -137t-110.5 -116t-115 -45
q-65 -2 -105 58.5t-40 170.5q0 127 143 127q40 0 84 -29q-35 -76 -35 -161q43 25 75 52t73.5 85.5t81.5 144.5q-95 25 -145 94.5t-50 161.5q0 90 39 160.5t102.5 112t136 62.5t148.5 21q72 0 129 -19.5t99 -61t54.5 -106.5t-4.5 -157zM362 688q-2 -66 24.5 -111t76.5 -45h86
l51 236q17 79 -4 117.5t-64 38.5q-76 0 -122 -73t-48 -163z" />
    <glyph glyph-name="afii10094_" horiz-adv-x="837" 
d="M-6 377l96 420q9 51 -20 51q-13 0 -41 -25q-23 13 -25.5 50t25.5 63q125 98 229 98q121 0 98 -112l-125 -582q-19 -90 3.5 -143.5t66.5 -53.5q64 0 122 87.5t58 230.5q0 21 -4 53q-76 -9 -135 6q-34 76 -0.5 135.5t119.5 59.5q93 0 162 -66q151 32 354 168q19 -11 17 -47
t-27 -55q-50 -40 -128.5 -86t-158.5 -70q14 -44 14 -80q0 -55 -23 -120.5t-68.5 -131.5t-105.5 -120.5t-141.5 -88.5t-169.5 -34q-65 0 -110 26.5t-66 67t-28.5 95t-3.5 104t16 100.5z" />
    <glyph glyph-name="o_" horiz-adv-x="950" 
d="M-25 346q0 93 24.5 191t72 187.5t110 161t145.5 114t173 42.5q82 0 141.5 -27t103.5 -93q-3 -34 -24 -50.5t-45 -7.5q-64 23 -131 23t-126 -46t-97.5 -116.5t-61 -153.5t-22.5 -159q0 -127 37 -188.5t96 -61.5q45 0 93 34.5t83.5 92.5t51 134t-2.5 159q-60 3 -94 24
q-34 85 -0.5 150t119.5 65q60 0 106 -32t68 -89q150 34 350 168q20 -11 17.5 -46.5t-27.5 -55.5q-36 -27 -78 -54.5t-113.5 -62.5t-132.5 -47q-4 -113 -54.5 -226.5t-125.5 -199t-170 -139t-185 -53.5q-77 0 -136 29t-94 80t-53 115t-18 138z" />
    <glyph glyph-name="afii10067_" horiz-adv-x="919" 
d="M1075 766q-142 -110 -274 -152v-49q-12 -150 -99 -285.5t-214.5 -215.5t-254.5 -80q-118 0 -181 94t-52 299q6 135 33.5 279.5t79 289.5t120.5 259t167.5 185.5t209.5 71.5q95 0 146 -50.5t47 -147.5q-3 -48 -30.5 -110t-65.5 -122t-118.5 -161t-149 -181t-197.5 -229
q-4 -36 -4 -51q-13 -256 118 -256q50 0 91.5 31t66 78.5t42 105t19 111t-3.5 95.5q-51 -3 -79 11q-29 79 7 136.5t122 57.5q93 0 145 -71q149 42 319 159q20 -13 17.5 -47.5t-27.5 -54.5zM604 1335q-52 0 -106 -69t-98 -178.5t-79 -232t-57 -243.5q199 250 291.5 400
t97.5 229q2 48 -8.5 71t-40.5 23z" />
    <glyph glyph-name="afii10080_" horiz-adv-x="950" 
d="M-25 346q0 93 24.5 191t72 187.5t110 161t145.5 114t173 42.5q82 0 141.5 -27t103.5 -93q-3 -34 -24 -50.5t-45 -7.5q-64 23 -131 23t-126 -46t-97.5 -116.5t-61 -153.5t-22.5 -159q0 -127 37 -188.5t96 -61.5q45 0 93 34.5t83.5 92.5t51 134t-2.5 159q-60 3 -94 24
q-34 85 -0.5 150t119.5 65q60 0 106 -32t68 -89q150 34 350 168q20 -11 17.5 -46.5t-27.5 -55.5q-36 -27 -78 -54.5t-113.5 -62.5t-132.5 -47q-4 -113 -54.5 -226.5t-125.5 -199t-170 -139t-185 -53.5q-77 0 -136 29t-94 80t-53 115t-18 138z" />
    <glyph glyph-name="afii10096_" horiz-adv-x="1441" 
d="M461 346q0 91 20 172q-96 -57 -225 -63l-74 -342q-14 -66 -59.5 -97.5t-106.5 -31.5q-55 0 -96 26l170 787q9 51 -20 51q-13 0 -41 -25q-23 13 -25.5 50t25.5 63q125 98 229 98q121 0 98 -112l-71 -332q136 0 229 39q66 178 190.5 295.5t280.5 117.5q82 0 142 -27
t104 -93q-3 -34 -24.5 -50.5t-45.5 -7.5q-64 23 -131 23t-126 -46t-97.5 -116.5t-61 -153.5t-22.5 -159q0 -127 37 -188.5t96 -61.5q45 0 93 34.5t83.5 92.5t51 134t-2.5 159q-60 3 -94 24q-34 85 -0.5 150t119.5 65q60 0 106 -32t68 -89q150 34 350 168q20 -11 17.5 -46.5
t-27.5 -55.5q-36 -27 -78 -54.5t-113.5 -62.5t-132.5 -47q-4 -113 -54.5 -226.5t-125.5 -199t-169.5 -139t-184.5 -53.5q-77 0 -136 29t-94 80t-53 115t-18 138z" />
    <glyph glyph-name="afii10071.end" horiz-adv-x="804" 
d="M297 -16q-150 0 -236 87.5t-86 278.5q0 82 20.5 174t63.5 184.5t102.5 166.5t145 120.5t182.5 46.5q67 0 114.5 -17t72.5 -47t36 -62t11 -70q0 -69 -21 -126.5t-74 -122t-149.5 -134t-242.5 -150.5q14 -75 61.5 -113t116.5 -38q135 0 190 117q29 0 45.5 -15t16.5 -41
q0 -85 -117.5 -162t-251.5 -77zM504 883q-58 0 -106 -37t-77.5 -91.5t-50.5 -122.5t-30 -125.5t-11 -105.5q155 98 244.5 202t89.5 200q0 35 -16.5 57.5t-42.5 22.5zM240 1315q0 54 36.5 90.5t90.5 36.5t90.5 -36.5t36.5 -90.5t-36.5 -90.5t-90.5 -36.5t-90.5 36.5
t-36.5 90.5zM643 1315q0 54 37 90.5t90 36.5q54 0 90.5 -36.5t36.5 -90.5t-36.5 -90.5t-90.5 -36.5q-53 0 -90 36.5t-37 90.5z" />
    <glyph glyph-name="A.end" horiz-adv-x="1398" 
d="M862 274l60 285h-230q-133 -307 -258 -441t-262 -134q-79 0 -127.5 73.5t-48.5 206.5q0 154 174 154q58 0 102 -35q-43 -98 -43 -211v-18q53 20 103.5 63.5t115.5 138t131.5 234t148.5 363t169 513.5h-41q-129 0 -191.5 -59t-62.5 -141q0 -71 41 -119q-47 -21 -88 -21
q-75 0 -120.5 57.5t-45.5 137.5q0 51 19.5 98t59 88t107 65.5t154.5 24.5q86 0 196.5 -13.5t183.5 -26t163 -16.5t135 15q29 -17 29 -53q0 -32 -19.5 -56t-52.5 -24h-8l-234 -1093q-33 -150 56 -150q36 0 72.5 24t62.5 75q29 0 45 -15t16 -41q0 -67 -50.5 -124t-119.5 -86
t-133 -29q-31 0 -58.5 4.5t-57.5 16.5t-50 33t-36.5 53t-16.5 77.5t10 105.5zM1110 1448q-74 8 -113 12q-134 -470 -256 -782h205z" />
    <glyph glyph-name="C.end" 
d="M514 -16q-117 0 -207.5 48.5t-145.5 133t-82.5 190t-27.5 226.5q0 193 54.5 375.5t145.5 318.5t218 218.5t264 82.5q72 0 128 -23t89.5 -60.5t50.5 -82.5t17 -94q0 -85 -46.5 -147t-119.5 -62q-32 0 -68.5 21.5t-52.5 60.5q45 18 70 60t24 83.5t-32 73t-88 31.5
q-87 0 -172 -117t-139 -309.5t-54 -395.5q0 -94 16.5 -172t50 -139.5t90.5 -96t132 -34.5q193 0 274 166q29 0 45.5 -14.5t16.5 -40.5q0 -70 -66 -140.5t-172 -115.5t-213 -45z" />
    <glyph glyph-name="E.end" 
d="M748 1462q-113 0 -179.5 -89.5t-66.5 -209.5q0 -104 53.5 -186t155.5 -107q6 -42 -21 -77q-97 -7 -170.5 -64.5t-109 -137t-35.5 -165.5q0 -111 62 -186.5t181 -75.5q91 0 167 48.5t118 135.5q29 0 45.5 -14.5t16.5 -40.5q0 -71 -67 -142.5t-183 -119t-242 -47.5
q-97 0 -173 33t-121.5 90t-69 128.5t-23.5 153.5q0 155 96.5 290.5t261.5 186.5q-82 54 -122.5 133t-40.5 170q0 76 30 148.5t84 130.5t139 93.5t187 35.5q167 0 250.5 -73t83.5 -181q0 -89 -47 -152t-121 -63q-30 0 -66.5 21.5t-52.5 60.5q45 13 72.5 57t27.5 94
q0 51 -30.5 86t-89.5 35z" />
    <glyph glyph-name="M.end" horiz-adv-x="1943" 
d="M885 1466q-129 0 -191.5 -59t-62.5 -141q0 -71 41 -119q-46 -21 -88 -21q-75 0 -120.5 57.5t-45.5 137.5q0 51 19.5 98t59 88t107 65.5t154.5 24.5q55 0 127 -13.5t120 -25.5t104.5 -16t80.5 14q29 -17 29 -53q0 -32 -19.5 -56t-52.5 -24h-2l-74 -1089l475 1071
q53 131 176 131q71 0 113 -27l-168 -1179q-11 -84 0.5 -117t54.5 -33q37 0 73.5 24t62.5 75q29 0 45 -15t16 -41q0 -67 -50.5 -124t-119.5 -86t-133 -29q-31 0 -58.5 4.5t-57.5 16.5t-50 33t-36.5 53t-16.5 77.5t10 105.5l133 877l-446 -1047q-26 -67 -69 -93.5t-105 -26.5
q-58 0 -99 26l74 908l10 239q-136 -435 -260 -696t-236.5 -369t-238.5 -108q-79 0 -127.5 73.5t-48.5 206.5q0 154 174 154q58 0 102 -35q-43 -98 -43 -211v-18q53 20 103.5 63.5t115.5 138t131.5 234t148.5 363t169 513.5h-10z" />
    <glyph glyph-name="X.end" horiz-adv-x="1269" 
d="M1038 262q14 -84 68 -84q73 0 123 101q29 0 45 -15t16 -41q0 -67 -50.5 -124t-119.5 -86t-133 -29q-77 0 -133.5 47.5t-75.5 140.5l-73 344q-145 -256 -288 -394t-261 -138q-79 0 -127.5 73.5t-48.5 206.5q0 154 174 154q58 0 102 -35q-43 -98 -43 -211v-16
q91 42 210 174.5t245 361.5l-164 772q-110 -10 -162.5 -66.5t-52.5 -131.5q0 -71 41 -119q-47 -21 -88 -21q-75 0 -120.5 57.5t-45.5 137.5q0 51 19.5 98t59 88t107 65.5t154.5 24.5q55 0 127 -13.5t120 -25.5t104.5 -16t80.5 14q29 -17 29 -53q0 -32 -19.5 -56t-52.5 -24
h-6l104 -505q101 139 147 308t31 339q73 53 136 53q34 0 59 -12.5t36.5 -32t16 -37.5t4.5 -35q0 -110 -31 -210.5t-91 -188.5t-126 -158.5t-157 -148.5z" />
    <glyph glyph-name="afii10017.end" horiz-adv-x="1398" 
d="M862 274l60 285h-230q-133 -307 -258 -441t-262 -134q-79 0 -127.5 73.5t-48.5 206.5q0 154 174 154q58 0 102 -35q-43 -98 -43 -211v-18q53 20 103.5 63.5t115.5 138t131.5 234t148.5 363t169 513.5h-41q-129 0 -191.5 -59t-62.5 -141q0 -71 41 -119q-47 -21 -88 -21
q-75 0 -120.5 57.5t-45.5 137.5q0 51 19.5 98t59 88t107 65.5t154.5 24.5q86 0 196.5 -13.5t183.5 -26t163 -16.5t135 15q29 -17 29 -53q0 -32 -19.5 -56t-52.5 -24h-8l-234 -1093q-33 -150 56 -150q36 0 72.5 24t62.5 75q29 0 45 -15t16 -41q0 -67 -50.5 -124t-119.5 -86
t-133 -29q-31 0 -58.5 4.5t-57.5 16.5t-50 33t-36.5 53t-16.5 77.5t10 105.5zM1110 1448q-74 8 -113 12q-134 -470 -256 -782h205z" />
    <glyph glyph-name="afii10022.end" 
d="M748 1462q-113 0 -179.5 -89.5t-66.5 -209.5q0 -104 53.5 -186t155.5 -107q6 -42 -21 -77q-97 -7 -170.5 -64.5t-109 -137t-35.5 -165.5q0 -111 62 -186.5t181 -75.5q91 0 167 48.5t118 135.5q29 0 45.5 -14.5t16.5 -40.5q0 -71 -67 -142.5t-183 -119t-242 -47.5
q-97 0 -173 33t-121.5 90t-69 128.5t-23.5 153.5q0 155 96.5 290.5t261.5 186.5q-82 54 -122.5 133t-40.5 170q0 76 30 148.5t84 130.5t139 93.5t187 35.5q167 0 250.5 -73t83.5 -181q0 -89 -47 -152t-121 -63q-30 0 -66.5 21.5t-52.5 60.5q45 13 72.5 57t27.5 94
q0 51 -30.5 86t-89.5 35z" />
    <glyph glyph-name="afii10026.end" horiz-adv-x="1437" 
d="M901 274l172 799l-575 -958q-39 -70 -79.5 -100.5t-96.5 -30.5q-58 0 -99 26l309 1456q-129 0 -191 -59t-62 -141q0 -73 40 -119q-47 -21 -88 -21q-75 0 -120 57.5t-45 137.5q0 51 19.5 98t59 88t107 65.5t154.5 24.5q55 0 127 -13.5t120 -25.5t104.5 -16t80.5 14
q28 -17 28 -53q0 -32 -19 -56t-52 -24h-23l-215 -995l584 977q37 69 78.5 100t97.5 31t98 -27l-254 -1179q-33 -150 56 -150q85 0 135 99q29 0 45 -15t16 -41q0 -67 -50.5 -124t-119.5 -86t-133 -29q-31 0 -58.5 4.5t-57.5 16.5t-50 33t-36.5 53t-16.5 77.5t10 105.5z" />
    <glyph glyph-name="afii10027.end" horiz-adv-x="1437" 
d="M901 274l172 799l-575 -958q-39 -70 -79.5 -100.5t-96.5 -30.5q-58 0 -99 26l309 1456q-129 0 -191 -59t-62 -141q0 -73 40 -119q-47 -21 -88 -21q-75 0 -120 57.5t-45 137.5q0 51 19.5 98t59 88t107 65.5t154.5 24.5q55 0 127 -13.5t120 -25.5t104.5 -16t80.5 14
q28 -17 28 -53q0 -32 -19 -56t-52 -24h-23l-215 -995l584 977q37 69 78.5 100t97.5 31t98 -27l-254 -1179q-33 -150 56 -150q85 0 135 99q29 0 45 -15t16 -41q0 -67 -50.5 -124t-119.5 -86t-133 -29q-31 0 -58.5 4.5t-57.5 16.5t-50 33t-36.5 53t-16.5 77.5t10 105.5z
M1358 1872q-11 -115 -122.5 -205t-268.5 -90q-101 0 -155 59t-54 140q0 72 45.5 123t126.5 51q44 0 82 -21q-15 -27 -15 -61q0 -44 26.5 -68t68.5 -24q55 0 109 43t83 123q31 5 55.5 -13.5t18.5 -56.5z" />
    <glyph glyph-name="afii10029.end" horiz-adv-x="1406" 
d="M870 274l248 1174q-21 2 -68.5 7t-72.5 7q-160 -554 -300 -882t-264 -462t-263 -134q-79 0 -128 73.5t-49 206.5q0 154 174 154q59 0 103 -35q-43 -98 -43 -211v-18q53 20 103 63.5t115.5 138t131.5 234t148 363t169 513.5h-18q-117 -1 -179.5 -61t-62.5 -160
q0 -59 29 -106q-71 -17 -120.5 -11t-80 34t-44 63.5t-13.5 77.5q0 83 27 141t77 88.5t108 43.5t132 13q86 0 200 -12t188.5 -23t163.5 -13.5t126 15.5q29 -17 29 -53q0 -32 -19.5 -56t-52.5 -24l-234 -1093q-33 -150 56 -150q36 0 72.5 24t62.5 75q29 0 45 -15t16 -41
q0 -67 -50.5 -124t-119.5 -86t-133 -29q-31 0 -58.5 4.5t-57.5 16.5t-50 33t-36.5 53t-16.5 77.5t10 105.5z" />
    <glyph glyph-name="afii10030.end" horiz-adv-x="1943" 
d="M885 1466q-129 0 -191.5 -59t-62.5 -141q0 -71 41 -119q-46 -21 -88 -21q-75 0 -120.5 57.5t-45.5 137.5q0 51 19.5 98t59 88t107 65.5t154.5 24.5q55 0 127 -13.5t120 -25.5t104.5 -16t80.5 14q29 -17 29 -53q0 -32 -19.5 -56t-52.5 -24h-2l-74 -1089l475 1071
q53 131 176 131q71 0 113 -27l-168 -1179q-11 -84 0.5 -117t54.5 -33q37 0 73.5 24t62.5 75q29 0 45 -15t16 -41q0 -67 -50.5 -124t-119.5 -86t-133 -29q-31 0 -58.5 4.5t-57.5 16.5t-50 33t-36.5 53t-16.5 77.5t10 105.5l133 877l-446 -1047q-26 -67 -69 -93.5t-105 -26.5
q-58 0 -99 26l74 908l10 239q-136 -435 -260 -696t-236.5 -369t-238.5 -108q-79 0 -127.5 73.5t-48.5 206.5q0 154 174 154q58 0 102 -35q-43 -98 -43 -211v-18q53 20 103.5 63.5t115.5 138t131.5 234t148.5 363t169 513.5h-10z" />
    <glyph glyph-name="afii10031.end" horiz-adv-x="1396" 
d="M840 274l110 521q-143 -50 -319 -54l-133 -626q-14 -67 -63 -99t-113 -32q-72 0 -109 26l330 1456h-11q-129 0 -191 -59t-62 -141q0 -73 40 -119q-47 -21 -88 -21q-75 0 -120 57.5t-45 137.5q0 51 19.5 98t59 88t107 65.5t154.5 24.5q55 0 127 -13.5t120 -25.5t104.5 -16
t80.5 14q28 -17 28 -53q0 -32 -19 -56t-52 -24h-19l-117 -542q136 0 312 16l108 508q14 67 63 99t113 32q57 0 99 -27l-254 -1179q-17 -80 -3.5 -115t58.5 -35q85 0 135 99q29 0 45.5 -15t16.5 -41q0 -67 -50.5 -124t-119.5 -86t-133 -29q-31 0 -58.5 4.5t-57.5 16.5t-50 33
t-36.5 53t-16.5 77.5t10 105.5z" />
    <glyph glyph-name="afii10033.end" horiz-adv-x="1396" 
d="M840 274l223 1049q-199 43 -295 57l-270 -1265q-14 -67 -63 -99t-113 -32q-72 0 -109 26l311 1379q-99 -22 -166 -100t-67 -199q0 -62 28 -107q-71 -17 -120.5 -11t-80 34t-44 63.5t-13.5 77.5q0 77 28.5 140t78 104t109 71.5t128.5 46.5t129.5 23.5t118.5 7.5
q54 0 248 -12t252 -12q160 0 242 59q47 -18 65 -63.5t6.5 -93t-54 -86t-105.5 -42.5l-207 -960q-17 -80 -3.5 -115t58.5 -35q85 0 135 99q29 0 45.5 -15t16.5 -41q0 -67 -50.5 -124t-119.5 -86t-133 -29q-31 0 -58.5 4.5t-57.5 16.5t-50 33t-36.5 53t-16.5 77.5t10 105.5z
" />
    <glyph glyph-name="afii10035.end" 
d="M514 -16q-117 0 -207.5 48.5t-145.5 133t-82.5 190t-27.5 226.5q0 193 54.5 375.5t145.5 318.5t218 218.5t264 82.5q72 0 128 -23t89.5 -60.5t50.5 -82.5t17 -94q0 -85 -46.5 -147t-119.5 -62q-32 0 -68.5 21.5t-52.5 60.5q45 18 70 60t24 83.5t-32 73t-88 31.5
q-87 0 -172 -117t-139 -309.5t-54 -395.5q0 -94 16.5 -172t50 -139.5t90.5 -96t132 -34.5q193 0 274 166q29 0 45.5 -14.5t16.5 -40.5q0 -70 -66 -140.5t-172 -115.5t-213 -45z" />
    <glyph glyph-name="afii10036.end" horiz-adv-x="1871" 
d="M1212 274l228 1067q-23 2 -264 33l-269 -1259q-14 -67 -63 -99t-113 -32q-71 0 -108 26l315 1393q-195 22 -266 27l-281 -1315q-14 -67 -63 -99t-113 -32q-72 0 -109 26l322 1420q-102 -20 -172 -99.5t-70 -202.5q0 -59 29 -106q-71 -17 -120.5 -11t-80 34t-44 63.5
t-13.5 77.5q0 77 28.5 140t78 104t109 71.5t128.5 46.5t129.5 23.5t118.5 7.5q109 0 473 -12.5t477 -12.5q159 0 242 60q58 -22 72.5 -82t-20 -119t-103.5 -78l-217 -1005q-17 -80 -3.5 -115t58.5 -35q36 0 72.5 24t62.5 75q29 0 45 -15t16 -41q0 -67 -50.5 -124t-119.5 -86
t-133 -29q-31 0 -58.5 4.5t-57.5 16.5t-50 33t-36.5 53t-16.5 77.5t10 105.5z" />
    <glyph glyph-name="afii10039.end" horiz-adv-x="1269" 
d="M1038 262q14 -84 68 -84q73 0 123 101q29 0 45 -15t16 -41q0 -67 -50.5 -124t-119.5 -86t-133 -29q-77 0 -133.5 47.5t-75.5 140.5l-73 344q-145 -256 -288 -394t-261 -138q-79 0 -127.5 73.5t-48.5 206.5q0 154 174 154q58 0 102 -35q-43 -98 -43 -211v-16
q91 42 210 174.5t245 361.5l-164 772q-110 -10 -162.5 -66.5t-52.5 -131.5q0 -71 41 -119q-47 -21 -88 -21q-75 0 -120.5 57.5t-45.5 137.5q0 51 19.5 98t59 88t107 65.5t154.5 24.5q55 0 127 -13.5t120 -25.5t104.5 -16t80.5 14q29 -17 29 -53q0 -32 -19.5 -56t-52.5 -24
h-6l104 -505q101 139 147 308t31 339q73 53 136 53q34 0 59 -12.5t36.5 -32t16 -37.5t4.5 -35q0 -110 -31 -210.5t-91 -188.5t-126 -158.5t-157 -148.5z" />
    <glyph glyph-name="afii10041.end" horiz-adv-x="1378" 
d="M842 274l106 449q-137 -94 -254 -94q-175 0 -222.5 112t11.5 330l99 393q-8 2 -27 2q-129 0 -191.5 -59t-62.5 -141q0 -71 41 -119q-46 -21 -88 -21q-75 0 -120.5 57.5t-45.5 137.5q0 51 19.5 98t59 88t107 65.5t154.5 24.5q55 0 127 -13.5t120 -25.5t104.5 -16t80.5 14
q29 -17 29 -53q0 -32 -19.5 -56t-52.5 -24h-6l-94 -417q-16 -65 -18 -107.5t10 -63.5t29.5 -28.5t45.5 -7.5q88 0 191 41l141 596q16 66 64 97.5t108 31.5q62 0 96 -27l-282 -1208q-35 -150 55 -150q85 0 135 99q29 0 45.5 -15t16.5 -41q0 -67 -50.5 -124t-119.5 -86
t-133 -29q-31 0 -58.5 4.5t-57.5 16.5t-50 33t-36.5 53t-16.5 77.5t10 105.5z" />
    <glyph glyph-name="afii10045.end" horiz-adv-x="1849" 
d="M551 1466q-129 0 -191.5 -59t-62.5 -141q0 -71 41 -119q-47 -21 -88 -21q-75 0 -120.5 57.5t-45.5 137.5q0 51 19.5 98t59 88t107 65.5t154.5 24.5q55 0 127 -13.5t120 -25.5t104.5 -16t80.5 14q29 -17 29 -53q0 -32 -19.5 -56t-52.5 -24h-12l-281 -1308h2q69 0 134 29
t115 77t88 113t56.5 134t15.5 142t-30 135q-76 -15 -166 -18q-22 25 -22 66q0 49 40.5 80.5t114.5 31.5q79 0 140 -22q278 204 565 600q53 73 153 73q58 0 99 -26l-256 -1200q-17 -80 -3.5 -115t58.5 -35q36 0 72.5 24t62.5 75q29 0 45.5 -15t16.5 -41q0 -67 -50.5 -124
t-119.5 -86t-133 -29q-31 0 -58.5 4.5t-57.5 16.5t-50 33t-36.5 53t-16.5 77.5t10 105.5l209 1002q-198 -269 -416 -451q90 -87 90 -237q0 -77 -31 -161t-91.5 -162.5t-140.5 -141.5t-186.5 -101t-220.5 -38q-173 0 -293 43t-120 112q0 36 20 65t61 42q44 -38 95 -66
l276 1286h-10z" />
    <glyph glyph-name="afii10049.end" horiz-adv-x="1255" 
d="M719 274l86 410q-39 0 -109 8q-38 -102 -70.5 -181t-73 -160.5t-80 -142t-88 -115t-100 -88.5t-114 -53.5t-131.5 -19.5q-32 0 -64 18t-53 51.5t-28 75.5t14.5 96.5t71.5 107.5q76 -69 155 -77.5t157 43.5t154 171t142 299q-131 41 -194.5 126t-63.5 197q0 132 53 236
t146 169t213.5 98.5t261.5 33.5q48 0 100.5 -5t117.5 -20.5t114.5 -39.5t83.5 -67t34 -99q0 -36 -30 -68.5t-76 -42.5q-51 143 -134 195l-235 -1100q-17 -80 -3.5 -115t58.5 -35q36 0 72.5 24t62.5 75q29 0 45.5 -15t16.5 -41q0 -67 -50.5 -124t-119.5 -86t-133 -29
q-31 0 -58.5 4.5t-57.5 16.5t-50 33t-36.5 53t-16.5 77.5t10 105.5zM582 1057q0 -112 59.5 -187t183.5 -86l148 693q-171 -3 -281 -112t-110 -308z" />
    <glyph glyph-name="H.end" horiz-adv-x="1396" 
d="M840 274l110 521q-143 -50 -319 -54l-133 -626q-14 -67 -63 -99t-113 -32q-72 0 -109 26l330 1456h-11q-129 0 -191 -59t-62 -141q0 -73 40 -119q-47 -21 -88 -21q-75 0 -120 57.5t-45 137.5q0 51 19.5 98t59 88t107 65.5t154.5 24.5q55 0 127 -13.5t120 -25.5t104.5 -16
t80.5 14q28 -17 28 -53q0 -32 -19 -56t-52 -24h-19l-117 -542q136 0 312 16l108 508q14 67 63 99t113 32q57 0 99 -27l-254 -1179q-17 -80 -3.5 -115t58.5 -35q85 0 135 99q29 0 45.5 -15t16.5 -41q0 -67 -50.5 -124t-119.5 -86t-133 -29q-31 0 -58.5 4.5t-57.5 16.5t-50 33
t-36.5 53t-16.5 77.5t10 105.5z" />
    <glyph glyph-name="K_" horiz-adv-x="1257" 
d="M532 1466q-129 0 -191 -59t-62 -141q0 -73 40 -119q-47 -21 -88 -21q-75 0 -120 57.5t-45 137.5q0 51 19.5 98t59 88t107 65.5t154.5 24.5q55 0 127 -13.5t120 -25.5t104.5 -16t80.5 14q28 -17 28 -53q0 -32 -19 -56t-52 -24h-19l-133 -628l49 16q69 40 126.5 93.5
t99 116t72.5 123t55 134t38 127.5t29 123q31 16 76 16q54 0 97.5 -34.5t43.5 -88.5q0 -148 -112.5 -304t-309.5 -304q30 -191 68.5 -341.5t75 -246.5t84.5 -164.5t84 -102t87 -52t79.5 -21t74.5 -2.5q129 0 248 43q22 -4 25 -32.5t-13 -43.5q-76 -72 -178 -110.5t-203 -38.5
q-42 0 -74.5 3t-78.5 14t-83 30.5t-82.5 56t-82 86.5t-76 126t-71 170.5t-60 224t-49.5 282.5l-64 -8l-120 -571q-14 -67 -63 -99t-113 -32q-72 0 -109 26l330 1456h-11z" />
    <glyph glyph-name="L_" horiz-adv-x="714" 
d="M813 1430h-22l-203 -934q-48 -219 -158 -349q133 -113 190 -151q161 -109 320 -109q153 0 326 97q19 -5 23.5 -25t-15.5 -39q-244 -217 -443 -217q-41 0 -81 10.5t-70.5 23t-68 41.5t-58.5 46.5t-58 59.5t-50.5 59t-51.5 65.5t-47 59.5q-115 -84 -270 -84
q-80 0 -131.5 38.5t-50.5 104.5q2 72 59 129t153 57q79 0 162 -47q39 70 58 158l221 1049q-115 -3 -176.5 -63.5t-61.5 -158.5q0 -46 29 -106q-71 -16 -120.5 -10t-80 34t-44 63t-13.5 77q0 290 344 286q54 0 126.5 -12t120 -22.5t104.5 -13t81 15.5q29 -17 29 -54
q0 -32 -19.5 -55.5t-52.5 -23.5zM90 135q72 0 131 64q-57 47 -112 47q-41 0 -67 -18.5t-26 -41.5t20.5 -37t53.5 -14z" />
    <glyph glyph-name="R_" horiz-adv-x="1275" 
d="M739 1479q-123 0 -216 -30t-144 -80t-75.5 -106.5t-24.5 -117.5q0 -73 40 -119q-44 -20 -88 -20q-75 0 -120 57t-45 137q0 118 96 204.5t256 129.5t362 43q131 0 229.5 -28t156.5 -78t86 -112.5t28 -137.5q0 -142 -92 -289t-238 -234q33 -164 72.5 -293t76 -213.5
t80.5 -145t79 -91.5t80 -48t73.5 -20.5t69.5 -3.5q129 0 248 43q22 -4 25 -32.5t-13 -43.5q-76 -72 -178 -110.5t-203 -38.5q-40 0 -72 2.5t-76.5 13t-80.5 28.5t-80 51.5t-80 79.5t-75 116t-70 157.5t-60 206.5t-51 260q-20 -2 -58 -2h-28l-107 -499q-14 -67 -63 -99
t-113 -32q-71 0 -108 26l288 1276q14 65 61.5 96t108.5 31q55 0 97 -27l-144 -675q76 6 147.5 53.5t121.5 118t80 156t30 165.5q0 122 -71 198.5t-218 76.5z" />
    <glyph glyph-name="Z_" horiz-adv-x="790" 
d="M963 -297q-74 0 -145 20t-123.5 46.5t-114.5 74.5t-98 82t-95 92.5t-86 83.5q-143 -118 -301 -118q-81 0 -130.5 36t-49.5 107q0 72 58 129t155 57q75 0 160 -30q3 6 17.5 32t22.5 43l521 1033q-53 -1 -162.5 1.5t-166.5 0.5t-135.5 -23.5t-139.5 -66.5q-54 60 -54 124
q0 73 47.5 121.5t141.5 48.5q119 0 347.5 -36.5t360.5 -36.5q31 0 60.5 9.5t42.5 22.5q34 -11 34 -53q0 -32 -23.5 -61.5t-68.5 -34.5l-506 -1004q-64 -129 -147 -221q28 -18 95.5 -64t104.5 -69.5t103.5 -59.5t118.5 -54.5t122.5 -33t141.5 -14.5q153 0 326 97
q19 -5 23.5 -25t-15.5 -39q-247 -217 -442 -217zM-57 186q0 -22 19.5 -36.5t55.5 -14.5q69 0 132 82q-60 29 -115 29q-41 0 -66.5 -18.5t-25.5 -41.5z" />
    <glyph glyph-name="percent" horiz-adv-x="1585" 
d="M1090 -16q-79 0 -133 25t-82 73.5t-39 104t-11 130.5q0 82 15 166.5t50 168.5t85.5 149.5t128 106t170.5 40.5q79 0 133 -25t81.5 -73t38.5 -103.5t11 -130.5q0 -82 -15 -166.5t-50 -169t-85 -149.5t-127.5 -106t-170.5 -41zM1032 285q0 -148 88 -148q50 0 89.5 47
t62 113t37 142.5t19.5 128.5t5 79q0 150 -86 150q-50 0 -90 -46t-62.5 -111t-37.5 -141.5t-20 -130t-5 -83.5zM301 588q-79 0 -133 25.5t-81.5 73.5t-38.5 104t-11 131q0 82 15 166.5t50 168.5t85 149t127.5 105.5t170.5 40.5q79 0 133 -25t82 -72.5t39 -103t11 -130.5
q0 -82 -15 -166.5t-50 -169t-85.5 -150t-128 -106.5t-170.5 -41zM244 889q0 -148 88 -148q50 0 89.5 47t62 113t37 142.5t19.5 128.5t5 79q0 150 -86 150q-50 0 -90 -46t-62.5 -111t-37.5 -141.5t-20 -130t-5 -83.5zM1171 1389l-708 -1405q-55 0 -81 46t1 101l709 1405
q62 0 85.5 -42t-6.5 -105z" />
    <glyph glyph-name="Rub" horiz-adv-x="1292" 
d="M739 1479q-123 0 -216 -30t-144 -80t-75.5 -106.5t-24.5 -117.5q0 -73 40 -119q-44 -20 -88 -20q-75 0 -120 57t-45 137q0 118 96 204.5t256 129.5t362 43q131 0 229.5 -28t156.5 -78t86 -112.5t28 -137.5q0 -135 -50 -250t-135 -192.5t-198.5 -121t-239.5 -43.5h-30
l-33 -151h401q8 -64 -12 -100.5t-84 -36.5h-334l-43 -211q-14 -67 -63 -99t-113 -32q-71 0 -108 26l69 316h-172q-16 54 10.5 95.5t85.5 41.5h107l29 121h-177q-16 53 11 95t86 42h110l127 565q14 65 61.5 96t108.5 31q55 0 97 -27l-144 -675q163 8 272 145.5t109 347.5
q0 122 -71 198.5t-218 76.5z" />
    <glyph glyph-name="afii10079_afii10097" horiz-adv-x="1884" 
d="M-78 10l170 787q9 51 -20 51q-13 0 -41 -25q-23 13 -25.5 50t25.5 63q125 98 229 98q58 0 84.5 -27.5t13.5 -84.5l-71 -328q124 3 254 16l63 295q14 66 58.5 97.5t105.5 31.5q55 0 96 -26l-143 -678q-18 -86 6.5 -131t85.5 -45q83 0 179.5 66t178.5 212
q-93 27 -141.5 96.5t-48.5 159.5t39 160.5t102.5 112t136 62.5t148.5 21q72 0 130.5 -19.5t101.5 -61.5t55.5 -107t-8.5 -156l-78 -370q-33 -152 61 -152q54 0 113.5 30.5t101.5 72.5q35 -15 35 -50q0 -24 -18 -45q-76 -86 -173.5 -144t-181.5 -58q-28 0 -53.5 5.5t-53.5 19
t-47 37t-34 59t-14.5 85t12.5 115.5l24 115h-98q-56 -115 -129.5 -202t-152 -136.5t-154.5 -73.5t-150 -24q-125 0 -188 82.5t-31 238.5l41 199q-136 -43 -260 -49l-74 -342q-14 -66 -59.5 -97.5t-106.5 -31.5q-55 0 -96 26zM1217 688q-2 -66 24 -111t76 -45h86l51 236
q16 79 -5.5 117.5t-62.5 38.5q-76 0 -121.5 -72.5t-47.5 -163.5z" />
    <glyph glyph-name="afii10079_afii10097.end" horiz-adv-x="1908" 
d="M1354 305l24 115h-98q-56 -115 -129.5 -202t-152 -136.5t-154.5 -73.5t-150 -24q-125 0 -188 82.5t-31 238.5l41 199q-136 -43 -260 -49l-74 -342q-14 -66 -59.5 -97.5t-106.5 -31.5q-55 0 -96 26l170 787q9 51 -20 51q-13 0 -41 -25q-23 13 -25.5 50t25.5 63
q125 98 229 98q58 0 84.5 -27.5t13.5 -84.5l-71 -328q124 3 254 16l63 295q14 66 58.5 97.5t105.5 31.5q55 0 96 -26l-143 -678q-18 -86 6.5 -131t85.5 -45q83 0 179.5 66t178.5 212q-93 27 -141.5 96.5t-48.5 159.5t39 160.5t102.5 112t136 62.5t148.5 21q72 0 129 -19.5
t99 -61t54.5 -106.5t-4.5 -157l-77 -370q-15 -78 -1.5 -114t46.5 -36q31 0 61.5 23.5t52.5 75.5q29 0 45.5 -15t16.5 -41q0 -67 -47.5 -124t-111.5 -86t-124 -29q-28 0 -53.5 5.5t-53.5 19t-47 37t-34 59t-14.5 85t12.5 115.5zM1214 688q-2 -66 24.5 -111t76.5 -45h86
l51 236q16 79 -5.5 117.5t-62.5 38.5q-76 0 -122 -73t-48 -163z" />
    <glyph glyph-name="afii10066.alt" horiz-adv-x="811" 
d="M1407 1122q-100 0 -250 24.5t-280 53.5t-285.5 52t-267.5 20h2q61 -43 106.5 -79.5t103.5 -94t95.5 -113t63.5 -129.5t26 -151q0 -90 -20.5 -188.5t-62.5 -193t-99 -170.5t-136 -122.5t-167 -46.5q-77 0 -135.5 28t-93 77t-51.5 110.5t-17 134.5q0 107 38 221t102.5 209
t160.5 156t202 61q38 0 68 -6q-30 36 -73 72.5t-75.5 58t-81 52.5t-65.5 42q0 39 2 64.5t13 61t30.5 56.5t58 36.5t93.5 15.5q174 0 455.5 -35t394.5 -35q240 0 403 102q41 -35 41 -100q0 -132 -77.5 -188t-221.5 -56zM598 743q0 57 -20 115q-33 8 -91 8q-63 0 -118.5 -45.5
t-91 -116t-56 -152.5t-20.5 -157q0 -83 30.5 -134.5t90.5 -51.5q63 0 117.5 55t88 138t52 173t18.5 168z" />
    <glyph glyph-name="P.swash" horiz-adv-x="1292" 
d="M739 1479q-76 0 -162.5 -19t-177 -55.5t-173 -96t-147.5 -134.5t-103.5 -177.5t-38.5 -218.5q0 -131 65 -209q-148 -69 -245 -12.5t-97 205.5q0 123 50.5 236.5t136 201t197.5 160t237 119.5t253 72.5t246 25.5q131 0 229.5 -28t156.5 -78t86 -112.5t28 -137.5
q0 -135 -50 -250t-135 -192.5t-198.5 -121t-239.5 -43.5h-30l-105 -499q-14 -67 -63 -99t-113 -32q-71 0 -108 26l286 1276q14 65 61.5 96t108.5 31q55 0 97 -27l-144 -675q163 8 272 145.5t109 347.5q0 122 -71 198.5t-218 76.5z" />
    <glyph glyph-name="y.alt" horiz-adv-x="940" 
d="M-6 377l96 420q6 24 0 37.5t-20 13.5q-13 0 -41 -25q-23 13 -25.5 50t25.5 63q125 98 229 98q121 0 98 -112l-127 -590q-11 -51 5.5 -82t64.5 -31q81 0 158 74l133 612q14 66 62 97.5t110 31.5q55 0 96 -26l-174 -811q-36 -171 -70 -293q88 -6 298 -26.5t294 -20.5
q160 0 242 59q44 -127 -6.5 -216t-159.5 -89q-95 0 -210 25t-259.5 64.5t-241.5 57.5q-31 -94 -66.5 -170.5t-85 -148.5t-106.5 -120.5t-133 -77.5t-164 -29q-92 0 -163.5 71.5t-71.5 179.5q0 104 47 187.5t129 136.5t186.5 83t227.5 36q12 39 35 121.5t36 124.5
q-136 -166 -274 -166q-59 0 -100 23t-61 60t-27.5 89t-3 105t17.5 114zM31 -606q96 0 164 91t137 300h-41q-149 0 -246.5 -84.5t-97.5 -210.5q0 -45 26.5 -70.5t57.5 -25.5z" />
    <glyph glyph-name="afii10090.alt" horiz-adv-x="1521" 
d="M-6 377l96 420q6 24 0 37.5t-20 13.5q-13 0 -41 -25q-23 13 -25.5 50t25.5 63q125 98 229 98q121 0 98 -112l-125 -582q-26 -121 70 -121q99 0 188 107l123 579q14 66 62 97.5t110 31.5q56 0 97 -26l-142 -668q-26 -121 70 -121q99 0 188 107l123 579q14 66 62 97.5
t110 31.5q56 0 97 -26l-144 -678q-33 -152 62 -152q54 0 113.5 30.5t101.5 72.5q34 -15 34 -50q0 -24 -18 -45q-73 -89 -166 -145.5t-188 -56.5q-40 0 -73.5 11.5t-62.5 36.5t-44 71.5t-11 111.5q-142 -231 -299 -231q-108 0 -157 64t-52 165q-143 -229 -299 -229
q-65 0 -110 26.5t-66 67t-28.5 95t-3.5 104t16 100.5zM145 -332q-69 0 -102 -41q-27 35 -27 73t23 69t70.5 51t109.5 20q118 0 297 -15t309.5 -15t245.5 30q25 -38 24.5 -86t-21.5 -89t-62.5 -69t-93.5 -28q-105 0 -238.5 25t-273.5 50t-261 25z" />
    <glyph glyph-name="afii10090.001.alt" horiz-adv-x="1521" 
d="M-6 377l96 420q6 24 0 37.5t-20 13.5q-13 0 -41 -25q-23 13 -25.5 50t25.5 63q125 98 229 98q121 0 98 -112l-125 -582q-26 -121 70 -121q99 0 188 107l123 579q14 66 62 97.5t110 31.5q56 0 97 -26l-142 -668q-26 -121 70 -121q99 0 188 107l123 579q14 66 62 97.5
t110 31.5q56 0 97 -26l-144 -678q-15 -78 -1.5 -114t46.5 -36q31 0 62 24t53 75q29 0 45 -15t16 -41q0 -67 -47 -124t-111 -86t-124 -29q-40 0 -73.5 11.5t-62.5 36.5t-44 71.5t-11 111.5q-142 -231 -299 -231q-108 0 -157 64t-52 165q-143 -229 -299 -229q-65 0 -110 26.5
t-66 67t-28.5 95t-3.5 104t16 100.5zM145 -332q-69 0 -102 -41q-27 35 -27 73t23 69t70.5 51t109.5 20q118 0 297 -15t309.5 -15t245.5 30q25 -38 24.5 -86t-21.5 -89t-62.5 -69t-93.5 -28q-105 0 -238.5 25t-273.5 50t-261 25z" />
    <glyph glyph-name="afii10084.alt" horiz-adv-x="1460" 
d="M356 922l-20 -93q142 205 303 205q71 0 123.5 -55t48.5 -156q148 211 307 211q30 0 58 -8.5t57.5 -28.5t45.5 -54.5t22.5 -86t-11.5 -123.5l-100 -471q-9 -42 6.5 -63t48.5 -21q54 0 113.5 30.5t101.5 72.5q35 -15 35 -50q0 -24 -18 -45q-78 -88 -176 -145t-195 -57
q-33 0 -60.5 7t-54.5 26t-40 51.5t-17.5 83.5t12.5 122l86 408q16 50 7 85.5t-56 35.5q-91 0 -178 -94l-127 -596q-14 -66 -62 -97.5t-110 -31.5q-55 0 -96 26l143 672q15 50 6 85.5t-55 35.5q-100 0 -189 -107l-125 -583q-14 -66 -62 -97.5t-110 -31.5q-55 0 -96 26
l168 787q6 24 0 37.5t-20 13.5q-13 0 -41 -25q-23 13 -25.5 50t25.5 63q125 98 229 98q58 0 84.5 -27.5t13.5 -84.5zM406 1284q-70 0 -103 -41q-27 35 -27 73t23 69t70.5 51t109.5 20q118 0 297 -15t309.5 -15t245.5 30q25 -38 24.5 -86t-21.5 -89t-62.5 -69t-93.5 -28
q-105 0 -238.5 25t-273 50t-260.5 25z" />
    <glyph glyph-name="afii10084.001.alt" horiz-adv-x="1462" 
d="M1292 733l-86 -403q-15 -78 -1.5 -114t46.5 -36q31 0 62 24t53 75q29 0 45 -15t16 -41q0 -67 -47 -124t-111 -86t-124 -29q-28 0 -53.5 5t-54 17t-48.5 33t-35.5 53t-15.5 77t10 105l86 408q16 50 7 85.5t-56 35.5q-91 0 -178 -94l-127 -596q-14 -66 -62 -97.5
t-110 -31.5q-55 0 -96 26l143 672q15 50 6 85.5t-55 35.5q-100 0 -189 -107l-124 -583q-14 -66 -62.5 -97.5t-110.5 -31.5q-55 0 -96 26l168 787q6 24 0 37.5t-20 13.5q-13 0 -41 -25q-23 13 -25.5 50t25.5 63q125 98 229 98q58 0 84.5 -27.5t13.5 -84.5l-20 -93
q142 205 303 205q71 0 123.5 -55t48.5 -156q148 211 307 211q30 0 58 -8.5t57.5 -28.5t45.5 -54.5t22.5 -86t-11.5 -123.5zM406 1284q-70 0 -103 -41q-27 35 -27 73t23 69t70.5 51t109.5 20q118 0 297 -15t309.5 -15t245.5 30q25 -38 24.5 -86t-21.5 -89t-62.5 -69
t-93.5 -28q-105 0 -238.5 25t-273 50t-260.5 25z" />
    <glyph glyph-name="B.swash" horiz-adv-x="1349" 
d="M721 1481q-76 0 -161.5 -19t-174 -56t-168.5 -96.5t-142.5 -135t-100 -178t-37.5 -218.5q0 -131 65 -209q-148 -69 -245 -12.5t-97 205.5q0 123 48.5 236.5t131 201t191.5 160t231 119.5t248 72.5t244 25.5q80 0 143.5 -8t120.5 -28t94.5 -53t59.5 -85.5t22 -122.5
q0 -122 -86 -246.5t-236 -204.5l2 -2q154 0 232 -72t78 -188q0 -94 -49.5 -196t-134 -188.5t-211.5 -142.5t-267 -56q-173 0 -293 43t-120 112q0 36 20 65t61 42q44 -38 95 -66l233 1102q14 67 63 99t113 32q57 0 99 -27l-119 -555q122 37 208.5 166t86.5 258
q0 118 -60.5 172t-187.5 54zM743 739q-43 0 -92 -12l-131 -612h2q103 0 196 64.5t148.5 167t55.5 210.5q0 83 -45.5 132.5t-133.5 49.5z" />
    <glyph glyph-name="A.swash" horiz-adv-x="1335" 
d="M788 227l70 332h-229q-75 -178 -140.5 -293.5t-132 -180.5t-130 -89.5t-144.5 -24.5q-70 0 -123 34.5t-74.5 83.5t-10 104.5t59.5 93.5q78 -49 164 -49q62 0 108 14.5t99.5 59.5t103 122.5t114.5 210t139 314.5t172 444q-196 16 -267 16q-93 0 -154.5 -19t-97.5 -67
q-53 59 -53 125q0 90 52.5 150.5t156.5 60.5q84 0 188.5 -22.5t188 -49t192.5 -49t201 -22.5q42 0 65 6t37 24q29 -17 29 -53q0 -33 -21 -58t-59 -22l-233 -1093q-32 -152 67 -152q45 0 105.5 33t103.5 70q35 -15 35 -50q0 -24 -18 -45q-89 -91 -184 -146.5t-171 -55.5
q-37 0 -70.5 7.5t-65 24.5t-50.5 45t-27.5 69t4.5 97zM1034 1391q-56 3 -108 6q-140 -440 -250 -719h207z" />
    <glyph glyph-name="D.swash" horiz-adv-x="1415" 
d="M750 1479q-107 0 -208.5 -26t-193 -82.5t-160 -137.5t-109 -198t-40.5 -257q0 -131 65 -209q-149 -69 -245.5 -12.5t-96.5 205.5t51 279t143.5 227.5t218 167.5t278 105.5t319.5 35.5q98 0 185.5 -17.5t167.5 -58.5t138 -102t92 -153t34 -206t-20.5 -236t-59.5 -241
t-99.5 -225.5t-134.5 -187t-172 -128t-205 -47.5q-147 0 -305 107q-121 -94 -303 -94q-111 0 -150 76q-33 64 3 137q39 79 129 103q32 9 67 9q59 0 160 -57q38 65 59 168l183 858q14 67 63 99t113 32q56 0 98 -27l-194 -890q-46 -215 -152 -340q80 -41 160 -41
q83 0 160.5 57t136.5 152t104 214.5t68.5 250t23.5 251.5q0 116 -30.5 203.5t-83.5 137.5t-117.5 74t-140.5 24zM129 141q69 0 121 52q-70 53 -109 53q-59 0 -84 -36q-21 -29 5 -51q21 -18 67 -18z" />
    <glyph glyph-name="F.swash" horiz-adv-x="991" 
d="M346 -16q-71 0 -108 26l323 1426q-86 -4 -170.5 -28t-167.5 -76t-145.5 -125.5t-101.5 -184t-39 -244.5q0 -131 65 -209q-148 -69 -245 -12.5t-97 205.5q0 147 58.5 277.5t156.5 224t223.5 162t263 102t271.5 33.5q67 0 163.5 -11.5t164.5 -20t158.5 1.5t172.5 46
q33 -135 -27 -222t-173 -87q-36 0 -88 15.5t-89 31t-102 45.5q-15 7 -22 10l-113 -520q21 -2 68.5 -9t71 -8.5t59 3t65.5 18.5q20 -24 18 -53t-16.5 -54.5t-45.5 -43t-69 -17.5q-27 0 -56.5 5.5t-66 15.5t-55.5 14l-129 -606q-14 -67 -63 -99t-113 -32z" />
    <glyph glyph-name="H.swash" horiz-adv-x="1376" 
d="M842 281l108 514q-143 -50 -319 -54l-133 -626q-14 -67 -63 -99t-113 -32q-72 0 -109 26l313 1381q-86 3 -246 15.5t-229 12.5q-93 0 -154.5 -19t-97.5 -67q-53 59 -53 125q0 90 52.5 150.5t156.5 60.5q84 0 188.5 -22.5t188 -49t192.5 -49t201 -22.5q42 0 65 6t37 24
q29 -17 29 -53q0 -33 -21 -58t-59 -22l-117 -542q136 0 312 16l108 508q14 67 63 99t113 32q53 0 99 -27l-254 -1179q-16 -84 3 -118t64 -34t105.5 33t103.5 70q35 -15 35 -50q0 -24 -18 -45q-103 -96 -189 -149t-168 -53q-40 0 -72.5 8t-63.5 27.5t-47 53t-22 85.5t11 123z
" />
    <glyph glyph-name="I.swash" horiz-adv-x="784" 
d="M776 1423l-278 -1308q-14 -67 -63 -99t-113 -32q-72 0 -109 26l313 1381q-86 3 -246 15.5t-229 12.5q-93 0 -154.5 -19t-97.5 -67q-53 59 -53 125q0 90 52.5 150.5t156.5 60.5q86 0 193 -20t192.5 -44.5t197.5 -44.5t207 -20q50 0 82 16q35 -11 35 -53q0 -31 -23.5 -55.5
t-62.5 -24.5z" />
    <glyph glyph-name="J.swash" horiz-adv-x="1097" 
d="M1145 1423q-4 -1 -12.5 -2t-12.5 -2l-278 -1323q-54 -252 -181.5 -380t-322.5 -128q-77 0 -137 25.5t-95 68.5t-53 95t-18 110q0 116 70 202.5t186 86.5q111 0 152.5 -63t0.5 -176q-38 36 -96 36q-73 0 -111 -42.5t-38 -100.5q0 -48 37.5 -85.5t99.5 -37.5
q93 0 150 101.5t116 367.5l270 1237q-72 2 -162.5 8t-151 11.5t-129 6.5t-114.5 -5.5t-87.5 -26t-67.5 -53.5q-31 51 -33 108t20 102t66.5 75t101.5 30q84 0 188.5 -22.5t188 -49t192.5 -49t201 -22.5h13l47 8l-2 -4q27 5 45 26q29 -17 29 -53q0 -31 -19 -53.5t-53 -26.5z
" />
    <glyph glyph-name="K.swash" horiz-adv-x="1351" 
d="M1192 178q40 0 84.5 30t75.5 73q30 -13 30 -48q0 -27 -23 -68t-62.5 -82t-102 -70t-131.5 -29q-68 0 -123.5 44.5t-91.5 114t-62.5 167.5t-40.5 191t-22 199l-105 -14l-120 -571q-14 -67 -63 -99t-113 -32q-72 0 -109 26l313 1381q-86 3 -246 15.5t-229 12.5
q-93 0 -154.5 -19t-97.5 -67q-53 59 -53 125q0 90 52.5 150.5t156.5 60.5q84 0 188.5 -22.5t188 -49t192.5 -49t201 -22.5q42 0 65 6t37 24q29 -17 29 -53q0 -33 -21 -58t-59 -22l-133 -628l49 16q69 40 126.5 93.5t99 116t72.5 123t55 134t38 127.5t29 123q31 16 76 16
q54 0 97.5 -34.5t43.5 -88.5q0 -139 -101 -286.5t-280 -290.5q66 -666 244 -666z" />
    <glyph glyph-name="K_.swash" horiz-adv-x="1300" 
d="M1460 -117q129 0 248 43q22 -4 25 -32.5t-13 -43.5q-76 -72 -178 -110.5t-203 -38.5q-42 0 -74.5 3t-78.5 14t-83 30.5t-82.5 56t-82 86.5t-76 126t-71 170.5t-60 224t-49.5 282.5l-64 -8l-120 -571q-14 -67 -63 -99t-113 -32q-72 0 -109 26l313 1381q-86 3 -246 15.5
t-229 12.5q-93 0 -154.5 -19t-97.5 -67q-53 59 -53 125q0 90 52.5 150.5t156.5 60.5q84 0 188.5 -22.5t188 -49t192.5 -49t201 -22.5q42 0 65 6t37 24q29 -17 29 -53q0 -33 -21 -58t-59 -22l-133 -628l49 16q69 40 126.5 93.5t99 116t72.5 123t55 134t38 127.5t29 123
q31 16 76 16q54 0 97.5 -34.5t43.5 -88.5q0 -148 -112.5 -304t-309.5 -304q30 -191 68.5 -341.5t75 -246.5t84.5 -164.5t84 -102t87 -52t79.5 -21t74.5 -2.5z" />
    <glyph glyph-name="L.swash" horiz-adv-x="1052" 
d="M764 180q98 0 171.5 30.5t117.5 70.5q34 -15 34 -50q0 -21 -31 -61t-79.5 -82t-120 -73t-141.5 -31q-116 0 -194 30t-142 82q-130 -108 -322 -108q-111 0 -150 76q-33 64 3 137q39 79 129 103q32 9 67 9q89 0 179 -22q23 55 41 133l202 969q-82 3 -239 14.5t-226 11.5
q-93 0 -154 -19t-97 -67q-54 60 -54 125q0 90 52.5 150.5t156.5 60.5q82 0 182.5 -21.5t181.5 -47t185.5 -48.5t192.5 -26l102 10q18 6 29 20q28 -17 28 -53q0 -33 -21 -58t-59 -22l-200 -927q-37 -159 -99 -263q172 -53 275 -53zM96 141q82 0 140 70q-61 35 -127 35
q-59 0 -85 -36q-21 -30 6 -52q21 -17 66 -17z" />
    <glyph glyph-name="L_.swash" horiz-adv-x="702" 
d="M268 266q39 70 58 158l202 969q-82 3 -239 14.5t-226 11.5q-93 0 -154 -19t-97 -67q-54 60 -54 125q0 90 52.5 150.5t156.5 60.5q84 0 188.5 -22.5t188 -49t192.5 -49t201 -22.5q43 0 66 6t37 24q28 -17 28 -53q0 -33 -21 -58t-59 -22l-200 -927q-48 -219 -158 -349
q133 -113 190 -151q161 -109 320 -109q153 0 326 97q19 -5 23.5 -25t-15.5 -39q-244 -217 -443 -217q-41 0 -81 10.5t-70.5 23t-68 41.5t-58.5 46.5t-58 59.5t-50.5 59t-51.5 65.5t-47 59.5q-115 -84 -270 -84q-80 0 -131.5 38.5t-50.5 104.5q2 72 59 129t153 57
q79 0 162 -47zM90 135q72 0 131 64q-57 47 -112 47q-41 0 -67 -18.5t-26 -41.5t20.5 -37t53.5 -14z" />
    <glyph glyph-name="M.swash" horiz-adv-x="1943" 
d="M1409 281l131 872l-446 -1049q-26 -67 -69 -93.5t-105 -26.5q-58 0 -99 26l74 908l10 249q-85 -259 -152.5 -442t-130 -319t-115 -218.5t-111.5 -132t-114.5 -67t-127.5 -17.5q-70 0 -123 34.5t-74.5 83.5t-10 104.5t59.5 93.5q78 -49 164 -49q61 0 106 14t96.5 60
t98 121t110 209t134 311t168.5 440q-82 3 -239 14.5t-224 11.5q-93 0 -154.5 -19t-97.5 -67q-53 59 -53 125q0 90 52.5 150.5t156.5 60.5q84 0 188.5 -22.5t188 -49t192.5 -49t201 -22.5q42 0 65 6t37 24q29 -17 29 -53q0 -33 -21 -58t-59 -22l-74 -1089l475 1071
q53 131 176 131q71 0 113 -27l-168 -1179q-11 -85 6.5 -118.5t61.5 -33.5q45 0 105.5 33t103.5 70q34 -15 34 -50q0 -24 -18 -45q-104 -97 -189 -149.5t-167 -52.5q-40 0 -71.5 7.5t-61 27t-45 53t-23 85.5t5.5 124z" />
    <glyph glyph-name="N.swash" horiz-adv-x="1374" 
d="M907 1423l219 -956q99 387 99 668t-109 430q59 53 168 53q135 0 135 -170q0 -345 -157 -897l-160 -557q-107 -35 -129 57l-262 1145q-30 -256 -61 -446t-67 -326.5t-74 -224t-86.5 -138.5t-99.5 -70.5t-118 -19.5q-149 0 -209 88.5t4 227.5q161 -72 263 -32t165 189
q110 261 211 949q-81 3 -235.5 14.5t-221.5 11.5q-93 0 -154.5 -19t-97.5 -67q-53 59 -53 125q0 90 52.5 150.5t156.5 60.5q84 0 188.5 -22.5t188 -49t192.5 -49t201 -22.5q42 0 65 6t37 24q29 -17 29 -53q0 -33 -21 -58t-59 -22z" />
    <glyph glyph-name="R.swash" horiz-adv-x="1400" 
d="M1063 -16q-62 0 -114 37.5t-87 97.5t-62.5 145.5t-43.5 170.5t-27 183q-46 -4 -72 -4h-28l-107 -499q-14 -67 -63 -99t-113 -32q-71 0 -108 26l288 1276q14 65 61.5 96t108.5 31q55 0 97 -27l-144 -675q76 6 147.5 53.5t121.5 118t80 156t30 165.5q0 122 -71 198.5
t-218 76.5q-76 0 -162.5 -19t-177 -55.5t-173 -96t-147.5 -134.5t-103.5 -177.5t-38.5 -218.5q0 -131 65 -209q-148 -69 -245 -12.5t-97 205.5q0 123 50.5 236.5t136 201t197.5 160t237 119.5t253 72.5t246 25.5q131 0 229.5 -28t156.5 -78t86 -112.5t28 -137.5
q0 -140 -88 -283t-229 -231q72 -529 229 -529q45 0 106.5 33t102.5 70q35 -15 35 -50q0 -23 -19 -45q-191 -202 -354 -202z" />
    <glyph glyph-name="R_.swash" horiz-adv-x="1271" 
d="M739 1479q-76 0 -162.5 -19t-177 -55.5t-173 -96t-147.5 -134.5t-103.5 -177.5t-38.5 -218.5q0 -131 65 -209q-148 -69 -245 -12.5t-97 205.5q0 123 50.5 236.5t136 201t197.5 160t237 119.5t253 72.5t246 25.5q131 0 229.5 -28t156.5 -78t86 -112.5t28 -137.5
q0 -142 -92 -289t-238 -234q33 -164 72.5 -293t76 -213.5t80.5 -145t79 -91.5t80 -48t73.5 -20.5t69.5 -3.5q129 0 248 43q22 -4 25 -32.5t-13 -43.5q-76 -72 -178 -110.5t-203 -38.5q-40 0 -72 2.5t-76.5 13t-80.5 28.5t-80 51.5t-80 79.5t-75 116t-70 157.5t-60 206.5
t-51 260q-20 -2 -58 -2h-28l-107 -499q-14 -67 -63 -99t-113 -32q-71 0 -108 26l288 1276q14 65 61.5 96t108.5 31q55 0 97 -27l-144 -675q76 6 147.5 53.5t121.5 118t80 156t30 165.5q0 122 -71 198.5t-218 76.5z" />
    <glyph glyph-name="U.swash" horiz-adv-x="1253" 
d="M637 195q69 0 137 68t121.5 181t95 251.5t64 287.5t22.5 281q0 189 -71 303q56 69 147 80q69 8 106 -27.5t41 -79.5q5 -67 5 -80q0 -101 -21 -230.5t-61 -269t-93 -279.5t-122.5 -265t-145 -222t-164.5 -153.5t-178 -56.5q-132 0 -184.5 140t-5.5 368l190 899
q-85 3 -243 15.5t-226 12.5q-93 0 -154.5 -19t-97.5 -67q-53 59 -53 125q0 90 52.5 150.5t156.5 60.5q84 0 188.5 -22.5t188 -49t192.5 -49t201 -22.5q42 0 65 6t37 24q29 -17 29 -53q0 -32 -20 -56.5t-56 -23.5l-207 -974q-55 -254 64 -254z" />
    <glyph glyph-name="V.swash" horiz-adv-x="1372" 
d="M596 0l-33 1391q-85 3 -242 15.5t-225 12.5q-93 0 -154.5 -19t-97.5 -67q-53 59 -53 125q0 90 52.5 150.5t156.5 60.5q84 0 188.5 -22.5t188 -49t192.5 -49t201 -22.5q42 0 65 6t37 24q29 -17 29 -53q0 -33 -21 -58t-59 -22l19 -1163l194 371q42 80 79.5 166t72 192
t51.5 203t11.5 194.5t-40.5 169.5q65 62 156 62q70 0 102.5 -39t32.5 -84q0 -72 -15.5 -153t-51 -175.5t-64 -163t-85.5 -176.5t-81.5 -152.5t-83.5 -150.5l-239 -424q-38 -68 -76 -97.5t-94 -29.5q-71 0 -113 27z" />
    <glyph glyph-name="W.swash" horiz-adv-x="1937" 
d="M598 0l-35 1391q-85 3 -242 15.5t-225 12.5q-93 0 -154.5 -19t-97.5 -67q-53 59 -53 125q0 90 52.5 150.5t156.5 60.5q84 0 188.5 -22.5t188 -49t192.5 -49t201 -22.5q42 0 65 6t37 24q29 -17 29 -53q0 -33 -21 -58t-59 -22l17 -1091l346 1093q19 57 58.5 84t90.5 27
q64 0 97 -23l73 -1239l150 373q34 86 62 171t52 193t31.5 201.5t-8 188.5t-57.5 164q24 24 67.5 38.5t87.5 14.5q142 0 142 -168q0 -248 -283 -899l-195 -447q-54 -131 -174 -131q-70 0 -112 27l-72 1077l-309 -973q-54 -131 -174 -131q-71 0 -113 27z" />
    <glyph glyph-name="X.swash" horiz-adv-x="1269" 
d="M985 -16q-76 0 -132 47.5t-75 140.5l-80 379q-238 -567 -505 -567q-64 0 -110 25.5t-67 67t-26.5 95t12.5 109.5q159 -68 345.5 38.5t322.5 364.5l-152 709q-78 3 -228.5 14.5t-215.5 11.5q-93 0 -154.5 -19t-97.5 -67q-53 59 -53 125q0 91 52 151t156 60
q84 0 188.5 -22.5t188.5 -49t193 -49t201 -22.5q42 0 65 6t37 24q29 -17 29 -53q0 -33 -21 -58t-59 -22l104 -505q101 139 147 308t31 339q73 53 136 53q34 0 59 -12.5t36.5 -32t16 -37.5t4.5 -35q0 -110 -31 -210.5t-91 -188.5t-126 -158.5t-157 -148.5l110 -533
q16 -84 78 -84q45 0 105.5 33t103.5 70q35 -15 35 -50q0 -23 -19 -45q-104 -97 -189 -149.5t-167 -52.5z" />
    <glyph glyph-name="Y.swash" horiz-adv-x="1331" 
d="M1055 629l-107 -498q-16 -76 -70.5 -111.5t-125.5 -35.5q-63 0 -111 30l135 619l-196 760q-78 3 -228 14.5t-215 11.5q-93 0 -154.5 -19t-97.5 -67q-53 59 -53 125q0 90 52.5 150.5t156.5 60.5q84 0 188.5 -22.5t188 -49t192.5 -49t201 -22.5q42 0 65 6t37 24
q29 -17 29 -53q0 -33 -21 -58t-59 -22l156 -645q135 198 187 388.5t20 398.5q53 53 135 53q65 0 93 -39t24 -78q-17 -193 -140 -431.5t-282 -440.5z" />
    <glyph glyph-name="afii10017.swash" horiz-adv-x="1398" 
d="M852 227l70 332h-230q-75 -178 -140.5 -293.5t-132 -180.5t-130 -89.5t-144.5 -24.5q-70 0 -123 34.5t-74 83.5t-9.5 104.5t59.5 93.5q78 -49 164 -49q62 0 108 14.5t99.5 59.5t102.5 122.5t114 210t139 314.5t172 444q-196 16 -266 16q-93 0 -154.5 -19t-97.5 -67
q-53 59 -53 125q0 90 52.5 150.5t156.5 60.5q84 0 188.5 -22.5t188 -49t192.5 -49t201 -22.5q42 0 65 6t37 24q29 -17 29 -53q0 -33 -21 -58t-59 -22l-234 -1093q-32 -152 68 -152q45 0 105.5 33t103.5 70q35 -15 35 -50q0 -23 -19 -45q-90 -91 -184 -146.5t-170 -55.5
q-37 0 -70.5 7.5t-65 24.5t-50.5 45t-27.5 69t4.5 97zM1098 1391q-74 4 -109 6q-140 -440 -250 -719h207z" />
    <glyph glyph-name="afii10018.swash" horiz-adv-x="1286" 
d="M1112 1307q-33 -4 -74 4.5t-72.5 20t-85 32t-85.5 31.5l-115 -531q98 33 176 33q77 0 137.5 -20.5t97 -52t60 -74t32.5 -82t9 -80.5q0 -77 -31 -161t-91.5 -162.5t-140.5 -141.5t-186.5 -101t-220.5 -38q-173 0 -293 43t-120 112q0 36 20 65t61 42q44 -38 95 -66
l270 1254q-87 -3 -170.5 -26.5t-166 -74.5t-144 -124.5t-99.5 -184.5t-38 -246q0 -131 65 -209q-148 -69 -245 -12.5t-97 205.5q0 147 67.5 279t178 228t249 167t284 106t280.5 35q41 0 156 -12.5t161 -12.5q159 0 242 60q43 -126 -6 -210t-160 -95zM752 760q-48 0 -97 -12
l-135 -633h2q104 0 199.5 67.5t152 175t56.5 220.5q0 83 -45 132.5t-133 49.5z" />
    <glyph glyph-name="afii10019.swash" horiz-adv-x="1275" 
d="M721 1481q-76 0 -161.5 -19t-174 -56t-168.5 -96.5t-142.5 -135t-100 -178t-37.5 -218.5q0 -131 65 -209q-148 -69 -245 -12.5t-97 205.5q0 123 48.5 236.5t131 201t191.5 160t231 119.5t248 72.5t244 25.5q80 0 143.5 -8t120.5 -28t94.5 -53t59.5 -85.5t22 -122.5
q0 -122 -86 -246.5t-236 -204.5l2 -2q154 0 232 -72t78 -188q0 -94 -49.5 -196t-134 -188.5t-211.5 -142.5t-267 -56q-173 0 -293 43t-120 112q0 36 20 65t61 42q44 -38 95 -66l233 1102q14 67 63 99t113 32q57 0 99 -27l-119 -555q122 37 208.5 166t86.5 258
q0 118 -60.5 172t-187.5 54zM743 739q-43 0 -92 -12l-131 -612h2q103 0 196 64.5t148.5 167t55.5 210.5q0 83 -45.5 132.5t-133.5 49.5z" />
    <glyph glyph-name="afii10021.swash" horiz-adv-x="1415" 
d="M750 1479q-107 0 -208.5 -26t-193 -82.5t-160 -137.5t-109 -198t-40.5 -257q0 -131 65 -209q-149 -69 -245.5 -12.5t-96.5 205.5t51 279t143.5 227.5t218 167.5t278 105.5t319.5 35.5q98 0 185.5 -17.5t167.5 -58.5t138 -102t92 -153t34 -206t-20.5 -236t-59.5 -241
t-99.5 -225.5t-134.5 -187t-172 -128t-205 -47.5q-147 0 -305 107q-121 -94 -303 -94q-111 0 -150 76q-33 64 3 137q39 79 129 103q32 9 67 9q59 0 160 -57q38 65 59 168l183 858q14 67 63 99t113 32q56 0 98 -27l-194 -890q-46 -215 -152 -340q80 -41 160 -41
q83 0 160.5 57t136.5 152t104 214.5t68.5 250t23.5 251.5q0 116 -30.5 203.5t-83.5 137.5t-117.5 74t-140.5 24zM129 141q69 0 121 52q-70 53 -109 53q-59 0 -84 -36q-21 -29 5 -51q21 -18 67 -18z" />
    <glyph glyph-name="afii10026.swash" horiz-adv-x="1437" 
d="M903 281l166 784l-571 -950q-39 -70 -79.5 -100.5t-96.5 -30.5q-58 0 -99 26l293 1383q-82 3 -239 14.5t-226 11.5q-93 0 -154.5 -19t-97.5 -67q-53 59 -53 125q0 90 52.5 150.5t156.5 60.5q84 0 188.5 -22.5t188 -49t192.5 -49t201 -22.5q42 0 65 6t37 24q29 -17 29 -53
q0 -33 -21 -58t-59 -22l-207 -977l572 959q37 69 78.5 100t97.5 31t98 -27l-254 -1179q-29 -152 68 -152q45 0 105.5 33t103.5 70q35 -15 35 -50q0 -23 -19 -45q-104 -97 -189 -149.5t-167 -52.5q-40 0 -72.5 8t-64 27.5t-47.5 53t-22 85.5t11 123z" />
    <glyph glyph-name="afii10027.swash" horiz-adv-x="1437" 
d="M903 281l166 784l-571 -950q-39 -70 -79.5 -100.5t-96.5 -30.5q-58 0 -99 26l293 1383q-82 3 -239 14.5t-226 11.5q-93 0 -154.5 -19t-97.5 -67q-53 59 -53 125q0 90 52.5 150.5t156.5 60.5q84 0 188.5 -22.5t188 -49t192.5 -49t201 -22.5q42 0 65 6t37 24q29 -17 29 -53
q0 -33 -21 -58t-59 -22l-207 -977l572 959q37 69 78.5 100t97.5 31t98 -27l-254 -1179q-29 -152 68 -152q45 0 105.5 33t103.5 70q35 -15 35 -50q0 -23 -19 -45q-104 -97 -189 -149.5t-167 -52.5q-40 0 -72.5 8t-64 27.5t-47.5 53t-22 85.5t11 123zM1358 1872
q-11 -115 -122.5 -205t-268.5 -90q-101 0 -155 59t-54 140q0 72 45.5 123t126.5 51q44 0 82 -21q-15 -27 -15 -61q0 -44 26.5 -68t68.5 -24q55 0 109 43t83 123q31 5 55.5 -13.5t18.5 -56.5z" />
    <glyph glyph-name="afii10028.swash" horiz-adv-x="1351" 
d="M1192 178q40 0 84.5 30t75.5 73q30 -13 30 -48q0 -27 -23 -68t-62.5 -82t-102 -70t-131.5 -29q-68 0 -123.5 44.5t-91.5 114t-62.5 167.5t-40.5 191t-22 199l-105 -14l-120 -571q-14 -67 -63 -99t-113 -32q-72 0 -109 26l313 1381q-86 3 -246 15.5t-229 12.5
q-93 0 -154.5 -19t-97.5 -67q-53 59 -53 125q0 90 52.5 150.5t156.5 60.5q84 0 188.5 -22.5t188 -49t192.5 -49t201 -22.5q42 0 65 6t37 24q29 -17 29 -53q0 -33 -21 -58t-59 -22l-133 -628l49 16q69 40 126.5 93.5t99 116t72.5 123t55 134t38 127.5t29 123q31 16 76 16
q54 0 97.5 -34.5t43.5 -88.5q0 -139 -101 -286.5t-280 -290.5q66 -666 244 -666z" />
    <glyph glyph-name="afii10029.swash" horiz-adv-x="1406" 
d="M872 281l238 1132q-51 0 -145 4q-88 -309 -160.5 -532t-140.5 -386t-126 -264t-122 -160.5t-124.5 -81.5t-137.5 -22q-70 0 -123 34.5t-74.5 83.5t-10 104.5t59.5 93.5q78 -49 164 -49q62 0 108 15t98 60.5t100 125t109 214t129.5 320.5t157.5 452q-218 17 -288 13
q-148 -8 -205 -84q-31 51 -32.5 108t20.5 102t66.5 75t101.5 30q84 0 188.5 -22.5t188 -49t192.5 -49t201 -22.5q42 0 65 6t37 24q29 -17 29 -53q0 -31 -19 -53.5t-53 -26.5l-234 -1093q-29 -152 68 -152q45 0 105.5 33t103.5 70q35 -15 35 -50q0 -23 -19 -45
q-104 -97 -189 -149.5t-167 -52.5q-40 0 -72.5 8t-64 27.5t-47.5 53t-22 85.5t11 123z" />
    <glyph glyph-name="afii10030.swash" horiz-adv-x="1943" 
d="M1409 281l131 872l-446 -1049q-26 -67 -69 -93.5t-105 -26.5q-58 0 -99 26l74 908l10 249q-85 -259 -152.5 -442t-130 -319t-115 -218.5t-111.5 -132t-114.5 -67t-127.5 -17.5q-70 0 -123 34.5t-74.5 83.5t-10 104.5t59.5 93.5q78 -49 164 -49q61 0 106 14t96.5 60
t98 121t110 209t134 311t168.5 440q-82 3 -239 14.5t-224 11.5q-93 0 -154.5 -19t-97.5 -67q-53 59 -53 125q0 90 52.5 150.5t156.5 60.5q84 0 188.5 -22.5t188 -49t192.5 -49t201 -22.5q42 0 65 6t37 24q29 -17 29 -53q0 -33 -21 -58t-59 -22l-74 -1089l475 1071
q53 131 176 131q71 0 113 -27l-168 -1179q-11 -85 6.5 -118.5t61.5 -33.5q45 0 105.5 33t103.5 70q34 -15 34 -50q0 -24 -18 -45q-104 -97 -189 -149.5t-167 -52.5q-40 0 -71.5 7.5t-61 27t-45 53t-23 85.5t5.5 124z" />
    <glyph glyph-name="afii10031.swash" horiz-adv-x="1376" 
d="M842 281l108 514q-143 -50 -319 -54l-133 -626q-14 -67 -63 -99t-113 -32q-72 0 -109 26l313 1381q-86 3 -246 15.5t-229 12.5q-93 0 -154.5 -19t-97.5 -67q-53 59 -53 125q0 90 52.5 150.5t156.5 60.5q84 0 188.5 -22.5t188 -49t192.5 -49t201 -22.5q42 0 65 6t37 24
q29 -17 29 -53q0 -33 -21 -58t-59 -22l-117 -542q136 0 312 16l108 508q14 67 63 99t113 32q53 0 99 -27l-254 -1179q-16 -84 3 -118t64 -34t105.5 33t103.5 70q35 -15 35 -50q0 -24 -18 -45q-103 -96 -189 -149t-168 -53q-40 0 -72.5 8t-63.5 27.5t-47 53t-22 85.5t11 123z
" />
    <glyph glyph-name="afii10033.swash" horiz-adv-x="1376" 
d="M842 281l221 1044q-237 52 -295 61l-270 -1271q-14 -67 -63 -99t-113 -32q-72 0 -109 26l315 1393q-121 -2 -228 -43t-191.5 -116.5t-133.5 -195.5t-49 -270q0 -130 66 -209q-129 -69 -215 -12.5t-86 205.5q0 138 53.5 262.5t146.5 218t214.5 162t262 104t285.5 35.5
q51 0 247.5 -14t252.5 -14q160 0 242 59q47 -18 65 -63.5t6.5 -93t-54 -86t-105.5 -42.5l-207 -960q-16 -84 3 -118t64 -34t105.5 33t103.5 70q35 -15 35 -50q0 -24 -18 -45q-103 -96 -189 -149t-168 -53q-40 0 -72.5 8t-63.5 27.5t-47 53t-22 85.5t11 123z" />
    <glyph glyph-name="afii10034.swash" horiz-adv-x="1292" 
d="M739 1479q-76 0 -162.5 -19t-177 -55.5t-173 -96t-147.5 -134.5t-103.5 -177.5t-38.5 -218.5q0 -131 65 -209q-148 -69 -245 -12.5t-97 205.5q0 123 50.5 236.5t136 201t197.5 160t237 119.5t253 72.5t246 25.5q131 0 229.5 -28t156.5 -78t86 -112.5t28 -137.5
q0 -135 -50 -250t-135 -192.5t-198.5 -121t-239.5 -43.5h-30l-105 -499q-14 -67 -63 -99t-113 -32q-71 0 -108 26l286 1276q14 65 61.5 96t108.5 31q55 0 97 -27l-144 -675q163 8 272 145.5t109 347.5q0 122 -71 198.5t-218 76.5z" />
    <glyph glyph-name="afii10036.swash" horiz-adv-x="1748" 
d="M1214 281l226 1060q-23 2 -264 33l-269 -1259q-14 -67 -63 -99t-113 -32q-71 0 -108 26l315 1393q-195 22 -266 27l-281 -1315q-14 -67 -63 -99t-113 -32q-72 0 -109 26l324 1426q-126 -15 -235 -61t-193.5 -121.5t-133 -188t-48.5 -248.5q0 -131 65 -209
q-129 -69 -215 -12.5t-86 205.5q0 138 59.5 262.5t163 218t239 162t291.5 104t316 35.5q111 0 422 -14.5t424 -14.5q159 0 242 60q58 -22 72.5 -82t-20 -119t-103.5 -78l-217 -1005q-32 -152 67 -152q45 0 105.5 33t103.5 70q35 -15 35 -50q0 -23 -19 -45
q-104 -97 -189 -149.5t-167 -52.5q-40 0 -72.5 8t-64 27.5t-47.5 53t-22 85.5t11 123z" />
    <glyph glyph-name="afii10037.swash" horiz-adv-x="1343" 
d="M385 -23q-98 0 -151.5 60t-53.5 139q0 84 58 133q82 -102 264 -102q115 0 215 35q19 279 -24 580.5t-132 570.5q-77 3 -226 14.5t-214 11.5q-93 0 -154.5 -19t-97.5 -67q-53 59 -53 125q0 90 52.5 150.5t156.5 60.5q84 0 188.5 -22.5t188 -49t192.5 -49t201 -22.5
q42 0 65 6t37 24q29 -17 29 -53q0 -33 -21 -58t-59 -22q40 -142 67.5 -321t35.5 -368t-15 -345q274 297 274 1034q0 83 -10 142q53 53 135 53q45 0 73.5 -22t36.5 -46.5t7 -48.5q-6 -113 -30.5 -246t-71.5 -280.5t-110 -289t-152 -270.5t-192 -226t-234.5 -154.5
t-274.5 -57.5z" />
    <glyph glyph-name="afii10039.swash" horiz-adv-x="1269" 
d="M985 -16q-76 0 -132 47.5t-75 140.5l-80 379q-238 -567 -505 -567q-64 0 -110 25.5t-67 67t-26.5 95t12.5 109.5q159 -68 345.5 38.5t322.5 364.5l-152 709q-78 3 -228.5 14.5t-215.5 11.5q-93 0 -154.5 -19t-97.5 -67q-53 59 -53 125q0 91 52 151t156 60
q84 0 188.5 -22.5t188.5 -49t193 -49t201 -22.5q42 0 65 6t37 24q29 -17 29 -53q0 -33 -21 -58t-59 -22l104 -505q101 139 147 308t31 339q73 53 136 53q34 0 59 -12.5t36.5 -32t16 -37.5t4.5 -35q0 -110 -31 -210.5t-91 -188.5t-126 -158.5t-157 -148.5l110 -533
q16 -84 78 -84q45 0 105.5 33t103.5 70q35 -15 35 -50q0 -23 -19 -45q-104 -97 -189 -149.5t-167 -52.5z" />
    <glyph glyph-name="afii10040.swash" horiz-adv-x="1400" 
d="M780 1423l-256 -1202q19 -5 62.5 -18t72 -20.5t76 -16.5t96.5 -14l273 1259q14 67 63 99t113 32q57 0 98 -26l-309 -1373q94 2 148 136q44 6 73 -31q5 -136 -25 -251.5t-80.5 -191t-116 -129.5t-131 -77.5t-126.5 -24.5q-92 0 -128.5 47.5t-19 114t75.5 127.5
q20 -28 66 -39.5t103.5 -0.5t113 39.5t101.5 86t63 133.5q-24 -38 -65.5 -60t-84.5 -22q-109 0 -288.5 12.5t-292.5 12.5q-159 0 -242 -60q-36 13 -56 43t-20 66.5t14 72t47 63t78 36.5l244 1147q-82 3 -240 14.5t-225 11.5q-93 0 -154.5 -19t-97.5 -67q-53 59 -53 125
q0 90 52.5 150.5t156.5 60.5q84 0 188.5 -22.5t188 -49t192.5 -49t201 -22.5q42 0 65 6t37 24q29 -17 29 -53q0 -33 -21 -58t-59 -22z" />
    <glyph glyph-name="afii10041.swash" horiz-adv-x="1378" 
d="M844 281l104 442q-137 -94 -254 -94q-175 0 -222.5 112t11.5 330l80 320q-87 3 -248 15.5t-229 12.5q-93 0 -154.5 -19t-97.5 -67q-53 59 -53 125q0 90 52.5 150.5t156.5 60.5q84 0 188.5 -22.5t188 -49t192.5 -49t201 -22.5q42 0 65 6t37 24q29 -17 29 -53
q0 -33 -21 -58t-59 -22l-94 -417q-16 -65 -18 -107.5t10 -63.5t29.5 -28.5t45.5 -7.5q88 0 191 41l141 596q16 66 64 97.5t108 31.5q62 0 96 -27l-282 -1208q-35 -152 67 -152q45 0 105.5 33t103.5 70q35 -15 35 -50q0 -24 -18 -45q-103 -96 -189 -149t-168 -53q-40 0 -73 8
t-64.5 28t-47.5 53.5t-21.5 85t12.5 122.5z" />
    <glyph glyph-name="afii10042.swash" horiz-adv-x="1734" 
d="M1323 1516l-303 -1342q211 -23 272 -27l273 1264q14 67 63 99t113 32q57 0 98 -26l-342 -1516q-109 0 -519 12.5t-523 12.5q-159 0 -242 -60q-36 13 -56 43t-20 66.5t14 72t47 63t78 36.5l244 1147q-82 3 -240 14.5t-225 11.5q-93 0 -154.5 -19t-97.5 -67q-53 59 -53 125
q0 90 52.5 150.5t156.5 60.5q84 0 188.5 -22.5t188 -49t192.5 -49t201 -22.5q42 0 65 6t37 24q29 -17 29 -53q0 -33 -21 -58t-59 -22l-254 -1187q16 -2 262 -33l261 1208q14 67 63 99t113 32q57 0 98 -26z" />
    <glyph glyph-name="afii10043.swash" horiz-adv-x="1935" 
d="M1839 1516l-309 -1373q93 2 147 136q45 6 74 -31q5 -136 -25 -251.5t-80.5 -191t-116 -129.5t-131 -77.5t-126.5 -24.5q-92 0 -128.5 47.5t-19 114t75.5 127.5q20 -28 66 -39.5t103.5 -0.5t113 39.5t101.5 86t63 133.5q-24 -38 -65.5 -60t-84.5 -22q-109 0 -519 12.5
t-523 12.5q-159 0 -242 -60q-36 13 -56 43t-20 66.5t14 72t47 63t78 36.5l244 1147q-82 3 -240 14.5t-225 11.5q-93 0 -154.5 -19t-97.5 -67q-53 59 -53 125q0 90 52.5 150.5t156.5 60.5q84 0 188.5 -22.5t188 -49t192.5 -49t201 -22.5q42 0 65 6t37 24q29 -17 29 -53
q0 -33 -21 -58t-59 -22l-254 -1187q16 -2 262 -33l261 1208q14 67 63 99t113 32q57 0 98 -26l-303 -1342q211 -23 272 -27l273 1264q14 67 63 99t113 32q57 0 98 -26z" />
    <glyph glyph-name="afii10048.swash" horiz-adv-x="1937" 
d="M776 1423l-114 -542q70 0 196 8q34 141 93.5 261.5t141 213t189.5 145t229 52.5q110 0 192 -46.5t131 -131t70.5 -198t16.5 -253.5q-5 -145 -38 -284t-94 -260.5t-142 -214t-189 -145.5t-229 -53q-153 0 -252 81.5t-136.5 221t-19.5 326.5q3 84 15 166q-112 -23 -205 -29
l-133 -626q-14 -67 -63 -99t-113 -32q-72 0 -109 26l313 1381q-86 3 -246 15.5t-229 12.5q-93 0 -154.5 -19t-97.5 -67q-53 59 -53 125q0 90 52.5 150.5t156.5 60.5q84 0 188.5 -22.5t188 -49t192.5 -49t201 -22.5q42 0 65 6t37 24q29 -17 29 -53q0 -33 -21 -58t-59 -22z
M1120 530q0 -141 57 -217.5t146 -76.5q55 0 111.5 30t110.5 94.5t96 154.5t68 220.5t26 282.5q0 185 -60 284t-151 99q-54 0 -110 -35t-109 -107.5t-94 -173.5t-66 -245t-25 -310z" />
    <glyph glyph-name="j.alt" horiz-adv-x="411" 
d="M-35 217l125 580q9 51 -20 51q-13 0 -41 -25q-23 13 -25.5 50t25.5 63q125 98 229 98q121 0 98 -112l-155 -725q-36 -171 -70 -293q88 -6 298 -26.5t294 -20.5q160 0 242 59q44 -127 -6.5 -216t-159.5 -89q-95 0 -210 25t-259.5 64.5t-241.5 57.5q-39 -119 -86 -211.5
t-113.5 -171t-156.5 -121t-199 -42.5q-92 0 -163.5 71.5t-71.5 179.5q0 105 47.5 188.5t130 136t187.5 82.5t228 36q36 128 74 311zM-453 -606q99 0 172 92.5t138 298.5h-50q-149 0 -246.5 -84.5t-97.5 -210.5q0 -45 26.5 -70.5t57.5 -25.5zM162 1298q3 60 46 102t103 42
t100.5 -42t37.5 -102q-5 -60 -48.5 -101.5t-103.5 -41.5t-99.5 41.5t-35.5 101.5z" />
    <glyph glyph-name="g.alt" horiz-adv-x="1021" 
d="M940 1008l-172 -811q-36 -171 -70 -293q88 -6 298 -26.5t294 -20.5q160 0 242 59q44 -127 -6.5 -216t-159.5 -89q-95 0 -210 25t-259.5 64.5t-241.5 57.5q-31 -94 -66.5 -170.5t-85 -148.5t-106.5 -120.5t-133 -77.5t-164 -29q-92 0 -163.5 71.5t-71.5 179.5
q0 104 47 187.5t129 136.5t186.5 83t227.5 36q15 46 42 143t35 125q-141 -190 -299 -190q-61 0 -108 23.5t-74.5 59.5t-44.5 84t-23 90.5t-6 86.5q0 178 69 342.5t189.5 268t258.5 103.5q132 0 208 -67q50 59 142 59q55 0 96 -26zM549 324l115 548q-50 17 -97 17
q-88 0 -156 -53t-105.5 -138t-56 -175.5t-18.5 -180.5q0 -73 30.5 -110t80.5 -37t108 36t99 93zM115 -606q96 0 164 91t137 300h-41q-149 0 -246.5 -84.5t-97.5 -210.5q0 -45 26.5 -70.5t57.5 -25.5z" />
    <glyph glyph-name="afii10069.alt" horiz-adv-x="1021" 
d="M940 1008l-172 -811q-36 -171 -70 -293q88 -6 298 -26.5t294 -20.5q160 0 242 59q44 -127 -6.5 -216t-159.5 -89q-95 0 -210 25t-259.5 64.5t-241.5 57.5q-31 -94 -66.5 -170.5t-85 -148.5t-106.5 -120.5t-133 -77.5t-164 -29q-92 0 -163.5 71.5t-71.5 179.5
q0 104 47 187.5t129 136.5t186.5 83t227.5 36q15 46 42 143t35 125q-141 -190 -299 -190q-61 0 -108 23.5t-74.5 59.5t-44.5 84t-23 90.5t-6 86.5q0 178 69 342.5t189.5 268t258.5 103.5q132 0 208 -67q50 59 142 59q55 0 96 -26zM549 324l115 548q-50 17 -97 17
q-88 0 -156 -53t-105.5 -138t-56 -175.5t-18.5 -180.5q0 -73 30.5 -110t80.5 -37t108 36t99 93zM115 -606q96 0 164 91t137 300h-41q-149 0 -246.5 -84.5t-97.5 -210.5q0 -45 26.5 -70.5t57.5 -25.5z" />
    <glyph glyph-name="afii10073.alt" horiz-adv-x="737" 
d="M-84 -788q-126 0 -212.5 70.5t-86.5 180.5q0 107 49.5 191.5t135.5 137.5t195 82t236 34q39 153 39 235q0 86 -50 139.5t-138 53.5q-8 49 16 84t70 35q95 0 169.5 97t74.5 198q0 71 -37.5 108t-97.5 37q-39 0 -82 -16q-4 -12 -4 -41q0 -65 32 -133q-33 -29 -82 -29
q-54 0 -88.5 41t-34.5 100q0 42 20 81.5t60 74t110.5 55.5t162.5 21q128 0 205 -72.5t77 -177.5q0 -150 -91 -258.5t-247 -151.5q91 -29 141 -97t50 -159q0 -86 -37 -231q79 -5 284 -25t287 -20q160 0 242 59q44 -127 -6.5 -216t-159.5 -89q-93 0 -203.5 23.5t-253.5 62.5
t-233 57q-62 -190 -125 -295q-149 -247 -387 -247zM98 -459q49 87 99 242q-23 2 -70 2q-91 0 -160.5 -24.5t-107.5 -64t-56 -83.5t-18 -90q0 -53 34 -91t79 -38q114 0 200 147z" />
    <glyph glyph-name="afii10085.alt" horiz-adv-x="940" 
d="M-6 377l96 420q6 24 0 37.5t-20 13.5q-13 0 -41 -25q-23 13 -25.5 50t25.5 63q125 98 229 98q121 0 98 -112l-127 -590q-11 -51 5.5 -82t64.5 -31q81 0 158 74l133 612q14 66 62 97.5t110 31.5q55 0 96 -26l-174 -811q-36 -171 -70 -293q88 -6 298 -26.5t294 -20.5
q160 0 242 59q44 -127 -6.5 -216t-159.5 -89q-95 0 -210 25t-259.5 64.5t-241.5 57.5q-31 -94 -66.5 -170.5t-85 -148.5t-106.5 -120.5t-133 -77.5t-164 -29q-92 0 -163.5 71.5t-71.5 179.5q0 104 47 187.5t129 136.5t186.5 83t227.5 36q12 39 35 121.5t36 124.5
q-136 -166 -274 -166q-59 0 -100 23t-61 60t-27.5 89t-3 105t17.5 114zM31 -606q96 0 164 91t137 300h-41q-149 0 -246.5 -84.5t-97.5 -210.5q0 -45 26.5 -70.5t57.5 -25.5z" />
    <glyph glyph-name="l.alt" horiz-adv-x="661" 
d="M717 317q-53 -136 -207 -234.5t-299 -98.5q-82 0 -141 38.5t-78 116.5q-50 -21 -95.5 3t-54.5 77q70 14 148 92q36 283 79.5 488.5t102.5 358t137 228.5t176 76q74 0 119 -44t45 -122q0 -125 -103 -361.5t-294 -528.5q-8 -49 -10 -76q-10 -75 21 -111.5t89 -36.5
q56 0 122.5 29t120.5 79.5t73 104.5q29 4 44.5 -22t4.5 -56zM500 1327q-49 0 -108 -201.5t-113 -537.5q120 223 188 424t68 270q0 25 -8.5 35t-26.5 10z" />
    <glyph glyph-name="afii10065_afii10097" horiz-adv-x="1951" 
d="M1737 178q54 0 113.5 30.5t101.5 72.5q35 -15 35 -50q0 -23 -19 -45q-76 -86 -173 -144t-181 -58q-28 0 -53.5 5.5t-53.5 19t-47.5 37t-34.5 59t-14.5 85t12.5 115.5l25 115h-98q-56 -115 -129.5 -202t-152 -136.5t-154.5 -73.5t-150 -24q-97 0 -157.5 49.5t-69.5 146.5
q-147 -196 -304 -196q-61 0 -108 23.5t-74.5 59.5t-44.5 84t-23 90.5t-6 86.5q0 178 69 342.5t189.5 268t258.5 103.5q135 0 211 -67q50 59 139 59q55 0 96 -26l-143 -678q-38 -176 84 -176q83 0 179.5 66t178.5 212q-93 27 -141.5 96.5t-48.5 159.5t39 160.5t102.5 112
t136 62.5t148.5 21q72 0 130.5 -19.5t101 -61.5t55 -107t-8.5 -156l-78 -370q-33 -152 62 -152zM342 195q50 0 108 36t99 93l115 548q-50 17 -97 17q-88 0 -156 -53t-105.5 -138t-56 -175.5t-18.5 -180.5q0 -73 30.5 -110t80.5 -37zM1284 688q-2 -66 24 -111t76 -45h86
l52 236q16 79 -5.5 117.5t-62.5 38.5q-76 0 -122 -73t-48 -163z" />
    <glyph glyph-name="afii10065_afii10097.end" horiz-adv-x="1978" 
d="M1423 305l25 115h-98q-56 -115 -129.5 -202t-152 -136.5t-154.5 -73.5t-150 -24q-97 0 -157.5 49.5t-69.5 146.5q-147 -196 -304 -196q-61 0 -108 23.5t-74.5 59.5t-44.5 84t-23 90.5t-6 86.5q0 178 69 342.5t189.5 268t258.5 103.5q135 0 211 -67q50 59 139 59
q55 0 96 -26l-143 -678q-38 -176 84 -176q83 0 179.5 66t178.5 212q-93 27 -141.5 96.5t-48.5 159.5t39 160.5t102.5 112t136 62.5t148.5 21q72 0 129 -19.5t99 -61t54.5 -106.5t-4.5 -157l-78 -370q-15 -78 -1.5 -114t46.5 -36q31 0 62 24t53 75q29 0 45 -15t16 -41
q0 -67 -47 -124t-111 -86t-124 -29q-28 0 -53.5 5.5t-53.5 19t-47.5 37t-34.5 59t-14.5 85t12.5 115.5zM342 195q50 0 108 36t99 93l115 548q-50 17 -97 17q-88 0 -156 -53t-105.5 -138t-56 -175.5t-18.5 -180.5q0 -73 30.5 -110t80.5 -37zM1284 688q-2 -66 24 -111t76 -45
h86l52 236q16 79 -5.5 117.5t-62.5 38.5q-76 0 -122 -73t-48 -163z" />
    </font>
</defs>
</svg>
